<svg width="34" height="34" viewBox="0 0 34 34" fill="none" xmlns="http://www.w3.org/2000/svg">
<g id="Frame 48095638">
<rect width="33.94" height="33.94" rx="16.97" fill="#151515"/>
<g id="Group">
<path id="Vector" d="M16.9939 8.79872C21.3481 8.79872 24.8975 12.242 25.0614 16.5528L28.881 18.8964C28.9951 18.2304 29.0543 17.5463 29.0543 16.8477C29.0543 10.1925 23.6552 4.79736 16.993 4.79736C10.3309 4.79736 4.93262 10.1934 4.93262 16.8486C4.93262 18.2895 5.18572 19.6721 5.65073 20.9519C6.1106 22.2214 6.7781 23.3906 7.61205 24.421L11.0413 22.3166L14.9957 19.8899V29.1218H18.8874V19.8153L22.9533 22.3106L26.3818 24.415C27.2149 23.3846 27.8815 22.2146 28.3405 20.9442L24.8366 18.7935L20.8093 16.3223L17.0025 13.9864L16.9939 13.9916L13.1957 16.3223L9.15381 18.8021C9.00023 18.1815 8.91873 17.5343 8.91873 16.8666C8.91873 12.4109 12.5342 8.79957 16.993 8.79957L16.9939 8.79872ZM16.9939 18.6529L17.0016 18.6572L16.9939 18.6624V18.6521V18.6529Z" fill="#FF0083"/>
</g>
</g>
</svg>
