<svg width="34" height="34" viewBox="0 0 34 34" fill="none" xmlns="http://www.w3.org/2000/svg">
<g id="shiba-inu-shib-logo 1" clip-path="url(#clip0_646_7252)">
<g id="Group_938">
<g id="Group_931">
<path id="Path_8573" d="M24.851 2.98605C23.9678 3.85939 23.1585 4.80595 22.4392 5.81526L22.2118 5.74204C20.9001 5.31844 19.5408 5.05697 18.1709 4.96806C17.7584 4.93669 16.2193 4.93669 15.7168 4.96806C14.1988 5.06742 13.0352 5.2923 11.713 5.74727C11.6601 5.76819 11.6125 5.78388 11.5649 5.79957C10.8191 4.79549 9.98874 3.85416 9.07373 2.99128C13.4637 0.768708 18.5994 0.501999 23.1956 2.25391C23.6874 2.43694 24.1687 2.65136 24.6395 2.88146L24.851 2.98605Z" fill="#F00500"/>
<path id="Path_8574" d="M33.0382 22.8221C32.3718 24.6995 31.3722 26.441 30.0763 27.9575C29.3729 28.7734 28.5954 29.5212 27.7597 30.201C25.8028 31.7595 23.5179 32.8734 21.0796 33.4591C18.3822 34.1023 15.5684 34.1023 12.871 33.4591C10.4274 32.8734 8.14784 31.7595 6.19088 30.201C5.3552 29.5212 4.57771 28.7734 3.87426 27.9575C0.145461 23.6013 -0.986401 17.6187 0.912377 12.227C1.27203 11.2281 1.72161 10.2659 2.26109 9.35068C2.50968 8.93232 2.81645 8.46166 2.96454 8.26816C3.47229 10.428 4.0964 12.3263 4.32912 13.0114C4.31325 13.048 4.2921 13.0898 4.27094 13.1264C3.03859 15.5948 2.37216 17.9743 2.21349 20.5054C2.21349 20.5368 2.2082 20.5734 2.2082 20.6047C2.16589 21.363 2.18704 21.7239 2.31398 22.1998C2.71066 23.6902 3.93244 25.3323 5.84709 26.943C8.98351 29.5787 13.2359 31.4823 16.457 31.7019C19.8155 31.9268 24.7714 29.9866 28.0718 27.1522C28.5901 26.6972 29.0767 26.2161 29.5316 25.7036C29.8595 25.3271 30.3461 24.6786 30.3091 24.6786C30.2985 24.6786 30.3091 24.6681 30.3302 24.6577C30.3461 24.6472 30.3619 24.6315 30.3514 24.6211C30.3461 24.6158 30.3567 24.6001 30.3725 24.5949C30.3884 24.5897 30.399 24.5792 30.3937 24.5688C30.3884 24.5583 30.3937 24.5479 30.4148 24.5426C30.4307 24.5374 30.436 24.5217 30.4307 24.5112C30.4254 24.5008 30.4307 24.4903 30.4413 24.4903C30.4519 24.4903 30.4624 24.4746 30.4624 24.4642C30.4624 24.4537 30.473 24.438 30.4836 24.438C30.4942 24.438 30.5048 24.4276 30.5048 24.4171C30.5206 24.3753 30.5471 24.3334 30.5735 24.2968C30.6529 24.1766 30.9702 23.617 31.0125 23.5229C31.314 22.8482 31.5044 22.2468 31.5943 21.6454C31.6366 21.3578 31.6631 20.8296 31.6419 20.7041C31.6366 20.6832 31.6366 20.6466 31.6313 20.5891C31.6208 20.4845 31.6155 20.3276 31.6049 20.1707C31.5943 19.9354 31.5732 19.6059 31.5573 19.4438C31.3299 17.0695 30.7163 15.1294 29.5527 13.0741C29.5051 12.9957 29.4628 12.9173 29.4364 12.8545C29.4258 12.8388 29.4205 12.8231 29.4152 12.8127C29.5792 12.3263 30.2509 10.292 30.7851 7.96484L30.7957 7.9753L30.875 8.0799C31.0125 8.26293 31.3775 8.80681 31.5414 9.06829C32.2872 10.2711 32.869 11.5628 33.2815 12.912C34.2388 16.1596 34.1595 19.6216 33.0382 22.8221Z" fill="#F00500"/>
<path id="Path_8575" d="M26.1732 16.5723C26.1574 16.656 25.9088 16.907 25.6602 17.0901C24.9303 17.6183 23.6239 18.1098 22.2963 18.3452C21.54 18.4811 20.7837 18.5021 20.5562 18.3922C20.4081 18.319 20.387 18.2615 20.4399 18.0732C20.5509 17.681 20.9106 17.2522 21.4712 16.8495C21.7568 16.6456 22.9152 15.95 23.4546 15.6572C24.3432 15.1761 25.0625 14.8884 25.5491 14.8204C25.7025 14.7995 25.8876 14.7943 25.9458 14.8204C26.041 14.857 26.1468 15.1342 26.1891 15.4689C26.2102 15.6467 26.1997 16.4312 26.1732 16.5723Z" fill="black"/>
<path id="Path_8576" d="M13.7121 18.3037C13.6803 18.3665 13.5217 18.4345 13.3418 18.4606C13.162 18.4868 12.6119 18.4711 12.2999 18.4345C11.1786 18.288 9.98857 17.9481 9.12116 17.5297C8.63456 17.2944 8.28548 17.0591 8.02632 16.8028L7.87823 16.6512L7.86236 16.4524C7.83591 16.1073 7.8412 15.5634 7.88351 15.3699C7.90996 15.2078 7.96814 15.0509 8.04747 14.9097C8.08979 14.8574 8.08979 14.8574 8.28019 14.8574C8.51291 14.8574 8.70861 14.894 9.02595 14.9934C9.67651 15.1921 10.6444 15.6732 11.8239 16.374C12.7971 16.9493 13.162 17.2317 13.4423 17.6186C13.6327 17.8592 13.7597 18.1991 13.7121 18.3037Z" fill="black"/>
<path id="Path_8577" d="M21.2015 25.5829C21.2015 25.5986 21.1381 25.8497 21.0587 26.1477C20.9794 26.4458 20.9159 26.6864 20.9159 26.6968C20.8578 26.7021 20.8049 26.7073 20.7467 26.7021H20.5774L20.3447 27.246C20.2178 27.544 20.1014 27.8212 20.0855 27.863L20.0538 27.9363L19.9427 27.7584L19.8317 27.5806V26.132L19.7894 26.1425C19.6994 26.1634 19.0595 26.2471 18.7791 26.2732C17.6208 26.3883 16.4572 26.3622 15.3042 26.2C15.1191 26.1739 14.9604 26.153 14.9551 26.1582C14.9499 26.1634 14.9551 26.4981 14.9657 26.9113L14.9816 27.6539L14.8917 27.7898C14.8441 27.863 14.7965 27.9258 14.7965 27.931C14.7806 27.9467 14.7277 27.863 14.6061 27.6225C14.4738 27.3715 14.3786 27.1048 14.3099 26.8276L14.2729 26.6759L14.1089 26.6864L13.9449 26.7021L13.9026 26.5086C13.8815 26.404 13.855 26.2419 13.8444 26.153L13.8286 25.9856L13.6911 25.8653C13.6117 25.7974 13.5324 25.7294 13.5165 25.7189C13.4901 25.698 13.4795 25.6614 13.4795 25.63V25.5673L14.1406 25.5725L14.8018 25.5777L14.8229 25.6457L14.8441 25.7137L15.0715 25.7241C15.1984 25.7294 15.6004 25.7398 15.9601 25.7503L16.6212 25.766L16.7905 25.5045L16.965 25.243H17.1871L17.1818 24.6991L17.1766 24.1553L16.8857 24.0298C15.9495 23.6218 15.3994 23.1564 15.1932 22.5916C15.1508 22.4766 15.1508 22.4347 15.1403 21.9118C15.135 21.394 15.135 21.347 15.172 21.2319C15.246 20.9705 15.4523 20.7665 15.7168 20.6985C15.8067 20.6724 16.0447 20.6724 17.2929 20.6724L18.7633 20.6776L18.9272 20.756C19.1229 20.8502 19.2129 20.9182 19.3239 21.0646C19.4509 21.2319 19.4879 21.3627 19.4879 21.6817C19.4879 22.1366 19.4562 22.5289 19.4086 22.6858C19.3398 22.9002 19.234 23.1041 19.1018 23.2872C18.8373 23.6218 18.356 23.9565 17.917 24.1082L17.7901 24.1553L17.7954 24.7044L17.8007 25.2535L17.917 25.2639L18.0334 25.2744L18.1921 25.5097L18.3454 25.7451H19.0542C19.4456 25.7451 19.7894 25.7503 19.8211 25.7555C19.874 25.766 19.8846 25.7608 19.9375 25.6718L20.0009 25.5777H20.6092C21.064 25.5568 21.2015 25.5673 21.2015 25.5829Z" fill="black"/>
<path id="Path_8578" d="M18.4089 27.0842C18.3085 27.1417 18.2397 27.1678 18.2238 27.1574C18.208 27.1521 18.1339 27.0894 18.0546 27.0319L17.9118 26.9168L17.7637 27.0737C17.441 27.4189 17.4305 27.4345 17.3353 27.4398C17.1872 27.4555 17.1554 27.4293 16.9756 27.1626C16.8804 27.0266 16.8064 26.9116 16.8064 26.9116C16.8064 26.9116 16.7376 26.9011 16.6583 26.8959L16.5102 26.8802L16.4414 27.0214L16.3727 27.1626L16.251 27.126C16.1558 27.0946 16.0606 27.058 15.9707 27.0162L15.812 26.9377V26.6396L17.2189 26.6449L18.6258 26.6501L18.6311 26.7913C18.6364 26.9587 18.6417 26.9534 18.4089 27.0842Z" fill="black"/>
</g>
<path id="Path_8579" d="M31.6314 20.7037C31.6261 20.6828 31.6261 20.6462 31.6208 20.5887C30.3515 20.4527 26.7284 20.369 23.3646 23.1145C23.3646 23.1145 22.2803 18.1987 17.2028 18.1987C12.1253 18.1987 10.2424 23.1145 10.2424 23.1145C7.39687 20.0866 3.58873 20.3063 2.21357 20.505C2.21357 20.5364 2.20828 20.573 2.20828 20.6043C2.16597 21.3626 2.18712 21.7235 2.31406 22.1994C2.71074 23.6898 3.93252 25.3319 5.84717 26.9426C8.98359 29.5783 13.236 31.4819 16.4571 31.7015C19.8156 31.9264 24.7715 29.9862 28.0719 27.1518C28.5902 26.6968 29.0768 26.2157 29.5316 25.7032C29.8596 25.3267 30.3462 24.6782 30.3091 24.6782C30.2986 24.6782 30.3091 24.6677 30.3303 24.6573C30.3462 24.6468 30.362 24.6311 30.3515 24.6207C30.3462 24.6154 30.3567 24.5997 30.3726 24.5945C30.3885 24.5893 30.3991 24.5788 30.3938 24.5684C30.3885 24.5579 30.3938 24.5474 30.4149 24.5422C30.4308 24.537 30.4361 24.5213 30.4308 24.5108C30.4255 24.5004 30.4308 24.4899 30.4414 24.4899C30.4519 24.4899 30.4625 24.4742 30.4625 24.4638C30.4625 24.4533 30.4731 24.4376 30.4837 24.4376C30.4943 24.4376 30.5048 24.4272 30.5048 24.4167C30.5207 24.3749 30.5472 24.333 30.5736 24.2964C30.6529 24.1761 30.9703 23.6166 31.0126 23.5224C31.3141 22.8478 31.5045 22.2464 31.5944 21.645C31.6261 21.3574 31.6526 20.8292 31.6314 20.7037ZM18.4087 27.0838C18.3082 27.1413 18.2395 27.1675 18.2236 27.157C18.2077 27.1518 18.1337 27.089 18.0543 27.0315L17.9115 26.9164L17.7634 27.0733C17.4408 27.4185 17.4302 27.4342 17.335 27.4394C17.1869 27.4551 17.1552 27.4289 16.9754 27.1622C16.8802 27.0263 16.8061 26.9112 16.8061 26.9112C16.8061 26.9112 16.7374 26.9008 16.658 26.8955L16.5099 26.8798L16.4412 27.021L16.3724 27.1622L16.2508 27.1256C16.1556 27.0943 16.0604 27.0576 15.9705 27.0158L15.8118 26.9374V26.6393L17.2187 26.6445L18.6256 26.6497L18.6309 26.7909C18.6361 26.9583 18.6414 26.9531 18.4087 27.0838ZM21.0533 26.1425C20.9739 26.4406 20.9104 26.6811 20.9104 26.6916C20.8523 26.6968 20.7994 26.702 20.7412 26.6968H20.572L20.3445 27.2459C20.2176 27.544 20.1012 27.8212 20.0854 27.863L20.0536 27.9362L19.9426 27.7584L19.8315 27.5806V26.132L19.7892 26.1425C19.6993 26.1634 19.0593 26.2471 18.779 26.2732C17.6206 26.3883 16.457 26.3621 15.304 26.2C15.1189 26.1738 14.9602 26.1529 14.955 26.1582C14.9497 26.1634 14.955 26.4981 14.9655 26.9112L14.9814 27.6538L14.8915 27.7898C14.8439 27.863 14.7963 27.9258 14.7963 27.931C14.7804 27.9467 14.7275 27.863 14.6059 27.6224C14.4736 27.3714 14.3784 27.1047 14.3097 26.8275L14.2727 26.6759L14.1087 26.6863L13.9447 26.702L13.9024 26.5085C13.8813 26.4039 13.8548 26.2418 13.8442 26.1529L13.8284 25.9856L13.6909 25.8653C13.6115 25.7973 13.5322 25.7293 13.5163 25.7189C13.4899 25.698 13.4793 25.6613 13.4793 25.63V25.5672L14.1404 25.5724L14.8016 25.5777L14.8227 25.6457L14.8439 25.7136L15.0713 25.7241C15.1983 25.7293 15.6002 25.7398 15.9599 25.7503L16.621 25.7659L16.7903 25.5045L16.9648 25.243H17.1869L17.1817 24.6991L17.1764 24.1552L16.8855 24.0297C15.9493 23.6218 15.3992 23.1564 15.193 22.5916C15.1506 22.4765 15.1506 22.4347 15.1401 21.9117C15.1348 21.394 15.1348 21.3469 15.1718 21.2319C15.2459 20.9704 15.4521 20.7665 15.7166 20.6985C15.8065 20.6723 16.0445 20.6723 17.2927 20.6723L18.7631 20.6776L18.927 20.756C19.1227 20.8501 19.2127 20.9181 19.3237 21.0645C19.4507 21.2319 19.4877 21.3626 19.4877 21.6816C19.4877 22.1366 19.456 22.5288 19.4084 22.6857C19.3396 22.9001 19.2338 23.1041 19.1016 23.2871C18.8371 23.6218 18.3558 23.9565 17.9168 24.1082L17.7899 24.1552L17.7952 24.7043L17.8005 25.2534L17.9168 25.2639L18.0332 25.2744L18.1919 25.5097L18.3452 25.745H19.054C19.4454 25.745 19.7892 25.7502 19.8209 25.7555C19.8738 25.7659 19.8844 25.7607 19.9373 25.6718L20.0007 25.5777H20.609C21.0797 25.5777 21.2172 25.5829 21.2172 25.5986C21.2014 25.5934 21.1326 25.8496 21.0533 26.1425Z" fill="white"/>
<path id="Path_8582" d="M31.5892 20.1705C31.5786 19.9352 31.5575 19.6057 31.5416 19.4436C31.3142 17.0694 30.7007 15.1292 29.5371 13.074C29.4895 12.9955 29.4472 12.9171 29.4207 12.8543C29.4101 12.8386 29.4048 12.8229 29.3995 12.8125C29.5635 12.3261 30.2352 10.2918 30.7694 7.96466C31.494 4.80599 31.9542 1.11391 30.5473 0.00523359C30.5473 0.00523359 28.1143 -0.172572 24.8562 2.9861C23.973 3.85944 23.1637 4.80599 22.4444 5.8153L22.217 5.74209C20.9053 5.31849 19.546 5.05701 18.1761 4.96811C17.7636 4.93673 16.2245 4.93673 15.722 4.96811C14.204 5.06747 13.0404 5.29234 11.7182 5.74732C11.6653 5.76823 11.6177 5.78392 11.5701 5.79961C10.8243 4.79553 9.99393 3.85421 9.07892 2.99133C5.68863 -0.183031 3.16574 3.69094e-06 3.16574 3.69094e-06C1.67422 1.14528 2.18197 5.00472 2.95417 8.26798C3.46193 10.4278 4.08604 12.3261 4.31876 13.0112C4.30289 13.0478 4.28173 13.0897 4.26058 13.1263C3.02822 15.5946 2.3618 17.9741 2.20312 20.5052C3.58357 20.3065 7.38642 20.0816 10.2372 23.1148C10.2372 23.1148 12.1201 18.199 17.1977 18.199C22.2752 18.199 23.3594 23.1148 23.3594 23.1148C26.7233 20.3692 30.3463 20.4581 31.6157 20.5889C31.6104 20.4843 31.5998 20.3274 31.5892 20.1705ZM5.31839 11.0397C5.31839 11.0397 3.34027 6.15 3.84803 3.3574C3.93265 2.88673 4.09133 2.4736 4.33991 2.15982C4.33991 2.15982 6.58248 2.37946 10.2002 6.35395C10.2002 6.35395 9.51263 6.68341 8.59233 7.38418C8.59233 7.38418 8.58704 7.38941 8.58175 7.38941C7.58211 8.14769 6.30216 9.3505 5.31839 11.0397ZM13.7122 18.3035C13.6804 18.3663 13.5217 18.4343 13.3419 18.4604C13.1621 18.4866 12.612 18.4709 12.3 18.4343C11.1787 18.2879 9.98865 17.9479 9.12124 17.5296C8.63464 17.2942 8.28556 17.0589 8.0264 16.8027L7.87831 16.651L7.86244 16.4523C7.83599 16.1071 7.84128 15.5632 7.88359 15.3698C7.91004 15.2076 7.96822 15.0507 8.04755 14.9095C8.08987 14.8573 8.08987 14.8573 8.28027 14.8573C8.51299 14.8573 8.70869 14.8939 9.02603 14.9932C9.67659 15.1919 10.6445 15.6731 11.824 16.3738C12.7971 16.9491 13.1621 17.2315 13.4424 17.6185C13.6328 17.859 13.7598 18.199 13.7122 18.3035ZM26.1732 16.5726C26.1573 16.6562 25.9088 16.9072 25.6602 17.0903C24.9303 17.6185 23.6239 18.1101 22.2963 18.3454C21.54 18.4814 20.7836 18.5023 20.5562 18.3925C20.4081 18.3192 20.387 18.2617 20.4399 18.0734C20.5509 17.6812 20.9106 17.2524 21.4712 16.8497C21.7568 16.6458 22.9151 15.9502 23.4546 15.6574C24.3432 15.1763 25.0625 14.8886 25.5491 14.8206C25.7025 14.7997 25.8876 14.7945 25.9458 14.8206C26.041 14.8573 26.1468 15.1344 26.1891 15.4691C26.2102 15.6469 26.1997 16.4314 26.1732 16.5726ZM25.2952 7.38418L25.2847 7.37895C24.3961 6.67818 23.7297 6.34872 23.7297 6.34872C27.2257 2.37423 29.389 2.15459 29.389 2.15459C29.627 2.4736 29.7804 2.8815 29.865 3.35217C30.3569 6.14477 28.4475 11.0397 28.4475 11.0397C27.6489 9.6329 26.5752 8.38826 25.2952 7.38418Z" fill="#FFA409"/>
<g id="Group_934">
<g id="Group_933">
<g id="Group_932">
<path id="Path_8585" d="M29.8701 3.35236C29.4576 3.30006 27.5059 3.2896 25.2951 7.38437L25.2845 7.37914C24.3959 6.67837 23.7295 6.34891 23.7295 6.34891C27.2256 2.37443 29.3888 2.15479 29.3888 2.15479C29.6321 2.47379 29.7855 2.8817 29.8701 3.35236Z" fill="#FF9300"/>
</g>
<path id="Path_8586" d="M28.4525 11.0397C27.6486 9.62769 26.5802 8.38828 25.2949 7.38419C27.5058 3.28943 29.4521 3.29989 29.87 3.35219C30.3619 6.15001 28.4525 11.0397 28.4525 11.0397Z" fill="#FF8300"/>
<path id="Path_8587" d="M29.9486 3.36823C29.9224 3.363 29.8963 3.35777 29.8701 3.35254L29.9486 3.36823Z" fill="#FF8300"/>
</g>
</g>
<g id="Group_937">
<g id="Group_936">
<g id="Group_935">
<path id="Path_8590" d="M10.1998 6.34891C10.1998 6.34891 9.51218 6.67837 8.59188 7.37914C8.59188 7.37914 8.58658 7.38437 8.5813 7.38437C6.29113 3.28438 4.27599 3.30006 3.84229 3.35236C3.92691 2.8817 4.08559 2.46856 4.33417 2.15479C4.33946 2.15479 6.58202 2.37443 10.1998 6.34891Z" fill="#FF9300"/>
</g>
<path id="Path_8591" d="M8.58701 7.38419C7.58208 8.14771 6.30213 9.34529 5.31836 11.0397C5.31836 11.0397 3.34024 6.15001 3.84799 3.35219C4.27641 3.29989 6.29684 3.28943 8.58701 7.38419Z" fill="#FF8300"/>
<path id="Path_8592" d="M3.84686 3.35254C3.82071 3.35777 3.78933 3.363 3.76318 3.36823L3.84686 3.35254Z" fill="#FF8300"/>
</g>
</g>
<path id="Path_8593" d="M23.1003 13.7536C23.1003 13.7536 21.4078 13.8582 21.6194 12.5508C21.8309 11.2434 23.1532 11.0865 23.5234 11.1388C23.8937 11.1911 25.3746 11.7141 25.1102 12.8123C24.8457 13.9105 24.4755 13.7013 24.2639 13.7536C24.0524 13.8059 23.1003 13.7536 23.1003 13.7536Z" fill="white"/>
<path id="Path_8594" d="M10.6179 13.7536C10.6179 13.7536 8.92539 13.8582 9.13695 12.5508C9.34852 11.2434 10.6708 11.0865 11.041 11.1388C11.4113 11.1911 12.8922 11.7141 12.6277 12.8123C12.3633 13.9105 11.9931 13.7013 11.7815 13.7536C11.5699 13.8059 10.6179 13.7536 10.6179 13.7536Z" fill="white"/>
</g>
</g>
<defs>
<clipPath id="clip0_646_7252">
<rect width="33.94" height="33.94" fill="white"/>
</clipPath>
</defs>
</svg>
