<svg width="34" height="34" viewBox="0 0 34 34" fill="none" xmlns="http://www.w3.org/2000/svg">
<g id="chainlink" clip-path="url(#clip0_646_7291)">
<g id="Layer_x0020_1">
<path id="Vector" d="M16.97 0C26.3431 0 33.94 7.59839 33.94 16.97C33.94 26.3431 26.3431 33.94 16.97 33.94C7.59839 33.94 0 26.3424 0 16.97C0 7.59839 7.59839 0 16.97 0Z" fill="#2A5ADA"/>
<g id="Layer 2">
<g id="Layer 1">
<path id="Vector_2" d="M16.9699 6.36377L14.9497 7.53873L9.44455 10.7571L7.42432 11.9321V23.0686L9.44455 24.2436L15.0002 27.4619L17.0204 28.6369L19.0407 27.4619L24.4953 24.2436L26.5156 23.0686V11.9321L24.4953 10.7571L18.9902 7.53873L16.9699 6.36377ZM11.4648 20.7187V14.282L16.9699 11.0636L22.4751 14.282V20.7187L16.9699 23.9371L11.4648 20.7187Z" fill="white"/>
</g>
</g>
</g>
</g>
<defs>
<clipPath id="clip0_646_7291">
<rect width="33.94" height="33.94" fill="white"/>
</clipPath>
</defs>
</svg>
