<svg width="34" height="34" viewBox="0 0 34 34" fill="none" xmlns="http://www.w3.org/2000/svg">
<g id="chiliz-chz-seeklogo.com 1" clip-path="url(#clip0_646_7552)">
<path id="Vector" d="M20.1376 17.7617C20.1376 17.5354 20.1376 17.4223 19.9113 17.3092C19.1194 16.7435 18.2143 16.1778 17.4224 15.6122C17.3386 15.5562 17.2402 15.5264 17.1395 15.5264C17.0388 15.5264 16.9404 15.5562 16.8567 15.6122L14.3678 17.4223C14.2639 17.4753 14.1769 17.5564 14.1169 17.6564C14.0569 17.7565 14.0262 17.8713 14.0284 17.988C14.0231 18.2319 13.9442 18.4685 13.8021 18.6668C13.7462 18.7505 13.7163 18.8489 13.7163 18.9496C13.7163 19.0503 13.7462 19.1487 13.8021 19.2324C14.7072 21.0426 15.4991 22.8527 16.4042 24.6628C16.7436 25.2285 16.9698 25.9073 17.3092 26.5861C17.4224 26.473 17.4224 26.3598 17.5355 26.2467C18.5537 23.984 19.4588 21.7214 20.477 19.4587C20.5901 19.2324 20.5901 19.1193 20.3638 19.0062C20.2366 18.8283 20.1504 18.6244 20.1113 18.4093C20.0722 18.1941 20.0811 17.973 20.1376 17.7617Z" fill="#CD0124"/>
<path id="Vector_2" d="M16.2914 14.8206C14.0288 13.2367 11.7661 11.6529 9.61655 10.1821L9.50342 10.2953C9.61655 10.5215 9.61655 10.6347 9.72969 10.8609L12.1055 15.9519C12.3318 16.4045 12.4449 16.857 13.1237 16.9701C13.3192 16.9877 13.5156 16.9484 13.6894 16.857C14.3682 16.2913 15.1601 15.8388 15.8389 15.2731L16.2914 14.8206Z" fill="#CD0124"/>
<path id="Vector_3" d="M16.97 0C13.6137 0 10.3327 0.995273 7.54198 2.85996C4.75128 4.72465 2.57619 7.375 1.29177 10.4759C0.00735286 13.5767 -0.32871 16.9888 0.326081 20.2807C0.980873 23.5725 2.59711 26.5963 4.97041 28.9696C7.3437 31.3429 10.3675 32.9591 13.6593 33.6139C16.9512 34.2687 20.3633 33.9327 23.4641 32.6482C26.565 31.3638 29.2154 29.1887 31.08 26.398C32.9447 23.6073 33.94 20.3263 33.94 16.97C33.94 12.4693 32.1521 8.15289 28.9696 4.9704C25.7871 1.78791 21.4707 0 16.97 0ZM26.1338 9.8426C25.9075 9.8426 25.7944 9.95573 25.6813 10.182C24.7762 12.4447 23.758 14.7073 22.8529 16.97V17.4225C22.9433 17.6138 22.9914 17.8223 22.9938 18.0338C22.9963 18.2453 22.9531 18.4549 22.8672 18.6482C22.7812 18.8415 22.6546 19.014 22.496 19.1539C22.3374 19.2938 22.1504 19.3979 21.9479 19.4589C21.8347 19.4589 21.7216 19.5721 21.6085 19.7983C20.5903 22.061 19.5721 24.4368 18.667 26.6995C18.6111 26.7832 18.5812 26.8816 18.5812 26.9823C18.5812 27.083 18.6111 27.1814 18.667 27.2651C18.8784 27.5553 18.9725 27.9145 18.9306 28.2711C18.8886 28.6276 18.7137 28.9552 18.4407 29.1884C18.2036 29.4227 17.8896 29.5632 17.5569 29.584C17.2241 29.6048 16.8951 29.5045 16.6306 29.3015C16.4893 29.2051 16.3685 29.0817 16.2749 28.9385C16.1814 28.7952 16.117 28.635 16.0855 28.4669C16.054 28.2987 16.0559 28.126 16.0912 27.9586C16.1265 27.7913 16.1945 27.6325 16.2912 27.4914C16.3467 27.3869 16.3757 27.2703 16.3757 27.152C16.3757 27.0337 16.3467 26.9171 16.2912 26.8126C15.1599 24.5499 14.1417 22.2873 13.0103 20.0246C12.9588 19.9096 12.8807 19.8086 12.7823 19.7299C12.6839 19.6512 12.5682 19.5971 12.4447 19.5721C12.2141 19.5337 11.9963 19.4402 11.8098 19.2994C11.6233 19.1586 11.4736 18.9747 11.3736 18.7635C11.2735 18.5523 11.2261 18.32 11.2353 18.0865C11.2445 17.853 11.3101 17.6252 11.4265 17.4225C11.4824 17.3388 11.5123 17.2404 11.5123 17.1397C11.5123 17.039 11.4824 16.9406 11.4265 16.8569C10.4083 14.5942 9.39007 12.4447 8.25874 10.182C8.25874 10.0689 8.14561 9.95573 7.80621 9.95573C7.47349 9.90895 7.16739 9.74793 6.94035 9.50025C6.71331 9.25258 6.57947 8.93366 6.56174 8.59813C6.58266 8.28384 6.68839 7.9811 6.86768 7.72212C7.04698 7.46314 7.29312 7.25761 7.57994 7.1274C7.88443 7.00945 8.22052 7.00141 8.53029 7.10467C8.84007 7.20793 9.10412 7.41602 9.27694 7.69307C9.39007 7.91933 9.50321 7.91933 9.84261 7.91933H24.2105C24.4368 7.91933 24.6631 7.91933 24.7762 7.57993C24.9306 7.31344 25.1744 7.11035 25.4644 7.00677C25.7545 6.90319 26.0718 6.90585 26.3601 7.01427C26.6411 7.12067 26.886 7.30481 27.0663 7.5452C27.2466 7.78558 27.3548 8.0723 27.3783 8.37187C27.3825 8.72572 27.259 9.06922 27.0304 9.33937C26.8018 9.60951 26.4835 9.78818 26.1338 9.8426Z" fill="#CD0124"/>
<path id="Vector_4" d="M16.9702 14.0286C17.0539 14.0846 17.1523 14.1144 17.253 14.1144C17.3537 14.1144 17.4521 14.0846 17.5358 14.0286C19.6854 12.4448 21.8349 10.974 23.8713 9.39018C23.9844 9.27705 24.0976 9.27705 24.0976 9.16392V9.05078H9.84277C9.97222 9.09828 10.0885 9.17583 10.1822 9.27705L16.9702 14.0286Z" fill="#CD0124"/>
<path id="Vector_5" d="M18.1016 14.8204C19.0066 15.4992 19.9117 16.0649 20.8168 16.6305C21.043 16.7437 21.3824 16.6305 21.7218 16.6305C21.835 16.6305 21.9481 16.4043 21.9481 16.2911C22.74 14.481 23.532 12.5577 24.3239 10.7476C24.3239 10.6345 24.437 10.5213 24.437 10.4082H24.3239C22.4006 11.7658 20.2511 13.2365 18.1016 14.8204Z" fill="#CD0124"/>
</g>
<defs>
<clipPath id="clip0_646_7552">
<rect width="33.94" height="33.94" fill="white"/>
</clipPath>
</defs>
</svg>
