<svg width="34" height="34" viewBox="0 0 34 34" fill="none" xmlns="http://www.w3.org/2000/svg">
<g id="ethereum-eth 1" clip-path="url(#clip0_615_21414)">
<g id="Group">
<path id="Vector" d="M16.9697 33.9394C26.3418 33.9394 33.9394 26.3418 33.9394 16.9697C33.9394 7.59759 26.3418 0 16.9697 0C7.59759 0 0 7.59759 0 16.9697C0 26.3418 7.59759 33.9394 16.9697 33.9394Z" fill="#627EEA"/>
<g id="Group_2">
<path id="Vector_2" d="M17.498 4.24219V13.6498L25.4494 17.2028L17.498 4.24219Z" fill="white" fill-opacity="0.602"/>
<path id="Vector_3" d="M17.4978 4.24219L9.54541 17.2028L17.4978 13.6498V4.24219Z" fill="white"/>
<path id="Vector_4" d="M17.498 23.2994V29.6916L25.4547 18.6836L17.498 23.2994Z" fill="white" fill-opacity="0.602"/>
<path id="Vector_5" d="M17.4978 29.6916V23.2983L9.54541 18.6836L17.4978 29.6916Z" fill="white"/>
<path id="Vector_6" d="M17.498 21.8196L25.4494 17.2028L17.498 13.6519V21.8196Z" fill="white" fill-opacity="0.2"/>
<path id="Vector_7" d="M9.54541 17.2028L17.4978 21.8196V13.6519L9.54541 17.2028Z" fill="white" fill-opacity="0.602"/>
</g>
</g>
</g>
<defs>
<clipPath id="clip0_615_21414">
<rect width="33.9394" height="33.9394" fill="white"/>
</clipPath>
</defs>
</svg>
