<svg width="34" height="34" viewBox="0 0 34 34" fill="none" xmlns="http://www.w3.org/2000/svg">
<g id="uniswap-uni-seeklogo.com 1" clip-path="url(#clip0_646_7307)">
<g id="Group 98">
<path id="Vector" d="M16.97 33.94C26.3423 33.94 33.94 26.3423 33.94 16.97C33.94 7.59773 26.3423 0 16.97 0C7.59773 0 0 7.59773 0 16.97C0 26.3423 7.59773 33.94 16.97 33.94Z" fill="#FF007A"/>
<g id="Group 97">
<path id="Vector_2" d="M13.7081 8.55256C13.473 8.51695 13.4588 8.50983 13.5727 8.49559C13.7864 8.45999 14.292 8.50983 14.6338 8.58817C15.4456 8.78044 16.1791 9.27181 16.9696 10.1406L17.1761 10.3685L17.4752 10.3186C18.7357 10.1192 20.0175 10.2759 21.0857 10.7673C21.3777 10.9026 21.8477 11.1732 21.9046 11.2444C21.926 11.2658 21.9545 11.4082 21.983 11.5577C22.0613 12.0847 22.0257 12.4835 21.8619 12.7826C21.7765 12.9464 21.7693 12.9962 21.8263 13.1387C21.8762 13.2526 22.0043 13.3309 22.1325 13.3309C22.396 13.3309 22.688 12.9037 22.8162 12.3055L22.866 12.0705L22.9728 12.1915C23.5425 12.8396 23.9983 13.7155 24.0766 14.3422L24.098 14.5059L23.9983 14.3564C23.8345 14.1 23.6636 13.9291 23.45 13.7867C23.0654 13.5303 22.6595 13.4449 21.5842 13.3879C20.6086 13.3381 20.0602 13.2526 19.5119 13.0746C18.5861 12.7755 18.1161 12.3696 17.0123 10.9311C16.521 10.2902 16.2219 9.94121 15.9156 9.65636C15.2391 9.02257 14.5697 8.68074 13.7081 8.55256Z" fill="white"/>
<path id="Vector_3" d="M22.1258 9.97689C22.1471 9.54961 22.2112 9.26476 22.3252 9.0084C22.375 8.9087 22.4178 8.82324 22.4249 8.82324C22.432 8.82324 22.4106 8.90158 22.3822 8.99415C22.2967 9.2434 22.2825 9.58522 22.3394 9.98401C22.4106 10.4896 22.4534 10.5608 22.9946 11.1092C23.2438 11.3655 23.5429 11.686 23.6426 11.8284L23.8349 12.0777L23.6426 11.8996C23.4076 11.6789 22.8593 11.2516 22.7453 11.1875C22.667 11.1448 22.6528 11.1448 22.6029 11.1946C22.5602 11.2374 22.5459 11.3086 22.5388 11.629C22.5317 12.1275 22.4605 12.4551 22.2967 12.7756C22.2041 12.9465 22.1899 12.9109 22.2753 12.7186C22.3323 12.569 22.3394 12.5049 22.3394 12.0207C22.3394 11.0451 22.2255 10.8101 21.5418 10.4113C21.3709 10.3116 21.0861 10.162 20.908 10.0837C20.73 10.0054 20.5947 9.94128 20.6018 9.93416C20.6232 9.9128 21.2855 10.1051 21.5561 10.2119C21.9549 10.3614 22.019 10.3828 22.0688 10.3686C22.0902 10.3472 22.1115 10.2546 22.1258 9.97689Z" fill="white"/>
<path id="Vector_4" d="M14.1641 11.6433C13.687 10.9881 13.3879 9.97688 13.452 9.22914L13.4733 8.99414L13.5802 9.0155C13.7867 9.05111 14.1356 9.18641 14.3065 9.28611C14.7623 9.56384 14.9546 9.91991 15.1611 10.8457C15.218 11.1163 15.2964 11.4225 15.332 11.5293C15.389 11.7002 15.6026 12.0848 15.7806 12.3411C15.9088 12.5263 15.8234 12.6117 15.5456 12.5833C15.1112 12.5477 14.5344 12.156 14.1641 11.6433Z" fill="white"/>
<path id="Vector_5" d="M21.5415 16.5284C19.2983 15.6311 18.5078 14.8549 18.5078 13.5374C18.5078 13.3451 18.5149 13.1885 18.5221 13.1885C18.5292 13.1885 18.6146 13.2526 18.7143 13.3309C19.1701 13.6941 19.6757 13.8508 21.0857 14.0502C21.9118 14.1712 22.3818 14.2709 22.8162 14.4062C24.1835 14.8549 25.0309 15.7735 25.2303 17.0197C25.2873 17.3829 25.2517 18.0594 25.1591 18.4226C25.0807 18.7075 24.8529 19.2131 24.7959 19.2344C24.7817 19.2416 24.7603 19.1775 24.7603 19.0849C24.7389 18.6149 24.4968 18.1591 24.098 17.8173C23.6494 17.4399 23.0369 17.1265 21.5415 16.5284Z" fill="white"/>
<path id="Vector_6" d="M19.9677 16.9061C19.9392 16.7423 19.8894 16.5286 19.8609 16.436L19.8039 16.2651L19.9108 16.3862C20.0603 16.55 20.1742 16.7636 20.2739 17.0414C20.3523 17.255 20.3594 17.3191 20.3594 17.668C20.3594 18.0098 20.3523 18.0811 20.2811 18.2733C20.1742 18.5795 20.0389 18.7932 19.8111 19.0211C19.398 19.4341 18.8782 19.662 18.1162 19.7617C17.9809 19.7759 17.5963 19.8044 17.2616 19.8258C16.4071 19.8685 15.8445 19.9611 15.346 20.1391C15.2748 20.1676 15.2107 20.1818 15.2036 20.1747C15.1822 20.1534 15.524 19.954 15.8089 19.8115C16.2077 19.6193 16.6065 19.5124 17.4966 19.37C17.9382 19.2988 18.3939 19.2062 18.5079 19.1706C19.5832 18.8217 20.1458 17.9671 19.9677 16.9061Z" fill="white"/>
<path id="Vector_7" d="M20.9934 18.7148C20.6943 18.081 20.6302 17.4615 20.7869 16.8918C20.8011 16.8277 20.8296 16.7778 20.851 16.7778C20.8652 16.7778 20.9364 16.8134 21.0076 16.8633C21.1429 16.9559 21.4207 17.1125 22.1541 17.5042C23.0728 18.0027 23.5926 18.3872 23.9487 18.8216C24.262 19.2062 24.4543 19.6406 24.5469 20.1747C24.5967 20.4738 24.5683 21.2073 24.4899 21.5064C24.2407 22.4677 23.671 23.2226 22.8592 23.657C22.7381 23.7211 22.6313 23.7709 22.6242 23.778C22.6099 23.778 22.6526 23.6712 22.7239 23.5359C23.0016 22.9662 23.0301 22.4108 22.8235 21.7912C22.6954 21.4138 22.439 20.9509 21.912 20.1747C21.2925 19.2774 21.1429 19.0353 20.9934 18.7148Z" fill="white"/>
<path id="Vector_8" d="M12.5762 22.1543C13.4094 21.4564 14.442 20.958 15.3891 20.8084C15.795 20.7443 16.4715 20.7657 16.849 20.8654C17.4543 21.022 17.9955 21.3639 18.2732 21.7698C18.5509 22.1686 18.6649 22.5175 18.7859 23.2937C18.8358 23.5999 18.8856 23.9062 18.8999 23.9774C18.9925 24.3762 19.1705 24.7037 19.3912 24.8604C19.7402 25.1168 20.3526 25.131 20.9508 24.9031C21.0505 24.8604 21.1431 24.8391 21.1431 24.8462C21.1644 24.8675 20.8654 25.0669 20.6517 25.1737C20.3669 25.3162 20.139 25.3731 19.8399 25.3731C19.2916 25.3731 18.8358 25.0954 18.4584 24.5328C18.3872 24.4189 18.2162 24.0913 18.0881 23.7922C17.6893 22.8878 17.4899 22.6101 17.027 22.3039C16.6211 22.0404 16.1012 21.9905 15.7096 22.1828C15.1968 22.4321 15.0544 23.0872 15.4176 23.5003C15.5671 23.664 15.8377 23.8065 16.0585 23.835C16.4786 23.8848 16.8347 23.5715 16.8347 23.1513C16.8347 22.8807 16.7279 22.724 16.4644 22.603C16.1012 22.4392 15.7096 22.6315 15.7167 22.9662C15.7167 23.1086 15.7808 23.2012 15.9232 23.2652C16.0158 23.308 16.0158 23.308 15.9446 23.2937C15.6099 23.2225 15.5315 22.8237 15.8021 22.5602C16.1226 22.2398 16.7849 22.3822 17.0127 22.8166C17.1053 23.0018 17.1196 23.3578 17.0341 23.5786C16.849 24.07 16.3006 24.3263 15.7523 24.1839C15.3749 24.0913 15.2253 23.9845 14.7695 23.5216C13.9791 22.7169 13.6729 22.5602 12.5406 22.3822L12.3198 22.3466L12.5762 22.1543Z" fill="white"/>
<path id="Vector_9" fill-rule="evenodd" clip-rule="evenodd" d="M8.87291 7.71236C11.5078 10.8884 13.3166 12.1988 13.516 12.4765C13.6798 12.7044 13.6228 12.9109 13.338 13.0747C13.1813 13.1673 12.8537 13.2527 12.6899 13.2527C12.5048 13.2527 12.4407 13.1815 12.4407 13.1815C12.3339 13.0818 12.2769 13.096 11.7214 12.1275C10.9594 10.9525 10.3185 9.97692 10.3043 9.96268C10.2616 9.92707 10.2616 9.92707 11.6431 12.3839C11.8638 12.8966 11.6858 13.0818 11.6858 13.153C11.6858 13.3026 11.6431 13.3809 11.4579 13.5803C11.1517 13.9221 11.0164 14.2995 10.9167 15.09C10.8028 15.973 10.4966 16.5997 9.62777 17.675C9.12216 18.3017 9.0367 18.4156 8.90852 18.672C8.74473 18.9925 8.702 19.1705 8.68776 19.5693C8.6664 19.9966 8.70912 20.2672 8.83731 20.6731C8.95125 21.0291 9.07231 21.2641 9.37852 21.7341C9.64201 22.1401 9.79156 22.4392 9.79156 22.5602C9.79156 22.6528 9.81292 22.6528 10.2188 22.5602C11.1944 22.3395 11.992 21.9549 12.4336 21.4849C12.7113 21.1929 12.7754 21.0291 12.7754 20.6303C12.7754 20.3669 12.7682 20.3099 12.697 20.1603C12.5831 19.9182 12.3695 19.7117 11.9066 19.3912C11.2941 18.9782 11.0378 18.6435 10.9666 18.1806C10.9096 17.8032 10.9737 17.5397 11.3155 16.8347C11.6645 16.1083 11.7499 15.795 11.8069 15.0615C11.8425 14.5844 11.8995 14.3992 12.0348 14.2497C12.1772 14.093 12.3054 14.0432 12.6614 13.9933C13.2383 13.915 13.6086 13.7654 13.9077 13.4877C14.1711 13.2456 14.278 13.0177 14.2922 12.6688L14.3064 12.4053L14.1569 12.2344C13.6299 11.6219 8.50973 7.21387 8.47412 7.21387C8.48124 7.22811 8.65215 7.44175 8.87291 7.71236ZM10.0978 20.0464C10.2188 19.8328 10.1547 19.5622 9.95535 19.434C9.76307 19.3058 9.4711 19.3699 9.4711 19.5337C9.4711 19.5835 9.49958 19.6191 9.56368 19.6547C9.67049 19.7117 9.67762 19.7687 9.59216 19.8897C9.50671 20.0179 9.51383 20.1247 9.61353 20.1959C9.77019 20.317 9.98383 20.2529 10.0978 20.0464Z" fill="white"/>
<path id="Vector_10" fill-rule="evenodd" clip-rule="evenodd" d="M14.6766 14.1429C14.406 14.2284 14.1425 14.5132 14.0641 14.8123C14.0143 14.9975 14.0428 15.3179 14.114 15.4105C14.2351 15.5672 14.349 15.6099 14.6623 15.6099C15.2819 15.6028 15.816 15.3393 15.8801 15.0117C15.9299 14.7411 15.6949 14.3708 15.3745 14.207C15.2036 14.1216 14.8475 14.086 14.6766 14.1429ZM15.3958 14.6984C15.4884 14.5631 15.4528 14.4207 15.289 14.321C14.9828 14.1358 14.5128 14.2854 14.5128 14.5773C14.5128 14.7198 14.7549 14.8764 14.9757 14.8764C15.1323 14.8764 15.3317 14.791 15.3958 14.6984Z" fill="white"/>
</g>
</g>
</g>
<defs>
<clipPath id="clip0_646_7307">
<rect width="33.94" height="33.94" fill="white"/>
</clipPath>
</defs>
</svg>
