<svg width="34" height="34" viewBox="0 0 34 34" fill="none" xmlns="http://www.w3.org/2000/svg">
<g id="apecoin-ape-ape-logo 1" clip-path="url(#clip0_646_7330)">
<g id="Layer_3">
<path id="Vector" d="M33.94 16.97C33.94 7.58895 26.3328 0 16.97 0C7.58895 0 0 7.58895 0 16.97C0 26.3328 7.58895 33.94 16.97 33.94C26.3328 33.94 33.94 26.3328 33.94 16.97Z" fill="url(#paint0_radial_646_7330)"/>
</g>
<g id="Layer_1_00000019678216197568292700000009484231850298271916_">
<path id="Vector_2" d="M28.5091 11.667C28.436 12.0876 28.3628 12.2888 28.2531 12.5082C28.1434 12.7642 28.0337 13.0385 27.924 13.6237C27.8874 13.8431 27.8508 14.026 27.8325 14.1723V14.1906C27.7959 14.4283 27.7777 14.5929 27.6862 14.8672C27.6131 15.1049 27.4851 15.4889 27.1742 15.8912C26.9182 16.2204 26.4976 16.7873 25.9307 16.8604C25.8759 16.8604 25.7844 16.8604 25.7296 16.8421C24.1203 16.0192 22.7488 15.4158 22.2734 15.2878C21.7248 15.1232 21.7979 13.9163 21.8528 12.8556C21.8894 12.3802 21.9077 11.923 21.8894 11.539C21.8162 10.1858 21.5785 8.72287 20.4081 8.00969C19.7133 7.58909 18.7989 7.46109 17.9395 7.46109C18.104 7.38794 18.2686 7.27822 18.4698 7.1685C18.9818 6.87592 19.6035 6.51018 20.2436 6.43704C20.4447 6.41875 20.6459 6.40046 20.847 6.36389C22.1088 6.2176 23.206 6.08959 24.3581 6.4919C24.8884 6.67476 25.949 7.25993 26.2233 7.82682C26.4245 8.21084 26.7536 8.52171 27.3936 9.12517C27.7411 9.43604 27.9605 9.61891 28.1251 9.7652C28.3628 9.94807 28.3994 10.0029 28.4726 10.1309C28.692 10.5698 28.6188 11.027 28.5091 11.667Z" fill="white"/>
<path id="Vector_3" d="M22.6757 17.2077C22.7488 17.226 22.7854 17.3174 22.7306 17.3906C22.566 17.6466 22.3648 18.0123 22.1271 18.4329C22.0174 18.634 21.9077 18.8352 21.8162 18.9815C21.5054 19.5118 21.4871 19.969 21.4688 20.3164C21.4505 20.7004 21.4322 20.865 21.1945 21.0113C21.0116 21.1393 20.8105 21.1759 19.4938 21.377C19.2561 21.4136 19.1647 21.4502 19.0732 21.505C19.0549 21.5233 19.0184 21.5233 19.0001 21.5416C18.9269 21.5782 18.8538 21.505 18.8538 21.4319C18.8721 21.249 18.8721 21.0113 18.8721 20.7004V20.6456C18.8721 20.3896 18.8721 20.1701 18.8538 20.0055C18.8355 19.6764 18.8355 19.5301 18.9269 19.3838C19.0367 19.2009 19.1281 19.1461 19.2561 19.0546C19.4573 18.9266 19.7316 18.7621 20.1156 18.2135C20.335 17.9209 20.3716 17.7563 20.4082 17.6283C20.4264 17.5734 20.4264 17.5551 20.591 17.4271C20.7556 17.2991 21.2859 16.8968 21.9625 17.0065C22.182 17.0431 22.4197 17.1163 22.6757 17.2077Z" fill="white"/>
<path id="Vector_4" d="M17.4276 23.2789C17.391 23.3154 17.3727 23.3337 17.3178 23.3337C17.1716 23.3337 17.0801 23.2971 17.0253 23.224C16.8973 23.0594 16.9155 22.7303 16.9338 22.5291L17.5007 22.3828C17.5373 22.6937 17.5556 23.1143 17.4276 23.2789Z" fill="white"/>
<path id="Vector_5" d="M17.4639 21.2673C17.4456 21.3404 17.4456 21.4318 17.4456 21.5416C17.4456 21.5781 17.4456 21.6147 17.4456 21.6513C17.4456 21.7427 17.4456 21.889 17.4456 21.9622C17.2628 22.017 17.1165 22.017 16.9336 22.017C16.9336 21.9622 16.9336 21.8707 16.9336 21.8159C16.9336 21.7793 16.9336 21.7244 16.9336 21.6879C16.9336 21.633 16.9336 21.5964 16.9336 21.5416C16.9336 21.4318 16.9336 21.2673 16.9519 21.2124C17.0067 21.2124 17.0616 21.1941 17.1165 21.1758C17.2262 21.1575 17.3908 21.121 17.4822 21.1393C17.4822 21.1758 17.4822 21.2307 17.4639 21.2673Z" fill="white"/>
<path id="Vector_6" d="M16.4399 23.1143C16.4216 23.4069 16.3301 23.7543 16.0558 23.8092C15.9278 23.8275 15.873 23.7909 15.8364 23.7543C15.6535 23.5897 15.6352 23.0777 15.6535 22.712C15.7815 22.712 15.9278 22.6937 16.1107 22.6571C16.2204 22.6388 16.3301 22.6023 16.4216 22.584C16.4399 22.7303 16.4581 22.9131 16.4399 23.1143Z" fill="white"/>
<path id="Vector_7" d="M16.312 22.0905L15.7085 22.3099C15.7451 22.0722 15.7816 21.743 15.7999 21.5236C15.8182 21.3773 15.8548 21.3224 15.8731 21.3042C15.8731 21.3042 15.8914 21.2859 15.9096 21.2859C15.9096 21.2859 15.9096 21.2859 15.9279 21.2859H15.9462L16.3302 21.2676C16.312 21.4504 16.312 21.8528 16.312 22.0905Z" fill="white"/>
<path id="Vector_8" d="M15.3246 21.9077C15.288 21.9991 15.2514 22.2552 15.2332 22.438L14.4834 22.4197C14.52 22.182 14.5931 21.9443 14.648 21.7614C14.7211 21.5786 14.776 21.4323 14.8491 21.3957C14.9223 21.3591 15.0869 21.3408 15.1966 21.4323C15.3612 21.542 15.3977 21.7066 15.3246 21.9077Z" fill="white"/>
<path id="Vector_9" d="M15.0502 24.2302C14.9954 24.3033 14.9222 24.3582 14.8491 24.3582C14.7577 24.3765 14.7028 24.3399 14.6479 24.3033C14.4102 24.0839 14.4285 23.3707 14.4468 23.0232C14.7577 22.9501 15.1051 22.8952 15.2697 22.877C15.2697 23.1513 15.288 23.901 15.0502 24.2302Z" fill="white"/>
<path id="Vector_10" d="M14.0625 22.383C14.0259 22.4745 13.9894 22.5659 13.9711 22.6573C13.8797 22.6939 13.6054 22.6573 13.3311 22.6025L13.5139 21.4138C13.8248 21.3224 14.1905 21.3041 14.2637 21.3956C14.3917 21.5236 14.154 22.127 14.0625 22.383Z" fill="white"/>
<path id="Vector_11" d="M13.715 24.3944C13.5688 24.5773 13.3493 24.6687 13.0384 24.6504C12.819 24.6504 12.7459 24.559 12.7093 24.5041C12.5447 24.2298 12.7093 23.5898 12.8739 23.1875L13.8979 23.2424C13.9162 23.3155 13.9162 23.4069 13.9162 23.4984C13.9345 23.8092 13.8979 24.175 13.715 24.3944Z" fill="white"/>
<path id="Vector_12" d="M22.2002 15.7449C21.2676 15.4888 21.359 14.1356 21.4322 12.819C21.4505 12.3618 21.4871 11.923 21.4688 11.5572C21.3956 10.332 21.1945 8.99709 20.207 8.39363C19.1464 7.7536 17.4091 7.89989 16.3485 8.0279C15.9645 8.13762 15.5988 8.22905 15.3062 8.21077C14.6844 8.17419 14.1907 7.91818 13.7518 7.68045C13.4226 7.49759 13.1301 7.33301 12.8375 7.33301C12.8192 7.33301 12.8009 7.33301 12.8009 7.33301C11.978 7.38787 11.594 7.58902 11.2465 7.89989C11.1551 7.97304 11.0454 8.19248 10.6979 9.19824C10.5151 9.71027 10.4968 9.98457 10.4602 10.2406C10.4236 10.4783 10.4053 10.7343 10.2773 11.1183C10.1859 11.3744 10.1128 11.5938 10.0579 11.8132C9.89332 12.3801 9.74703 12.8373 9.34472 13.3859C9.28986 13.4407 9.235 13.5505 9.16186 13.6419C9.07042 13.7882 8.9607 13.9711 8.79612 14.1722C8.6864 14.3185 8.44868 14.8671 8.46696 15.0317C8.48525 15.306 8.57668 15.4706 8.66812 15.6534C8.75955 15.8363 8.88756 16.0557 8.90584 16.3666V16.4215C8.94242 16.8969 8.86927 17.1346 7.97322 17.9393C7.40634 18.4513 6.98575 18.945 6.71145 19.3108C6.69316 19.3473 6.71145 19.3839 6.76631 19.3839C6.78459 19.3839 6.78459 19.3839 6.78459 19.3839C6.80288 19.3839 6.82117 19.3839 6.83945 19.3839C6.85774 19.3839 6.87603 19.3839 6.89431 19.3839C6.9126 19.3839 6.93089 19.3839 6.94917 19.3839C7.16861 19.4022 7.38805 19.4936 7.53435 19.6582C7.55263 19.6948 7.60749 19.6948 7.64407 19.6765C7.79036 19.6216 7.95494 19.6216 8.10123 19.6399C8.2841 19.6582 8.48525 19.7131 8.61326 19.8411C8.64983 19.8776 8.70469 19.8959 8.75955 19.8776C8.90584 19.8411 9.07042 19.8411 9.21672 19.8959C9.32644 19.9325 9.43616 20.0056 9.5093 20.0971C9.56416 20.1519 9.6556 20.1702 9.72874 20.1337C9.76532 20.1154 9.82018 20.0788 9.87504 20.0605C10.0762 19.9874 10.2956 20.0239 10.4785 20.0971C10.5699 20.1337 10.6614 20.1519 10.7528 20.2251C10.8991 20.3348 11.0088 20.4811 11.0637 20.6457C11.1002 20.7371 11.2282 20.7737 11.3014 20.7005C11.4477 20.5908 11.5574 20.5725 11.6671 20.6091C11.722 20.6274 11.7586 20.664 11.7951 20.7188C11.85 20.792 11.9414 20.8651 12.0146 20.8285C12.3254 20.7371 12.6912 20.792 12.9655 20.9383C13.0569 20.9931 13.1666 21.0663 13.2215 21.176V21.1211C13.2215 21.1028 13.2398 21.0846 13.2581 21.0663L13.3129 21.048C13.4592 20.9931 14.2273 20.7737 14.5198 21.0846C14.5381 21.1028 14.5564 21.1028 14.5747 21.0846C14.6113 21.048 14.6478 21.0114 14.6661 21.0114C14.8673 20.9017 15.1964 20.8834 15.4159 21.0846C15.4525 21.1211 15.5256 21.1028 15.5622 21.0663C15.5805 21.0297 15.5988 21.0114 15.6353 20.9931C15.7085 20.92 15.8182 20.9017 15.9279 20.9017L16.3485 20.8834C16.4582 20.8834 16.7874 20.8468 16.8788 20.8285H16.8971C16.9337 20.8285 16.9885 20.8103 17.0434 20.792C17.2445 20.7554 17.4823 20.7005 17.6651 20.792C17.848 20.8834 17.8297 21.0846 17.8114 21.2674C17.8114 21.3406 17.7931 21.4137 17.7931 21.4869C17.7931 21.5234 17.7931 21.56 17.7931 21.5966C17.7931 21.7612 17.7931 21.9075 17.7749 22.0172L17.7931 22.1086C17.7931 22.1086 17.7931 22.1086 17.7931 22.1269C17.8114 22.2 17.9029 22.2549 17.9577 22.2C18.104 22.1086 18.2503 21.9989 18.3052 21.9257V21.9075C18.3052 21.8892 18.3235 21.8526 18.3417 21.7795C18.36 21.6149 18.3966 21.304 18.3966 20.664C18.3966 20.6274 18.3966 20.6091 18.3966 20.5908C18.3966 20.3531 18.3966 20.1519 18.3783 19.9874C18.36 19.6399 18.3417 19.3656 18.5246 19.0913C18.6892 18.817 18.8538 18.7256 19.0184 18.6159C19.2012 18.5061 19.4024 18.3781 19.7498 17.9027C19.9144 17.665 19.9327 17.5735 19.951 17.5004C19.9875 17.3175 20.0424 17.2078 20.3167 17.0249C20.5361 16.8603 21.1762 16.3666 22.0539 16.5129C22.3465 16.5678 22.8037 16.7141 23.2791 16.8969C23.2974 16.8969 23.3157 16.9152 23.334 16.9152H23.3523C23.7729 17.0798 24.1569 17.2627 24.4312 17.4089C24.4861 17.4455 24.5592 17.4272 24.6141 17.3724C24.7055 17.2627 24.7969 17.2078 24.8884 17.1346C24.9249 17.1164 24.9615 17.0981 24.9798 17.0798C24.9981 17.0798 24.9981 17.0615 24.9981 17.0615C25.0712 17.0066 25.0712 16.8603 24.9798 16.8238C23.7546 16.2203 22.5842 15.8546 22.2002 15.7449ZM13.3861 16.0192C13.0935 17.2627 11.1551 18.6524 10.2773 18.6524H10.2591C10.2408 18.6524 10.2225 18.6524 10.2225 18.6524C10.2042 18.6524 10.1859 18.6524 10.1676 18.6341C10.1493 18.6341 10.1493 18.6341 10.131 18.6341C9.96647 18.5793 9.74703 18.4696 9.58245 18.305C9.47273 18.1953 9.3813 18.049 9.34472 17.921C9.34472 17.9027 9.32644 17.8661 9.32644 17.8478C9.27158 17.6284 9.21672 17.3724 9.39958 16.9335C9.41787 16.8786 9.45444 16.8238 9.47273 16.7689C9.47273 16.7506 9.49102 16.7323 9.49102 16.7141C9.5093 16.6592 9.52759 16.6226 9.54588 16.586C9.56416 16.5129 9.60074 16.458 9.61902 16.4215C9.61902 16.4032 9.63731 16.3849 9.63731 16.3666C9.69217 16.2203 9.69217 16.1655 9.71046 16.1106C9.71046 16.074 9.72874 16.0009 9.74703 15.9277C9.80189 15.69 9.83846 15.4888 9.85675 15.3243C9.89332 15.0134 9.94818 14.7391 10.1128 14.4831C10.1493 14.4465 10.1676 14.4099 10.2042 14.3734C10.2225 14.3551 10.2225 14.3551 10.2408 14.3368C10.2591 14.3185 10.2591 14.3185 10.2773 14.3002C10.3139 14.2636 10.3688 14.2454 10.4053 14.2271C10.4236 14.2271 10.4419 14.2088 10.4602 14.2088C10.4968 14.1905 10.5334 14.1905 10.5699 14.1722C10.7345 14.1356 10.9174 14.1356 11.1368 14.1539C11.3745 14.1722 11.594 14.2088 11.7768 14.2636C11.9414 14.3002 12.0877 14.3551 12.1974 14.4099C12.2157 14.4099 12.2157 14.4282 12.234 14.4282C12.2523 14.4465 12.2706 14.4465 12.3072 14.4648C12.3437 14.4831 12.362 14.4831 12.3986 14.5014C12.4352 14.5197 12.4717 14.5379 12.5083 14.5562L12.5449 14.5745C12.6729 14.6294 12.8009 14.7025 12.8923 14.7757C12.9472 14.8122 12.9838 14.8488 13.0203 14.8854C13.0386 14.9037 13.0569 14.9037 13.0569 14.922C13.0752 14.9402 13.0752 14.9402 13.0935 14.9585C13.4775 15.2877 13.4592 15.7449 13.3861 16.0192ZM14.3004 11.2829L14.2638 11.5024C14.1724 12.0144 13.9712 12.7093 13.2398 12.8921C12.5266 13.0567 12.362 13.0933 11.8683 13.1299C11.85 13.1299 11.85 13.1299 11.8317 13.1299C11.466 13.1299 10.7528 12.8921 10.6248 12.3253C10.5516 11.9595 10.7162 11.6852 10.9722 11.2463C11.0088 11.1732 11.0637 11.1001 11.1185 11.0086C11.4843 10.4052 11.6123 9.96628 11.722 9.61884C11.8317 9.27139 11.9231 8.99709 12.1609 8.75937C12.2157 8.70451 12.2706 8.64965 12.3437 8.61307C12.3803 8.5765 12.4352 8.55821 12.49 8.52164C12.5632 8.48507 12.6363 8.46678 12.7095 8.43021C12.874 8.37535 13.0569 8.35706 13.2215 8.35706C13.5689 8.35706 13.9164 8.44849 14.1541 8.64965C14.2638 8.74108 14.4284 8.90566 14.5198 9.43597C14.5564 9.71027 14.4833 10.204 14.3004 11.2829ZM19.5487 12.7459C19.2927 13.1847 19.1646 13.4225 18.9452 13.6053C18.5063 13.9711 18.0126 14.0442 17.592 14.0442C17.2994 14.0442 17.0434 13.9893 16.8788 13.9711C16.4399 13.8979 15.6536 13.7516 15.3793 13.1116C15.3245 12.9836 15.3245 12.9104 15.3245 12.8007C15.3245 12.7093 15.3245 12.5264 15.2696 12.1424V12.1241C15.2513 11.9412 15.233 11.7401 15.2696 11.4841V11.4475C15.4159 10.6795 15.4707 10.5697 15.489 10.4966C15.5622 10.3503 15.745 10.2772 15.9096 10.3686C16.0559 10.4417 16.1108 10.6246 16.0559 10.7709C16.0376 10.8075 16.0011 10.972 15.8731 11.5755V11.6121C15.8365 11.7767 15.8548 11.9047 15.8731 12.0692V12.0875C15.9279 12.5264 15.9279 12.7093 15.9279 12.819C15.9279 12.8373 15.9279 12.8556 15.9279 12.8739V12.8921C15.9828 13.0202 16.0925 13.0933 16.2205 13.1664C16.3119 13.203 16.4034 13.1299 16.3851 13.0384C16.2571 12.3618 16.2571 11.5755 16.5131 11.0818C16.6045 10.9172 16.7508 10.6612 16.8971 10.4052C16.9154 10.3869 16.9337 10.3503 16.9337 10.332C16.952 10.3137 16.952 10.2954 16.9703 10.2772C17.0434 10.1674 17.0983 10.076 17.1531 9.98457C17.1531 9.96628 17.1714 9.96628 17.1714 9.948L17.1897 9.92971C17.208 9.91142 17.208 9.89314 17.2263 9.87485C17.2263 9.87485 17.2263 9.85656 17.2446 9.85656L17.2628 9.83828C17.2628 9.81999 17.2811 9.81999 17.2811 9.8017C17.336 9.72856 17.3908 9.65541 17.4274 9.58226C17.5006 9.49083 17.4091 9.38111 17.3177 9.41768C17.0617 9.5274 16.8971 9.65541 16.8605 9.6737C16.7325 9.78342 16.5314 9.76513 16.4217 9.61884C16.3119 9.49083 16.3302 9.28968 16.4765 9.17996C16.6411 9.05195 17.4823 8.44849 18.488 8.72279C19.2195 8.92395 19.5852 9.49083 19.7315 9.69198C19.8413 9.85656 20.207 10.3686 20.1887 11.1001C20.1887 11.6304 19.9693 12.0327 19.5487 12.7459Z" fill="white"/>
<path id="Vector_13" d="M13.002 8.99707C12.9472 9.12508 12.8923 9.27137 12.8192 9.43595C12.6729 9.81997 12.49 10.2588 12.3986 10.4234C12.2523 10.6977 12.1426 10.8806 12.0511 11.0086C11.9414 11.1732 11.8683 11.3012 11.7951 11.4841C11.6854 11.7949 11.6671 12.1424 11.7403 12.5264C11.5391 12.5081 11.2282 12.3801 11.1917 12.1972C11.1734 12.0692 11.2465 11.9412 11.466 11.5572C11.5025 11.4841 11.5574 11.3926 11.6122 11.3195C11.9963 10.6612 12.1608 10.1674 12.2706 9.80168C12.3986 9.41766 12.4534 9.25308 12.6546 9.10679C12.7826 9.05193 12.8923 9.01536 13.002 8.99707Z" fill="white"/>
<path id="Vector_14" d="M12.6179 22.8221C12.3984 23.2609 12.1424 23.6633 11.9778 23.8644C11.8316 23.4987 11.5938 22.6392 11.667 21.9626C11.667 21.9443 11.667 21.926 11.667 21.9077C11.6853 21.6883 11.7401 21.5054 11.8498 21.3408C11.923 21.2311 12.1059 21.1763 12.307 21.1763C12.4533 21.1763 12.6179 21.2128 12.7642 21.286C12.8373 21.3226 12.947 21.414 12.947 21.6517C12.9836 21.9809 12.819 22.4198 12.6179 22.8221Z" fill="white"/>
<path id="Vector_15" d="M24.3215 17.9391C24.3398 17.9574 24.3398 17.9757 24.3398 17.994C24.2849 18.122 24.1935 18.2134 24.102 18.3232C23.9923 18.4512 23.8643 18.5975 23.7546 18.8352C23.59 19.1643 23.5351 19.4569 23.5169 20.225C23.4803 21.121 23.5169 21.6147 23.5534 21.9805C23.5717 22.3279 23.59 22.5474 23.5351 22.8948C23.4071 23.5897 23.1146 24.0469 22.7305 24.632C22.2551 25.3635 21.7796 26.1133 20.975 26.351C20.9019 26.3693 20.9019 26.3693 20.6824 26.3693C20.4996 26.3693 20.1887 26.3693 19.6218 26.3876C18.5612 26.4241 18.0309 26.4424 17.592 26.5339C17.1165 26.6253 16.8788 26.735 16.6228 26.8264C16.4034 26.9179 16.2022 26.991 15.8182 27.0825C15.5805 27.1373 15.233 27.1739 14.0444 27.1922C12.8009 27.1922 12.0511 27.1922 11.0819 27.0825C9.72873 26.9362 9.05213 26.8447 8.59496 26.607C7.53433 26.0401 7.07717 25.0161 6.3457 23.3337C6.3457 23.3154 6.36399 23.2971 6.38228 23.2971C6.41885 23.3154 6.45542 23.3337 6.492 23.352C6.52857 23.3703 6.56514 23.3703 6.58343 23.3703C6.65658 23.3885 6.72972 23.3885 6.80287 23.3703C6.82116 23.3703 6.82116 23.3703 6.83944 23.352C6.85773 23.352 6.87602 23.352 6.87602 23.3703C6.93088 23.4983 7.00402 23.608 7.13203 23.6811C7.26003 23.7543 7.40633 23.7543 7.53433 23.7543C7.68063 23.7543 7.82692 23.736 7.97321 23.7177C8.04636 23.7177 8.11951 23.7543 8.15608 23.8091C8.28409 24.1383 8.44867 24.3577 8.70468 24.3943C8.72297 24.3943 8.74125 24.3943 8.75954 24.3943C8.8144 24.3943 8.90583 24.376 9.01555 24.3029C9.10699 24.2297 9.25328 24.2846 9.32642 24.376C9.38128 24.4675 9.45443 24.5223 9.52758 24.5772C9.78359 24.8332 10.4053 24.9612 10.9174 24.9612C11.1917 24.9612 11.4477 24.9246 11.594 24.8515C11.8134 24.7418 11.8134 24.5955 11.7951 24.5223C11.7768 24.4126 11.7585 24.2846 11.7403 24.1749C11.7403 24.1566 11.7585 24.1566 11.7585 24.1749C11.7951 24.248 11.8317 24.3212 11.9231 24.3395C11.9414 24.3395 11.9414 24.3395 11.9597 24.3395C12.106 24.3395 12.3254 24.3943 12.362 24.5223C12.3803 24.5955 12.4169 24.6503 12.4534 24.7235C12.5449 24.8515 12.7095 25.0161 13.0569 25.0343H13.0752C13.4775 25.0343 13.7884 24.9063 13.9895 24.6503C14.0078 24.632 14.0078 24.6138 14.0261 24.5955C14.0992 24.4857 14.3187 24.4857 14.4101 24.5772C14.5198 24.6686 14.6478 24.7235 14.7941 24.7235C14.8124 24.7235 14.849 24.7235 14.8673 24.7235C15.0501 24.7052 15.1964 24.6138 15.3244 24.4492C15.3976 24.3395 15.4524 24.2114 15.489 24.0652C15.5073 24.0286 15.5622 24.0103 15.5987 24.0469C15.6719 24.12 15.7999 24.1932 15.9828 24.1932C16.0193 24.1932 16.0742 24.1932 16.1291 24.1749C16.4765 24.1017 16.6594 23.8091 16.7325 23.4983C16.7325 23.48 16.7508 23.48 16.7508 23.4983C16.8422 23.608 17.0068 23.736 17.2811 23.736C17.2994 23.736 17.3177 23.736 17.3177 23.736C17.464 23.736 17.592 23.6628 17.6834 23.5531C17.7931 23.4068 17.8297 23.1874 17.848 22.9862C17.848 22.9314 17.8846 22.8765 17.9577 22.84C18.2503 22.7119 18.616 22.4376 18.7258 22.2548C18.7258 22.2548 18.7258 22.2365 18.744 22.2365C18.7623 22.1816 18.8172 22.1451 18.8538 22.1451C19.0915 22.1085 19.1829 22.0536 19.2744 22.0171C19.3475 21.9805 19.4024 21.9622 19.5852 21.9256C20.9202 21.7245 21.1762 21.6696 21.4688 21.4867C21.9076 21.1942 21.9259 20.7918 21.9442 20.4078C21.9625 20.0787 21.9808 19.7129 22.2368 19.2741C22.3282 19.1095 22.4379 18.9266 22.5477 18.7072C22.7488 18.3414 23.0231 17.8294 23.2243 17.5551C23.2608 17.5003 23.334 17.482 23.3888 17.5185C23.846 17.6831 24.2483 17.866 24.3215 17.9391Z" fill="white"/>
<path id="Vector_16" d="M11.3379 21.926C11.2831 22.3832 11.2465 23.0049 11.3197 23.8095C11.3379 24.029 11.3745 24.2667 11.4111 24.5044C11.3562 24.541 11.1551 24.5959 10.8259 24.5776C10.3505 24.5593 9.87501 24.4496 9.72872 24.285L9.71043 24.2667C9.60071 24.1753 9.50928 24.1021 9.50928 23.9375C9.50928 23.8827 9.52756 23.8278 9.58242 23.7364C9.619 23.6998 9.65557 23.6449 9.69214 23.5718C9.76529 23.4621 9.87501 23.3341 9.98473 23.1512C10.2956 22.6392 10.4053 22.4746 10.5516 22.2734C10.5699 22.2552 10.5699 22.2369 10.5882 22.2186C10.6796 22.1089 10.7711 21.9626 10.9356 21.7249C11.0454 21.5603 11.1368 21.414 11.2282 21.3043C11.3562 21.1214 11.4477 21.03 11.5025 20.9751C11.5025 21.0482 11.4842 21.158 11.4659 21.2677C11.3928 21.4871 11.3562 21.6883 11.3379 21.926Z" fill="white"/>
<path id="Vector_17" d="M11.0999 14.7207C11.0999 14.7389 11.0999 14.7389 11.0999 14.7207C11.0268 14.8121 10.9537 14.9218 10.8622 15.1047C10.6245 15.6167 10.6245 15.9093 10.6245 16.147C10.6245 16.275 10.6245 16.3665 10.5879 16.4762C10.5696 16.5493 10.5331 16.6408 10.4782 16.7322C10.3502 17.0431 10.1673 17.4454 10.2405 17.994C10.1308 17.9391 9.96617 17.8111 9.9296 17.7562C9.9296 17.7197 9.91131 17.7014 9.91131 17.6648C9.87474 17.5002 9.85645 17.3905 9.94789 17.1345C10.2405 16.4762 10.277 16.3116 10.2953 16.1287C10.2953 16.0922 10.3136 16.0556 10.3136 16.0007C10.3685 15.7447 10.4051 15.5253 10.4233 15.3424C10.4599 15.0681 10.4965 14.8852 10.5879 14.7572C10.6245 14.7024 10.7159 14.6841 10.8439 14.6841C10.8988 14.6841 10.9537 14.6841 11.0268 14.7024H11.0451C11.0999 14.7207 11.0999 14.7207 11.0999 14.7207Z" fill="white"/>
<path id="Vector_18" d="M10.7344 21.2493C10.7161 21.0847 10.6978 20.9384 10.6247 20.7738C10.6247 20.7738 10.6064 20.7372 10.6064 20.719C10.5881 20.7007 10.5881 20.6824 10.5698 20.6641L10.5515 20.6458C10.5332 20.6275 10.5332 20.6275 10.515 20.6275L10.4967 20.6092C10.4784 20.6092 10.4784 20.5909 10.4601 20.5909H10.4418C10.3504 20.5544 10.2589 20.5178 10.1492 20.4995C10.1309 20.4995 10.1127 20.4995 10.1127 20.4995C10.0944 20.4995 10.0944 20.4995 10.0761 20.4995H10.0578C10.0395 20.4995 10.0212 20.5178 9.98464 20.5178C9.96636 20.5178 9.96636 20.5361 9.94807 20.5361L9.92978 20.5544C9.9115 20.5727 9.9115 20.5727 9.89321 20.5909L9.87492 20.6092V20.6275C9.83835 20.6824 9.80178 20.7372 9.76521 20.7921C9.67377 20.9201 9.58234 21.0664 9.49091 21.1944C9.39947 21.3224 9.32633 21.4321 9.23489 21.5601C9.18003 21.6333 9.14346 21.6881 9.0886 21.7613C9.0886 21.7796 9.07031 21.7796 9.07031 21.7979C9.12517 21.8161 9.18003 21.8162 9.23489 21.8344C9.3629 21.8527 9.49091 21.871 9.60063 21.8893C9.85664 21.9259 10.1309 21.9442 10.387 21.9259C10.4052 21.9259 10.4052 21.9259 10.4235 21.9259C10.4784 21.8344 10.5698 21.7247 10.6613 21.5784C10.7161 21.5053 10.771 21.4321 10.8075 21.359C10.7527 21.3407 10.7344 21.2858 10.7344 21.2493Z" fill="white"/>
<path id="Vector_19" d="M9.80203 22.3281C9.78374 22.5292 9.5643 23.0412 9.21686 23.535C8.92427 23.9373 8.7414 24.047 8.70483 24.047C8.55854 24.0287 8.43053 23.6813 8.32081 23.3338C8.28424 23.1875 8.22938 23.0595 8.21109 22.9315C8.13794 22.6755 8.11966 22.3098 8.13794 22.0903C8.43053 22.2549 8.94256 22.2915 9.67402 22.2915C9.71059 22.3098 9.76545 22.3098 9.80203 22.3281Z" fill="white"/>
<path id="Vector_20" d="M9.28969 20.6824C9.16168 20.8835 9.03367 21.0664 8.90567 21.2492C8.83252 21.3407 8.77766 21.4321 8.70451 21.5235C8.66794 21.5784 8.61308 21.6333 8.57651 21.6881C8.46679 21.6698 8.37535 21.6333 8.26564 21.615C8.1742 21.5967 8.10106 21.5601 8.00962 21.5235C7.99134 21.5235 7.97305 21.5053 7.95476 21.5053C7.93648 21.487 7.91819 21.4504 7.8999 21.4321C7.93648 21.3773 7.95476 21.3041 7.99134 21.2492C8.0462 21.1395 8.10106 21.0298 8.1742 20.9201C8.28392 20.7372 8.41193 20.5361 8.61308 20.4081C8.63137 20.4081 8.63137 20.3898 8.64965 20.3898C8.7228 20.3532 8.79595 20.3166 8.88738 20.2983C8.90567 20.2983 8.96053 20.2983 8.9971 20.2983H9.01539C9.01539 20.2983 9.01539 20.2983 9.03367 20.2983C9.05196 20.2983 9.07025 20.3166 9.10682 20.3166C9.10682 20.3166 9.12511 20.3166 9.12511 20.3349C9.14339 20.3532 9.16168 20.3532 9.17997 20.3715C9.14339 20.3532 9.21654 20.4263 9.21654 20.4081C9.25311 20.5178 9.2714 20.5726 9.28969 20.6824Z" fill="white"/>
<path id="Vector_21" d="M8.30253 20.1518C8.0648 20.3347 7.90022 20.5907 7.77221 20.865C7.69907 21.0113 7.62592 21.1576 7.55277 21.3039C7.55277 21.3222 7.53449 21.3405 7.53449 21.3405C7.46134 21.3222 7.38819 21.3039 7.33333 21.2856C7.26019 21.2673 7.18704 21.2307 7.11389 21.2125C7.07732 21.1942 7.05903 21.1759 7.02246 21.1576C7.09561 21.0296 7.16875 20.9016 7.26019 20.7736C7.36991 20.609 7.49791 20.4261 7.62592 20.2798C7.68078 20.225 7.73564 20.1518 7.7905 20.1153C7.86365 20.0787 7.93679 20.0787 8.02823 20.097C8.11966 20.097 8.21109 20.097 8.28424 20.1335C8.26595 20.1335 8.28424 20.1518 8.30253 20.1518Z" fill="white"/>
<path id="Vector_22" d="M7.93655 23.2606C7.91826 23.2788 7.91826 23.2788 7.89997 23.2971H7.88169C7.82683 23.2971 7.77197 23.3154 7.71711 23.3154C7.60739 23.3154 7.49767 23.3337 7.38795 23.3154C7.33309 23.3154 7.27823 23.2971 7.24165 23.2606C7.20508 23.2057 7.18679 23.096 7.16851 23.0228C7.09536 22.6205 7.09536 22.2182 7.13193 21.8159C7.33309 21.8891 7.55253 21.9439 7.77197 21.9805C7.71711 22.3462 7.80854 22.8765 7.84511 23.0228C7.89997 23.096 7.91826 23.1874 7.93655 23.2606Z" fill="white"/>
<path id="Vector_23" d="M7.27808 20.024C7.09522 20.2434 6.93064 20.4812 6.78434 20.7372C6.72948 20.8286 6.65634 20.9383 6.60148 21.0481C6.52833 21.0298 6.45518 20.9932 6.40032 20.9566C6.34546 20.92 6.2906 20.8835 6.25403 20.8469C6.23574 20.8286 6.19917 20.8103 6.18088 20.792C6.18088 20.792 6.1626 20.792 6.1626 20.7738C6.18088 20.7189 6.21746 20.6823 6.21746 20.6457C6.25403 20.5543 6.2906 20.4812 6.34546 20.408C6.4369 20.2617 6.52833 20.1154 6.63805 19.9691C6.67462 19.9143 6.7112 19.8594 6.78434 19.8411C6.8392 19.8228 6.91235 19.8411 6.96721 19.8411C7.07693 19.8594 7.18665 19.9326 7.27808 20.024Z" fill="white"/>
<path id="Vector_24" d="M5.87018 20.9932C5.88846 20.9749 5.87018 20.9749 5.87018 20.9932C5.94332 21.0664 5.99818 21.1212 6.07133 21.1761C6.1079 21.1944 6.12619 21.2309 6.16276 21.2492C6.16276 21.2492 6.16276 21.2492 6.16276 21.2675C6.08962 21.5784 6.03476 21.9075 6.03476 22.2367C6.03476 22.255 6.01647 22.255 6.01647 22.2367C5.92504 21.8527 5.81532 21.2309 5.87018 20.9932Z" fill="white"/>
<path id="Vector_25" d="M6.76617 21.6697C6.7296 21.944 6.71131 22.2183 6.7296 22.4926C6.7296 22.6389 6.74788 22.7852 6.76617 22.9498C6.7296 22.9498 6.69302 22.9498 6.65645 22.9498H6.63816H6.61988C6.5833 22.9315 6.5833 22.9315 6.54673 22.9132C6.51016 22.8949 6.47358 22.8401 6.43701 22.7852C6.36386 22.6572 6.34558 22.5109 6.34558 22.3646C6.32729 22.0903 6.36386 21.7977 6.41872 21.5234C6.4553 21.5417 6.51016 21.56 6.56502 21.5783C6.63816 21.6149 6.69302 21.6514 6.76617 21.6697Z" fill="white"/>
</g>
<g id="Group">
<g id="Clip path group">
<mask id="mask0_646_7330" style="mask-type:luminance" maskUnits="userSpaceOnUse" x="0" y="0" width="34" height="34">
<g id="SVGID_00000112632825680152813190000016325904004000894366_">
<path id="Vector_26" d="M33.94 16.97C33.94 7.58895 26.3328 0 16.97 0C7.58895 0 0 7.58895 0 16.97C0 26.3328 7.58895 33.94 16.97 33.94C26.3328 33.94 33.94 26.3328 33.94 16.97Z" fill="white"/>
</g>
</mask>
<g mask="url(#mask0_646_7330)">
<g id="Layer_2_00000107572151008996527030000016290061794924690866_">
<g id="Group_2" opacity="0.8">
<path id="Vector_27" opacity="0.8" d="M13.9711 35.9334C12.7276 35.9334 11.5573 35.8603 10.5698 35.7872L10.2955 35.7689L10.0212 35.7323C9.89322 35.714 9.74692 35.6957 9.58234 35.6774C8.63144 35.5677 6.85763 35.3848 4.90096 34.4705L4.59009 34.3242L4.31579 34.1596C0.548745 32.0384 -0.841039 28.8748 -1.60908 27.1741C-1.66394 27.0644 -1.7188 26.9364 -1.77366 26.8084C-2.15768 26.0221 -2.3954 25.3272 -2.59656 24.6689L-2.63313 24.5226L-2.6697 24.3763C-3.2183 22.4379 -3.34631 20.7738 -3.10858 19.1097C-2.85257 17.4457 -2.24911 15.9462 -1.1702 14.3552L-0.6216 13.4592C-0.51188 13.2763 -0.438733 13.0752 -0.383873 12.874C0.0367193 10.7893 0.987625 9.3081 1.46308 8.59492C1.59108 7.73545 1.81052 6.89427 2.10311 6.07137L2.13968 5.94336L2.19454 5.81536C2.19454 5.79707 2.21283 5.7605 2.23112 5.70564C2.45056 5.0656 2.94429 3.58439 4.20607 2.01174L4.68153 1.46314L5.17526 1.02426C6.41876 -0.109515 7.91826 -0.9507 9.52748 -1.42615C10.4235 -1.70045 11.3561 -1.86503 12.3071 -1.91989H12.3985H12.5265C12.6911 -1.91989 12.8557 -1.93818 13.0019 -1.93818C13.5871 -1.93818 14.1723 -1.88332 14.7575 -1.79189C15.1232 -1.73703 15.4889 -1.7736 15.8364 -1.91989C16.8421 -2.34048 17.8845 -2.61478 18.9634 -2.76108C19.0548 -2.77936 19.128 -2.77936 19.2011 -2.79765C19.3657 -2.81594 19.64 -2.85251 19.9692 -2.88908C20.536 -2.94394 21.4138 -3.01709 22.3464 -3.01709C24.1934 -3.01709 25.7843 -2.77936 27.2107 -2.28562L27.3387 -2.24905L27.4484 -2.21248C30.5937 -1.02385 32.1846 0.640237 33.3367 2.08488L33.3915 2.15803L33.5561 2.30432C34.5985 3.10893 35.4762 4.1147 36.1711 5.23018L36.3906 5.57763L36.5734 5.94336C38.1095 9.07038 37.6158 11.978 37.4329 13.0569L37.4146 13.1117C37.2866 13.9163 37.0672 14.7027 36.7929 15.4707C36.6831 16.2022 36.5186 16.9336 36.2808 17.6285C35.8785 18.872 35.2751 20.0606 34.507 21.1213C34.0681 21.743 33.5561 22.3465 33.0075 22.8768C32.8064 23.0597 32.6784 23.3157 32.6418 23.59C32.6235 23.7545 32.5869 23.9191 32.5686 24.0837C32.1115 26.4975 31.0691 28.1799 30.6303 28.8565L29.3319 30.7218C27.7593 32.6784 25.894 33.9585 23.6448 34.6534L23.0962 34.818L22.511 34.9277C21.8344 35.0557 21.1578 35.1105 20.4629 35.1105C20.3715 35.1105 20.28 35.1105 20.1703 35.1105H20.1337H20.024H19.896C19.64 35.1105 19.384 35.1654 19.128 35.2386C17.6285 35.714 15.9827 35.9334 13.9711 35.9334Z" stroke="url(#paint1_linear_646_7330)" stroke-width="1.0554" stroke-miterlimit="10"/>
<path id="Vector_28" opacity="0.8" d="M13.9713 34.6349C12.7826 34.6349 11.6306 34.5618 10.6797 34.4887L10.4602 34.4704L10.2408 34.4338C10.0945 34.4155 9.92992 34.3972 9.76534 34.3789C8.83272 34.2875 7.29665 34.1046 5.5777 33.3L5.32169 33.172L5.08396 33.044C1.73751 31.1971 0.512304 28.4358 -0.219161 26.79C-0.274021 26.6803 -0.328881 26.534 -0.402027 26.406C-0.749474 25.7111 -0.968913 25.0527 -1.15178 24.4676L-1.18835 24.3396L-1.22493 24.2298C-1.70038 22.4926 -1.82839 21.0297 -1.60895 19.585C-1.38951 18.1587 -0.840907 16.8238 0.109998 15.434L0.823177 14.2819C0.951184 14.0808 1.04262 13.843 1.07919 13.6053C1.42664 11.6304 2.35925 10.2406 2.77985 9.60054L2.83471 9.5274L2.85299 9.49082C2.85299 9.47254 2.87128 9.45425 2.87128 9.43596C2.88957 9.34453 2.92614 9.27138 2.94443 9.19824C3.05415 8.39362 3.2553 7.58901 3.5296 6.82097L3.56617 6.71125L3.60275 6.60153C3.62103 6.56496 3.62103 6.52839 3.65761 6.41867C3.85876 5.81521 4.27935 4.55343 5.37655 3.20022L5.77886 2.72477L6.18116 2.35903C7.26007 1.37156 8.55842 0.640091 9.94821 0.237785C10.7528 5.90376e-05 11.5574 -0.146234 12.3986 -0.182807H12.4718H12.5815C12.7278 -0.182807 12.8558 -0.201094 12.9838 -0.201094C13.5872 -0.201094 14.1724 -0.365674 14.7576 -0.255954C15.2148 -0.164521 15.6719 -0.219381 16.0925 -0.402247C16.8788 -0.749693 17.9395 -0.877699 19.1464 -1.04228C19.2378 -1.06057 19.311 -1.06057 19.3658 -1.07885C19.5304 -1.09714 19.7864 -1.13371 20.079 -1.152C20.6093 -1.20686 21.4322 -1.26172 22.3283 -1.26172C24.0106 -1.26172 25.437 -1.04228 26.6988 -0.621687L26.8085 -0.585113L26.8999 -0.54854C29.6795 0.512085 31.051 1.90187 32.1299 3.27337C32.1848 3.34651 32.2579 3.41966 32.2762 3.45623L32.2945 3.47452L32.4956 3.65739L32.5139 3.69396C33.4465 4.40714 34.2329 5.2849 34.8363 6.27238L35.0192 6.56496L35.1655 6.87583C36.4821 9.56397 36.0798 12.0327 35.8969 13.075L35.8787 13.1299C35.7507 13.8979 35.5495 14.6294 35.2752 15.3608C35.1838 16.0557 35.0192 16.7506 34.7997 17.4089C34.434 18.5061 33.9037 19.5485 33.2271 20.4994C32.7699 21.1577 32.2213 21.7612 31.6362 22.2915C31.3619 22.5475 31.179 22.8766 31.1424 23.2607C31.1058 23.535 31.0693 23.791 31.0327 24.0653C30.6304 26.2048 29.7161 27.6677 29.2772 28.3261L28.2166 29.8621C26.8085 31.6725 25.1444 32.8429 23.1329 33.4646L22.6757 33.6109L22.182 33.7023C21.5968 33.812 20.9933 33.8669 20.4082 33.8486C20.3167 33.8486 20.2253 33.8486 20.1339 33.8486H20.1156H20.0607C20.0607 33.8486 20.0424 33.8486 20.0059 33.8486H19.8961H19.7864H19.5853C19.311 33.8669 19.0367 33.9035 18.7624 33.9949C17.4274 34.4338 15.8731 34.6349 13.9713 34.6349Z" stroke="url(#paint2_linear_646_7330)" stroke-width="1.0554" stroke-miterlimit="10"/>
<path id="Vector_29" opacity="0.8" d="M13.9713 33.1174C12.8376 33.1174 11.7221 33.0443 10.7894 32.9711L10.6066 32.9529L10.4237 32.9346C10.2591 32.9163 10.0763 32.898 9.8934 32.8797C9.01564 32.7883 7.68072 32.642 6.18121 31.9288L5.98006 31.8374L5.7972 31.7277C2.92619 30.1184 1.86557 27.7412 1.17068 26.1685C1.11582 26.0405 1.04267 25.8759 0.987811 25.7479C0.676938 25.1262 0.475785 24.541 0.311205 23.9924L0.274632 23.901L0.256345 23.8095C-0.164248 22.31 -0.273967 21.03 -0.091101 19.823C0.0917654 18.5978 0.585505 17.4458 1.42669 16.2206L1.53641 16.0743L1.64613 15.928C1.71928 15.8366 1.77414 15.7451 1.84728 15.672L2.26788 14.8857C2.41417 14.6296 2.5056 14.3553 2.54217 14.0628C2.81647 12.3072 3.65766 11.0455 4.04168 10.4603C4.05997 10.4237 4.09654 10.3871 4.11483 10.3689L4.20626 10.2409C4.24283 10.1677 4.27941 10.0763 4.31598 9.96655C4.35255 9.85683 4.40741 9.69225 4.44398 9.54596C4.53542 8.79621 4.71828 8.06474 4.9743 7.35156L5.01087 7.26013L5.04744 7.1687C5.06573 7.09555 5.1023 7.04069 5.13888 6.91268C5.32174 6.3458 5.66919 5.30346 6.60181 4.16969L6.91268 3.78567L7.24184 3.49308C8.15617 2.6519 9.25337 2.04844 10.442 1.68271C11.1369 1.48155 11.8318 1.35355 12.5633 1.31697H12.6181H12.7095C12.8193 1.31697 12.929 1.31697 13.057 1.31697C13.6787 1.31697 14.2822 1.39012 14.8857 1.5547C15.3977 1.68271 15.9463 1.62785 16.4217 1.39012C17.1898 1.02439 18.2138 0.62208 19.4025 0.475787C19.4756 0.457501 19.5487 0.457501 19.6036 0.439214C19.7499 0.420927 19.9876 0.384354 20.2802 0.366067C20.774 0.311208 21.5603 0.256348 22.3832 0.256348C23.8827 0.256348 25.1445 0.439214 26.2599 0.823233L26.3331 0.859807L26.4062 0.89638C28.9664 1.86557 30.1001 3.12735 30.9779 4.24283C31.179 4.48056 31.1973 4.51713 31.3253 4.64514L31.4899 4.79143L31.5448 4.86458C31.9654 5.19374 32.8248 5.87034 33.5746 7.09555L33.7209 7.33328L33.8489 7.571C34.9644 9.82026 34.6169 11.8684 34.4524 12.8558L34.4341 12.9107C34.3243 13.6239 34.1232 14.3371 33.8306 15.0137V15.0685C33.7575 15.7086 33.6112 16.3486 33.41 16.952C33.0991 17.9212 32.642 18.8173 32.0385 19.6402C31.5448 20.3534 30.9413 20.9934 30.2647 21.542C30.1001 21.67 29.9721 21.8346 29.8807 22.0174C29.7893 22.2003 29.7344 22.4015 29.7161 22.6026C29.6978 23.0049 29.643 23.4072 29.5698 23.8095C29.2224 25.6565 28.4178 26.9366 28.0155 27.5766L27.1926 28.7835C25.9674 30.4293 24.5044 31.4899 22.7306 32.0385L22.3649 32.1482L21.9626 32.2214C21.4688 32.3128 20.9568 32.3494 20.4448 32.3494C20.3716 32.3494 20.2802 32.3494 20.1888 32.3494H20.1705H20.0791C20.0608 32.3494 20.0242 32.3494 19.9328 32.3494H19.8413H19.7682L19.3476 32.3677C19.055 32.386 18.7624 32.4225 18.4881 32.5323C17.2263 32.9346 15.7817 33.1174 13.9713 33.1174Z" stroke="url(#paint3_linear_646_7330)" stroke-width="0.9894" stroke-miterlimit="10"/>
<path id="Vector_30" opacity="0.8" d="M13.9711 31.5997C12.8922 31.5997 11.8133 31.5266 10.9173 31.4535L10.7893 31.4352L10.6612 31.4169C10.4784 31.3986 10.2772 31.362 10.0944 31.3437C9.27146 31.2523 8.13769 31.1243 6.85762 30.5391L6.71133 30.466L6.56504 30.3928C4.13292 29.0213 3.23687 27.0098 2.57855 25.5469C2.5054 25.4006 2.43226 25.236 2.3774 25.0897C2.1031 24.5228 1.92023 23.9925 1.77394 23.5353L1.75565 23.4622L1.70079 23.4073C0.987613 20.8838 1.26191 19.11 2.6517 17.0802L2.72484 16.9704L2.79799 16.8607C2.88942 16.751 2.98086 16.623 3.07229 16.5133C3.2003 16.3487 3.3283 16.1658 3.4746 16.0012C3.56603 15.8915 3.63918 15.7635 3.69404 15.6355L3.85862 15.2332C3.93176 15.0503 3.96833 14.8675 3.98662 14.6846C4.13291 13.0571 4.91924 11.8868 5.30326 11.3016C5.33983 11.265 5.37641 11.1919 5.39469 11.1736L5.48613 11.0273L5.5227 10.9907C5.57756 10.8993 5.66899 10.6798 5.74214 10.4604C5.77871 10.3141 5.85186 10.0764 5.92501 9.87522V9.85694C5.99815 9.18033 6.16273 8.50372 6.40046 7.86369L6.41874 7.80883L6.43703 7.75397C6.4736 7.64425 6.51018 7.55282 6.54675 7.42481C6.71133 6.93107 6.98563 6.08989 7.73538 5.15727L7.97311 4.86468L8.21084 4.64524C9.98464 3.03602 11.9596 2.90801 12.6179 2.85315H12.6545H12.7276C12.8191 2.85315 12.9105 2.85315 13.0019 2.85315C13.7883 2.85315 14.5563 3.01773 15.2878 3.32861C15.4158 3.38347 15.5621 3.40175 15.6901 3.40175C15.8364 3.40175 15.9644 3.36518 16.0924 3.29203C16.769 2.90801 17.9942 2.19483 19.5668 2.01197C19.64 1.99368 19.7131 1.99368 19.768 1.99368C19.9143 1.97539 20.1337 1.95711 20.3897 1.92053C20.8652 1.88396 21.5784 1.8291 22.3464 1.8291C23.6813 1.8291 24.7785 1.99368 25.7111 2.30455L25.766 2.32284L25.8209 2.34113C28.0153 3.16403 28.9479 4.20636 29.7342 5.19384C29.9354 5.46814 30.0451 5.57786 30.2645 5.7973L30.3925 5.90702L30.484 6.01674L30.5571 6.0716C30.9228 6.36419 31.6177 6.8945 32.2395 7.90027L32.3492 8.08313L32.4406 8.266C33.3367 10.0947 33.0441 11.7405 32.8978 12.6182V12.6731C32.7881 13.3131 32.6052 13.9531 32.3492 14.5566L32.3309 14.6115C32.3309 14.6297 32.3309 14.6297 32.3126 14.6663C32.2943 14.7212 32.2943 14.776 32.2943 14.8309L32.276 14.904C32.2212 15.4526 32.0932 15.983 31.9103 16.495C31.636 17.3179 31.252 18.0859 30.74 18.7808C30.2462 19.494 29.6793 20.0792 29.0576 20.5363C28.7833 20.7375 28.5639 20.9935 28.3993 21.3044C28.2347 21.6152 28.1616 21.9444 28.1616 22.2918C28.1616 22.7124 28.1067 23.1513 28.0335 23.5719C27.741 25.1446 27.0826 26.2052 26.6621 26.8452L26.0586 27.7413C24.998 29.2225 23.7362 30.1734 22.2184 30.6488L22.1453 30.6671C22.0172 30.7037 21.8892 30.7403 21.7612 30.7586L21.6698 30.7768C21.2492 30.85 20.8286 30.8866 20.408 30.8866C20.3349 30.8866 20.2617 30.8866 20.1886 30.8866H20.1703C20.1337 30.8866 20.0971 30.8866 20.0606 30.8866C20.024 30.8866 19.9509 30.8866 19.8046 30.8866H19.7497H19.6948C19.4937 30.8866 19.2377 30.9049 19.0182 30.9049C18.7074 30.9231 18.4148 30.978 18.1222 31.0877C17.025 31.4169 15.6901 31.5997 13.9711 31.5997Z" stroke="url(#paint4_linear_646_7330)" stroke-width="0.9235" stroke-miterlimit="10"/>
<path id="Vector_31" opacity="0.8" d="M13.9711 30.082C12.9287 30.082 11.9047 30.0088 11.0269 29.9357H10.9355L10.8441 29.9174C10.6429 29.8808 10.4235 29.8625 10.2223 29.8442C9.45428 29.7528 8.50337 29.6614 7.47932 29.1676L7.3696 29.1128L7.27817 29.0579C5.28493 27.9424 4.53517 26.2601 3.95 24.9068C3.87685 24.7423 3.80371 24.5777 3.73056 24.3948C3.49284 23.9194 3.32826 23.4439 3.20025 23.0416L3.18196 22.9867L3.16368 22.9319C2.5785 20.8472 2.77966 19.5306 3.91343 17.8848L3.96829 17.8116L4.02315 17.7385C4.11458 17.6105 4.20601 17.5008 4.29745 17.3728C4.59003 16.9887 4.88262 16.6047 5.30321 16.1475C5.39465 16.0561 5.44951 15.9098 5.46779 15.7818L5.48608 15.3612L5.46779 15.1966V15.0321C5.50437 13.6788 6.18097 12.6731 6.5467 12.1245C6.58328 12.0696 6.63814 11.9965 6.65642 11.9599L6.71128 11.8685L6.76614 11.7953C6.83929 11.6856 7.00387 11.3016 7.15016 10.9541C7.20502 10.8078 7.27817 10.5153 7.3696 10.2775C7.38789 10.2044 7.38789 10.1861 7.40618 10.0215C7.46104 9.45464 7.60733 8.88775 7.79019 8.35744L7.80848 8.32086L7.82677 8.28429C7.88163 8.138 7.9182 8.02828 7.97306 7.88199C8.11935 7.44311 8.33879 6.80307 8.90568 6.0899L9.07026 5.88874L9.23484 5.74245C10.4783 4.62696 11.8133 4.40752 12.7276 4.35266H12.7642H12.8007C12.8739 4.35266 12.9287 4.35266 13.0019 4.35266C13.7699 4.35266 14.7025 4.7184 15.1963 4.95612C15.306 5.01098 15.434 5.04756 15.562 5.04756C15.69 5.04756 15.818 5.02927 15.946 4.9927C16.2569 4.88298 16.5495 4.75497 16.8238 4.60868C17.4455 4.24295 18.4696 3.65777 19.7497 3.51148C19.8228 3.49319 19.8777 3.49319 19.9325 3.49319C20.0605 3.47491 20.2617 3.45662 20.5177 3.42005C20.9566 3.38347 21.6149 3.32861 22.3281 3.32861C23.4801 3.32861 24.431 3.45662 25.1991 3.73092L25.2356 3.74921L25.2722 3.76749C27.1009 4.46238 27.8323 5.24871 28.5272 6.14475C28.7467 6.43734 28.9113 6.63849 29.2404 6.93108L29.3136 7.00423L29.3867 7.07737C29.4599 7.15052 29.533 7.20538 29.6062 7.26024C29.917 7.49797 30.4473 7.91856 30.9045 8.6866L30.9776 8.79632L31.0325 8.92432C31.7091 10.2958 31.4897 11.5942 31.3617 12.3622V12.4171C31.2702 12.9474 31.1239 13.4594 30.9045 13.9531C30.8496 14.0812 30.8131 14.2092 30.7765 14.3555C30.7582 14.4469 30.7399 14.5383 30.7399 14.6115L30.7216 14.6846C30.6668 15.1235 30.5753 15.5624 30.4291 15.983C30.2096 16.6596 29.8805 17.2996 29.4781 17.8665C28.8564 18.7442 28.1432 19.366 27.2837 19.7683C27.0826 19.8597 26.8997 20.006 26.7717 20.2072C26.6437 20.39 26.5706 20.6278 26.5523 20.8472C26.5523 20.9386 26.5523 21.0118 26.5523 21.0667C26.5889 21.725 26.6437 22.4747 26.4974 23.261C26.2597 24.5411 25.7111 25.4006 25.3088 26.0406C25.3088 26.0406 23.4436 28.6373 21.7429 29.1676L21.56 29.2225L21.3589 29.2591C21.0297 29.3139 20.7006 29.3505 20.3531 29.3505C20.2983 29.3505 20.2251 29.3505 20.152 29.3505C20.1154 29.3505 20.0605 29.3505 20.0057 29.3505C19.9325 29.3505 19.8228 29.3505 19.6582 29.3688H19.6216H19.5851C18.9268 29.3871 18.3233 29.4054 18.1404 29.4419C18.049 29.4602 17.9576 29.4785 17.8661 29.5151C16.9701 29.8991 15.7083 30.082 13.9711 30.082Z" stroke="url(#paint5_linear_646_7330)" stroke-width="0.8575" stroke-miterlimit="10"/>
<path id="Vector_32" opacity="0.8" d="M13.9711 28.582C12.9836 28.582 11.9962 28.5089 11.155 28.454H11.1184H11.0818C10.8441 28.4174 10.6247 28.3992 10.4235 28.3809C9.71033 28.3077 8.96058 28.2163 8.15596 27.8506L8.1011 27.8323L8.04624 27.814C6.49188 26.9362 5.90671 25.6379 5.35811 24.3761C5.28496 24.1932 5.19353 24.0104 5.1021 23.8275C4.91923 23.4618 4.77294 23.0595 4.66322 22.6754V22.6572V22.6389C4.18776 20.9748 4.31577 20.1336 5.19353 18.8535L5.21182 18.817L5.2301 18.7804C5.33982 18.6524 5.43126 18.5244 5.52269 18.4147C5.94328 17.8661 6.30901 17.3906 7.13191 16.6226C7.18677 16.5677 7.24163 16.4946 7.25992 16.4031C7.27821 16.33 7.2782 16.2385 7.24163 16.1654L7.09534 15.7448C7.05877 15.6168 7.04048 15.4705 7.04048 15.3425V15.2328V15.1413C7.07705 14.227 7.5525 13.5138 7.86338 13.0384C7.91824 12.9652 7.95481 12.8921 7.99138 12.8372L8.02796 12.7824L8.06453 12.7275C8.22911 12.5081 8.50341 11.868 8.6497 11.484C8.68628 11.356 8.77771 11.0451 8.86914 10.8074C8.924 10.6245 8.96058 10.4417 8.97886 10.2588C9.03372 9.80165 9.12516 9.34448 9.28974 8.92389V8.9056V8.88732C9.36288 8.70445 9.41774 8.55816 9.45432 8.41187C9.58232 8.02785 9.72861 7.58897 10.1309 7.09523L10.2041 7.00379L10.2772 6.93065C11.155 6.12604 12.1242 5.97974 12.8556 5.92488H12.8739H12.8922C12.9288 5.92488 12.9836 5.92488 13.0202 5.92488C13.7517 5.92488 14.3003 6.21747 14.666 6.41862L14.7574 6.45519H14.7757C14.8854 6.51005 14.9586 6.56491 15.05 6.60149C15.2695 6.71121 15.5438 6.74778 15.7815 6.67463C16.2935 6.54663 17.0798 6.23576 17.5919 5.94317H17.6102C18.1588 5.61401 18.9999 5.13856 19.9874 5.02884C20.0423 5.01055 20.1154 5.01055 20.1703 5.01055C20.28 4.99226 20.4812 4.97398 20.7006 4.95569C21.1029 4.91912 21.7246 4.86426 22.3647 4.86426C23.3522 4.86426 24.1385 4.97398 24.7419 5.17513H24.7602H24.7785C26.2414 5.72373 26.79 6.3089 27.3752 7.07694C27.6129 7.38781 27.8507 7.6804 28.2896 8.06442L28.3261 8.10099L28.3627 8.13757C28.4724 8.24729 28.6004 8.35701 28.7467 8.46672C29.0027 8.66788 29.3685 8.94218 29.6793 9.47249L29.7159 9.52735L29.7525 9.58221C30.2096 10.5331 30.0634 11.4292 29.9536 12.1058V12.1606C29.8805 12.5812 29.7708 12.9835 29.5879 13.3858C29.4965 13.6053 29.4233 13.843 29.3867 14.0807C29.3685 14.227 29.3502 14.3367 29.3319 14.4282L29.3136 14.5013C29.277 14.8488 29.2039 15.1779 29.0942 15.5071C28.9296 16.0374 28.6736 16.5311 28.3444 16.9883C27.7958 17.7929 27.1741 18.2866 26.3512 18.5427C25.9489 18.6707 25.6197 18.9267 25.4003 19.2741L25.3271 19.3656L25.254 19.457C25.0528 19.6947 25.1077 20.6091 25.1442 21.1577C25.1808 21.7611 25.2174 22.3829 25.1077 22.968C24.9248 23.9738 24.4859 24.6504 24.1019 25.2356C24.1019 25.2356 22.6756 27.302 21.3772 27.686L21.2858 27.7226L21.1943 27.7408C20.9566 27.7774 20.7006 27.814 20.4446 27.814C20.3897 27.814 20.3349 27.814 20.2617 27.814C20.2069 27.814 20.152 27.814 20.0789 27.814C19.9874 27.814 19.8594 27.814 19.64 27.8323H19.6217H19.6034C18.7439 27.8688 18.2136 27.8871 17.921 27.942C17.7199 27.9786 17.537 28.0334 17.3541 28.1066C16.5678 28.4174 15.5072 28.582 13.9711 28.582Z" stroke="url(#paint6_linear_646_7330)" stroke-width="0.8575" stroke-miterlimit="10"/>
</g>
</g>
</g>
</g>
</g>
</g>
<defs>
<radialGradient id="paint0_radial_646_7330" cx="0" cy="0" r="1" gradientUnits="userSpaceOnUse" gradientTransform="translate(16.9707 18.7429) rotate(90) scale(19.063)">
<stop offset="0.1667" stop-color="#073183"/>
<stop offset="1" stop-color="#0054F9"/>
</radialGradient>
<linearGradient id="paint1_linear_646_7330" x1="-2.37642" y1="-3.81528" x2="36.506" y2="36.9941" gradientUnits="userSpaceOnUse">
<stop offset="0.2057" stop-color="#89D0FF"/>
<stop offset="0.3984" stop-color="#EBBF9A"/>
<stop offset="0.6015" stop-color="#EB8280"/>
<stop offset="0.8411" stop-color="#A281FF"/>
</linearGradient>
<linearGradient id="paint2_linear_646_7330" x1="-0.86852" y1="-2.05951" x2="34.9768" y2="35.7162" gradientUnits="userSpaceOnUse">
<stop offset="0.2057" stop-color="#89D0FF"/>
<stop offset="0.3984" stop-color="#EBBF9A"/>
<stop offset="0.6015" stop-color="#EB80DA"/>
<stop offset="0.8411" stop-color="#A281FF"/>
</linearGradient>
<linearGradient id="paint3_linear_646_7330" x1="0.654354" y1="-0.541024" x2="33.462" y2="34.2002" gradientUnits="userSpaceOnUse">
<stop offset="0.2057" stop-color="#89D0FF"/>
<stop offset="0.3984" stop-color="#EBBF9A"/>
<stop offset="0.6015" stop-color="#EB8280"/>
<stop offset="0.8411" stop-color="#A281FF"/>
</linearGradient>
<linearGradient id="paint4_linear_646_7330" x1="2.17489" y1="0.982559" x2="31.938" y2="32.6799" gradientUnits="userSpaceOnUse">
<stop offset="0.2057" stop-color="#89D0FF"/>
<stop offset="0.3984" stop-color="#EBBF9A"/>
<stop offset="0.6015" stop-color="#EB80E7"/>
<stop offset="0.8411" stop-color="#A281FF"/>
</linearGradient>
<linearGradient id="paint5_linear_646_7330" x1="3.68671" y1="2.50897" x2="30.4111" y2="31.1602" gradientUnits="userSpaceOnUse">
<stop offset="0.2057" stop-color="#89D0FF"/>
<stop offset="0.3984" stop-color="#EBBF9A"/>
<stop offset="0.6015" stop-color="#EB80D3"/>
<stop offset="0.8411" stop-color="#A281FF"/>
</linearGradient>
<linearGradient id="paint6_linear_646_7330" x1="5.21825" y1="4.01658" x2="28.9012" y2="29.6331" gradientUnits="userSpaceOnUse">
<stop offset="0.2057" stop-color="#89D0FF"/>
<stop offset="0.3984" stop-color="#EBBF9A"/>
<stop offset="0.6015" stop-color="#A280EB"/>
<stop offset="0.8411" stop-color="#A281FF"/>
</linearGradient>
<clipPath id="clip0_646_7330">
<rect width="33.94" height="33.94" fill="white"/>
</clipPath>
</defs>
</svg>
