<svg width="34" height="34" viewBox="0 0 34 34" fill="none" xmlns="http://www.w3.org/2000/svg">
<g id="comp" clip-path="url(#clip0_646_7568)">
<g id="Group">
<path id="Vector" d="M16.97 33.94C26.3423 33.94 33.94 26.3423 33.94 16.97C33.94 7.59773 26.3423 0 16.97 0C7.59773 0 0 7.59773 0 16.97C0 26.3423 7.59773 33.94 16.97 33.94Z" fill="#00D395"/>
<path id="Vector_2" fill-rule="evenodd" clip-rule="evenodd" d="M9.08944 22.8957C8.82581 22.7399 8.6071 22.5183 8.45467 22.2526C8.30224 21.987 8.22129 21.6864 8.21973 21.3801V17.9299C8.21973 17.5194 8.56125 17.1875 8.97913 17.1896C9.11277 17.1896 9.24429 17.2246 9.36096 17.2903L17.3188 21.8309C17.7844 22.096 18.0719 22.5839 18.0719 23.1111V26.6854C18.0712 26.8035 18.0471 26.9203 18.0011 27.0292C17.9551 27.138 17.888 27.2366 17.8038 27.3194C17.7195 27.4022 17.6197 27.4676 17.51 27.5116C17.4004 27.5557 17.2832 27.5777 17.165 27.5763C16.9971 27.5764 16.8323 27.5313 16.6878 27.4458L9.08944 22.8957V22.8957ZM20.9515 16.3453C21.4181 16.6105 21.7024 17.0994 21.7045 17.6255V24.8802C21.7045 25.0944 21.5878 25.2928 21.3959 25.3967L19.6543 26.3555C19.6319 26.368 19.6081 26.3776 19.5833 26.3841V22.3559C19.5833 21.8341 19.3043 21.3504 18.8451 21.0831L11.8577 16.9913V12.4444C11.8577 12.0339 12.1992 11.7019 12.6181 11.704C12.7516 11.7042 12.8828 11.7389 12.9989 11.8048L20.9536 16.3453H20.9515ZM24.4356 10.9871C24.9023 11.2522 25.1897 11.7401 25.1897 12.2693V22.865C25.1884 22.9727 25.158 23.078 25.1019 23.1698C25.0457 23.2616 24.9657 23.3366 24.8705 23.3868L23.2191 24.2597V16.882C23.2191 16.3612 22.9391 15.8787 22.4841 15.6103L15.3397 11.4177V7.10623C15.3397 6.97471 15.3768 6.84637 15.4415 6.73289C15.5455 6.5623 15.7119 6.4389 15.9053 6.38881C16.0987 6.33873 16.304 6.36589 16.4778 6.46455L24.4356 10.9881V10.9871Z" fill="white"/>
</g>
</g>
<defs>
<clipPath id="clip0_646_7568">
<rect width="33.94" height="33.94" fill="white"/>
</clipPath>
</defs>
</svg>
