<svg width="35" height="35" viewBox="0 0 35 35" fill="none" xmlns="http://www.w3.org/2000/svg">
<g id="usdc" clip-path="url(#clip0_615_21544)">
<path id="Vector" d="M17.9095 34.44C21.2659 34.44 24.5468 33.4447 27.3375 31.58C30.1282 29.7154 32.3033 27.065 33.5877 23.9641C34.8722 20.8633 35.2082 17.4512 34.5534 14.1593C33.8986 10.8675 32.2824 7.8437 29.9091 5.47041C27.5358 3.09711 24.512 1.48087 21.2202 0.826081C17.9283 0.17129 14.5162 0.507353 11.4154 1.79177C8.3145 3.07619 5.66415 5.25128 3.79947 8.04198C1.93478 10.8327 0.939505 14.1137 0.939505 17.47C0.93401 19.7001 1.3692 21.9093 2.22008 23.9706C3.07095 26.032 4.32075 27.905 5.89765 29.4819C7.47456 31.0588 9.3475 32.3086 11.4089 33.1594C13.4702 34.0103 15.6794 34.4455 17.9095 34.44V34.44Z" fill="#2775CA"/>
<path id="Vector_2" d="M22.576 20.1573C22.576 17.6889 21.0919 16.8327 18.1221 16.4794C15.9993 16.1971 15.5766 15.6309 15.5766 14.642C15.5766 13.6531 16.2832 13.0144 17.6963 13.0144C18.9706 13.0144 19.6772 13.4387 20.0305 14.5001C20.0684 14.6024 20.1368 14.6905 20.2265 14.7526C20.3162 14.8147 20.4228 14.8477 20.5318 14.8472H21.6627C21.7282 14.8489 21.7933 14.8373 21.8542 14.813C21.915 14.7887 21.9703 14.7523 22.0166 14.7059C22.0629 14.6596 22.0994 14.6043 22.1236 14.5435C22.1479 14.4826 22.1596 14.4175 22.1579 14.352V14.2826C22.0213 13.5162 21.6353 12.8164 21.0601 12.2919C20.4849 11.7675 19.7525 11.4477 18.9768 11.3822V9.68524C18.9768 9.40292 18.7639 9.19157 18.4106 9.12061H17.3492C17.0669 9.12061 16.8555 9.33196 16.7846 9.68524V11.3174C14.6571 11.6075 13.3134 13.0144 13.3134 14.7824C13.3134 17.1166 14.7281 18.036 17.6979 18.3893C19.6772 18.7426 20.3205 19.1607 20.3205 20.2977C20.3205 21.4347 19.3316 22.2076 17.9879 22.2076C16.149 22.2076 15.5195 21.4362 15.3005 20.3686C15.2803 20.2494 15.2189 20.141 15.127 20.0623C15.0351 19.9837 14.9185 19.9398 14.7975 19.9382H13.5896C13.5241 19.9367 13.4591 19.9485 13.3983 19.9729C13.3376 19.9973 13.2824 20.0337 13.2361 20.08C13.1898 20.1262 13.1534 20.1814 13.1291 20.2422C13.1047 20.3029 13.0929 20.368 13.0944 20.4334V20.5044C13.3782 22.2724 14.509 23.5451 16.8432 23.8984V25.5954C16.8432 25.8777 17.0545 26.0906 17.4078 26.1616H18.4692C18.7515 26.1616 18.9644 25.9487 19.0339 25.5954V23.8984C21.1551 23.5451 22.5698 22.0595 22.5698 20.1511L22.576 20.1573Z" fill="white"/>
<path id="Vector_3" d="M14.3028 27.581C12.2682 26.8348 10.5119 25.4819 9.27113 23.7052C8.03036 21.9285 7.36501 19.8137 7.36501 17.6466C7.36501 15.4796 8.03036 13.3648 9.27113 11.5881C10.5119 9.81139 12.2682 8.45848 14.3028 7.71225C14.4385 7.65353 14.5525 7.55387 14.6289 7.42719C14.7052 7.30051 14.7401 7.15314 14.7286 7.00568V6.01525C14.7381 5.88533 14.7002 5.75637 14.6219 5.65227C14.5436 5.54816 14.4302 5.47597 14.3028 5.44907C14.2032 5.43869 14.1032 5.46382 14.0204 5.52003C11.4463 6.33822 9.19923 7.95433 7.60458 10.1344C6.00992 12.3146 5.15039 14.9456 5.15039 17.6466C5.15039 20.3477 6.00992 22.9787 7.60458 25.1588C9.19923 27.339 11.4463 28.9551 14.0204 29.7732C14.0792 29.8074 14.1453 29.8271 14.2132 29.8309C14.2811 29.8346 14.3489 29.8221 14.411 29.7946C14.4732 29.767 14.5279 29.7252 14.5708 29.6724C14.6137 29.6196 14.6434 29.5574 14.6576 29.4909C14.7286 29.42 14.7286 29.349 14.7286 29.2071V28.2182C14.7286 28.0053 14.5157 27.723 14.3028 27.581ZM21.7989 5.52003C21.74 5.48588 21.6738 5.46619 21.6058 5.46257C21.5379 5.45895 21.47 5.47151 21.4078 5.49921C21.3456 5.52692 21.2909 5.56898 21.2481 5.62195C21.2053 5.67491 21.1757 5.73727 21.1617 5.80389C21.0923 5.87332 21.0923 5.94428 21.0923 6.08621V7.0751C21.1042 7.2177 21.1487 7.35568 21.2222 7.47843C21.2957 7.60118 21.3964 7.70544 21.5166 7.78321C23.5511 8.52945 25.3074 9.88235 26.5482 11.659C27.789 13.4357 28.4543 15.5505 28.4543 17.7176C28.4543 19.8847 27.789 21.9995 26.5482 23.7762C25.3074 25.5529 23.5511 26.9058 21.5166 27.652C21.3809 27.7108 21.2671 27.8105 21.191 27.9372C21.115 28.0639 21.0804 28.2112 21.0923 28.3586V29.349C21.0827 29.4787 21.1204 29.6075 21.1984 29.7116C21.2764 29.8156 21.3894 29.888 21.5166 29.9152C21.6161 29.9256 21.7161 29.9004 21.7989 29.8442C24.3721 29.0147 26.6158 27.3904 28.2075 25.205C29.7992 23.0196 30.6567 20.3857 30.6567 17.6821C30.6567 14.9785 29.7992 12.3446 28.2075 10.1592C26.6158 7.9738 24.3721 6.34954 21.7989 5.52003V5.52003Z" fill="white"/>
</g>
<defs>
<clipPath id="clip0_615_21544">
<rect width="33.94" height="33.94" fill="white" transform="translate(0.939453 0.5)"/>
</clipPath>
</defs>
</svg>
