<svg width="34" height="34" viewBox="0 0 34 34" fill="none" xmlns="http://www.w3.org/2000/svg">
<g id="tether 1" clip-path="url(#clip0_615_21506)">
<path id="Vector" d="M16.97 0C26.3419 0 33.94 7.59815 33.94 16.97C33.94 26.3419 26.3415 33.94 16.97 33.94C7.59849 33.94 0 26.3439 0 16.97C0 7.59611 7.59713 0 16.97 0Z" fill="#53AE94"/>
<path id="Vector_2" d="M19.0644 14.7088V12.1843H24.8373V8.33789H9.11763V12.1843H14.8912V14.7067C10.199 14.9223 6.6709 15.8515 6.6709 16.9648C6.6709 18.078 10.2007 19.0073 14.8912 19.2241V27.3103H19.0658V19.2235C23.7495 19.0073 27.2704 18.0787 27.2704 16.9665C27.2704 15.8542 23.7495 14.9256 19.0658 14.7094M19.0658 18.5386V18.5365C18.948 18.544 18.3429 18.5803 16.9954 18.5803C15.9182 18.5803 15.1603 18.5498 14.8932 18.5358V18.5392C10.7478 18.3556 7.65346 17.6337 7.65346 16.7699C7.65346 15.9062 10.7481 15.1853 14.8932 15.0013V17.82C15.1647 17.8387 15.9413 17.8845 17.0131 17.8845C18.3004 17.8845 18.9477 17.8309 19.0665 17.82V15.0013C23.2038 15.1856 26.2909 15.9082 26.2909 16.7689C26.2909 17.6296 23.2024 18.3526 19.0665 18.5369" fill="white"/>
</g>
<defs>
<clipPath id="clip0_615_21506">
<rect width="33.94" height="33.94" fill="white"/>
</clipPath>
</defs>
</svg>
