<svg width="32" height="33" viewBox="0 0 32 33" fill="none" xmlns="http://www.w3.org/2000/svg">
<g clip-path="url(#clip0_2261_1592)">
<circle cx="16" cy="16.5" r="16" fill="white"/>
<path d="M26.0926 7.21572L25.214 8.09436C27.3106 10.3871 28.4732 13.3815 28.4732 16.4883C28.4732 19.5951 27.3106 22.5895 25.214 24.8822L26.0926 25.7608C28.4242 23.2318 29.7187 19.9179 29.7187 16.478C29.7187 13.0382 28.4242 9.72429 26.0926 7.19522V7.21572Z" fill="#5A5564"/>
<path d="M7.61484 7.29188C9.90759 5.19531 12.9019 4.03264 16.0088 4.03264C19.1156 4.03264 22.1099 5.19531 24.4027 7.29188L25.2813 6.41324C22.7523 4.08163 19.4384 2.78714 15.9985 2.78714C12.5587 2.78714 9.24477 4.08163 6.7157 6.41324L7.61484 7.29188Z" fill="#5A5564"/>
<path d="M6.79185 24.891C4.69776 22.5988 3.53663 19.6062 3.53663 16.5015C3.53663 13.3967 4.69776 10.4042 6.79185 8.11195L5.91321 7.23331C3.5816 9.76238 2.28711 13.0763 2.28711 16.5161C2.28711 19.956 3.5816 23.2699 5.91321 25.7989L6.79185 24.891Z" fill="#5A5564"/>
<path d="M24.391 25.7023C22.0982 27.7988 19.1039 28.9615 15.997 28.9615C12.8902 28.9615 9.89588 27.7988 7.60313 25.7023L6.72449 26.5809C9.25356 28.9125 12.5674 30.207 16.0073 30.207C19.4472 30.207 22.761 28.9125 25.2901 26.5809L24.391 25.7023Z" fill="#5A5564"/>
<path d="M21.5471 13.5683C21.3714 11.7349 19.7898 11.1198 17.7895 10.9324V8.40775H16.2431V10.8855C15.836 10.8855 15.4201 10.8855 15.0071 10.8855V8.40775H13.4724V10.9499H10.3357V12.6047C10.3357 12.6047 11.4779 12.5842 11.4604 12.6047C11.6663 12.582 11.873 12.6402 12.0369 12.767C12.2008 12.8937 12.3091 13.0792 12.339 13.2842V20.243C12.3346 20.3153 12.3157 20.386 12.2835 20.4509C12.2513 20.5158 12.2065 20.5736 12.1515 20.6208C12.0977 20.669 12.0346 20.7057 11.9662 20.7289C11.8977 20.752 11.8253 20.7611 11.7532 20.7555C11.7737 20.7731 10.6286 20.7555 10.6286 20.7555L10.3357 22.6036H13.4431V25.1868H14.9895V22.6417H16.2255V25.1751H17.7748V22.6212C20.3873 22.463 22.209 21.8187 22.4375 19.3731C22.622 17.405 21.6965 16.5264 20.2174 16.172C21.1166 15.7297 21.6731 14.9097 21.5471 13.5683ZM19.3798 19.0686C19.3798 20.9898 16.0878 20.7702 15.0393 20.7702V17.3611C16.0878 17.364 19.3798 17.0623 19.3798 19.0686ZM18.6623 14.2653C18.6623 16.0226 15.915 15.8088 15.0423 15.8088V12.7101C15.915 12.7101 18.6623 12.4348 18.6623 14.2653Z" fill="#F09242"/>
<path d="M15.9971 32.5C12.8328 32.4994 9.73979 31.5606 7.10906 29.8023C4.47832 28.044 2.42801 25.5451 1.21737 22.6216C0.00673518 19.6981 -0.309871 16.4813 0.307586 13.3778C0.925043 10.2744 2.44883 7.42376 4.6863 5.1863C6.92376 2.94883 9.77442 1.42504 12.8778 0.807586C15.9813 0.190129 19.1981 0.506735 22.1216 1.71737C25.0451 2.92801 27.544 4.97832 29.3023 7.60906C31.0606 10.2398 31.9994 13.3328 32 16.4971C32.0004 18.5987 31.5867 20.6799 30.7826 22.6216C29.9786 24.5633 28.7998 26.3276 27.3137 27.8137C25.8276 29.2998 24.0633 30.4786 22.1216 31.2826C20.1799 32.0867 18.0987 32.5004 15.9971 32.5ZM15.9971 1.74767C13.0818 1.74999 10.2327 2.6165 7.80981 4.2377C5.38691 5.85889 3.49901 8.16198 2.38473 10.8559C1.27045 13.5498 0.97981 16.5135 1.54954 19.3726C2.11927 22.2316 3.5238 24.8576 5.5856 26.9185C7.6474 28.9795 10.2739 30.383 13.1332 30.9516C15.9924 31.5202 18.9561 31.2284 21.6495 30.113C24.343 28.9977 26.6453 27.1089 28.2656 24.6853C29.8858 22.2618 30.7512 19.4123 30.7523 16.4971C30.7531 14.5594 30.3719 12.6407 29.6306 10.8505C28.8893 9.06025 27.8024 7.43372 26.432 6.06388C25.0616 4.69404 23.4346 3.60776 21.6441 2.86715C19.8536 2.12654 17.9347 1.74613 15.9971 1.74767Z" fill="#282138"/>
</g>
<defs>
<clipPath id="clip0_2261_1592">
<rect width="32" height="32" fill="white" transform="translate(0 0.5)"/>
</clipPath>
</defs>
</svg>
