<svg width="102" height="142" viewBox="0 0 102 142" fill="none" xmlns="http://www.w3.org/2000/svg">
<rect x="1" y="1" width="100" height="100" rx="50" fill="#050E08"/>
<rect x="1" y="1" width="100" height="100" rx="50" stroke="#4FE88D" stroke-width="2"/>
<path d="M86.4879 60.326C87.9211 59.1577 88.3542 56.8544 88.4566 55.7415C88.4882 55.3935 88.2762 55.0712 87.9894 55.0165C87.064 54.8553 85.1087 54.7535 83.7438 55.9728C82.3744 57.1985 81.9265 59.3387 81.7615 60.3673C81.7164 60.6895 81.9078 60.9969 82.1901 61.0607C83.1032 61.2392 85.0495 61.4989 86.4879 60.326ZM81.679 71.3235C83.4383 70.9027 84.6621 69.0963 85.1571 68.1709C85.3105 67.8809 85.228 67.509 84.9734 67.3395C84.1517 66.8008 82.3467 65.8889 80.6137 66.4147C78.8725 66.9432 77.7047 68.6529 77.1853 69.4836C77.1092 69.6084 77.084 69.7577 77.1146 69.9006C77.1453 70.0435 77.2297 70.1692 77.3503 70.2518C78.1558 70.7544 79.9119 71.7449 81.679 71.3235ZM77.2781 56.1732C76.7961 54.3333 77.4985 52.3929 77.8839 51.4752C78.0089 51.1949 78.3208 51.0853 78.5799 51.2361C79.4093 51.724 81.0977 52.9568 81.6113 54.9056C82.1333 56.8667 81.2969 58.8612 80.8238 59.7364C80.6711 60.0103 80.3573 60.0844 80.1079 59.9097C79.3274 59.3278 77.7666 58.0228 77.2781 56.1732ZM88.6081 48.4392C89.7069 46.8513 89.567 44.3947 89.3969 43.2399C89.344 42.879 89.0637 42.6128 88.7756 42.6405C87.8489 42.7437 85.9646 43.1812 84.9373 44.7846C83.9088 46.3938 83.9939 48.6783 84.0718 49.7707C84.1021 50.1109 84.3586 50.3726 84.648 50.361C85.5695 50.3017 87.5067 50.0336 88.6081 48.4392ZM79.0465 46.7753C78.1429 45.0256 78.3659 42.8848 78.5193 41.8601C78.5709 41.5443 78.8435 41.3575 79.1328 41.4425C80.0511 41.7274 81.9639 42.5349 82.926 44.3754C83.8927 46.2269 83.5627 48.4786 83.3127 49.4936C83.2295 49.8113 82.9402 49.9717 82.6631 49.8564C81.7699 49.4691 79.9564 48.5353 79.0465 46.7753ZM73.4572 64.3976C73.2845 62.6009 74.2905 60.8951 74.8247 60.0973C74.863 60.0397 74.9129 59.9908 74.9712 59.9536C75.0295 59.9164 75.0949 59.8918 75.1633 59.8813C75.2316 59.8708 75.3014 59.8747 75.3681 59.8927C75.4349 59.9107 75.4972 59.9424 75.551 59.9858C76.2908 60.578 77.7531 62.0145 77.9419 63.9278C78.1339 65.8521 76.9875 67.5741 76.381 68.3113C76.3375 68.3651 76.2832 68.4091 76.2216 68.4406C76.16 68.4721 76.0925 68.4904 76.0235 68.4942C75.9544 68.4981 75.8853 68.4875 75.8206 68.4631C75.7559 68.4387 75.697 68.4011 75.6477 68.3526C74.9716 67.6779 73.6402 66.2034 73.4572 64.3976ZM84.7311 35.9854C85.2054 38.1443 84.3122 40.0898 83.8257 40.9347C83.6684 41.1983 83.3571 41.2273 83.1135 41.0062C82.3628 40.2767 80.8451 38.6766 80.3805 36.6292C79.9293 34.6043 80.6543 32.642 81.0507 31.7217C81.1796 31.4427 81.4857 31.3821 81.7544 31.5838C82.5903 32.2534 84.2632 33.8503 84.7311 35.9854Z" fill="#4FE88D"/>
<path d="M83.3503 38.1489C83.9419 39.9739 84.2268 41.7487 84.3859 43.5525C84.4742 44.4509 84.4987 45.3415 84.5258 46.236C84.5155 47.1221 84.5077 48.0127 84.4588 48.8892C84.2609 52.4072 83.5739 55.7951 82.5738 58.9883C81.5981 62.2028 80.2248 65.1756 78.6832 67.9783C77.8782 69.3366 77.0345 70.6715 76.1532 71.9816C75.2403 73.2279 74.2915 74.4475 73.3079 75.6388C73.21 75.7593 73.0886 75.8587 72.9511 75.9309C72.8137 76.0032 72.663 76.0469 72.5082 76.0593C72.3534 76.0717 72.1977 76.0526 72.0505 76.0031C71.9033 75.9537 71.7676 75.8749 71.6517 75.7715C71.4102 75.5581 71.2631 75.2576 71.2427 74.936C71.2223 74.6143 71.3302 74.2976 71.5428 74.0554L71.575 74.0186C72.5526 72.9115 73.5084 71.7657 74.4396 70.5831C75.3317 69.3498 76.1885 68.0913 77.009 66.8093C78.5801 64.1651 80.0089 61.3444 81.0458 58.291C82.1136 55.2556 82.885 52.0205 83.1866 48.6553C83.2652 47.8155 83.2962 46.9655 83.3368 46.1136C83.331 45.2616 83.3471 44.4032 83.2878 43.5435C83.2015 41.8377 82.9637 40.0603 82.4997 38.4576C82.4939 38.4402 82.49 38.4228 82.4842 38.406C82.4017 38.116 82.5254 37.8286 82.7671 37.7616C82.9997 37.6971 83.2595 37.8692 83.3503 38.1489Z" fill="#35D175"/>
<path d="M16.0247 60.3247C14.5915 59.1563 14.1584 56.8531 14.0559 55.7401C14.0244 55.3921 14.2364 55.0699 14.5232 55.0151C15.4486 54.854 17.4038 54.7522 18.7688 55.9715C20.1382 57.1972 20.5861 59.3374 20.7511 60.366C20.7962 60.6882 20.6048 60.9956 20.3225 61.0594C19.4093 61.2379 17.4631 61.4976 16.0247 60.3247ZM20.8336 71.3222C19.0742 70.9013 17.8504 69.095 17.3555 68.1695C17.2021 67.8795 17.2846 67.5077 17.5392 67.3382C18.3608 66.7995 20.1659 65.8876 21.8988 66.4134C23.6401 66.9419 24.8079 68.6516 25.3273 69.4823C25.4845 69.7465 25.4111 70.0861 25.1623 70.2505C24.3567 70.7531 22.6006 71.7436 20.8336 71.3222ZM25.2345 56.1719C25.7165 54.332 25.0141 52.3916 24.6287 51.4739C24.5037 51.1936 24.1918 51.084 23.9327 51.2348C23.1033 51.7227 21.4149 52.9555 20.9012 54.9043C20.3792 56.8653 21.2157 58.8599 21.6887 59.7351C21.8415 60.0089 22.1553 60.0831 22.4047 59.9084C23.1851 59.3265 24.746 58.0215 25.2345 56.1719ZM13.9045 48.4379C12.8057 46.85 12.9456 44.3934 13.1157 43.2386C13.1685 42.8777 13.4489 42.6115 13.7369 42.6392C14.6637 42.7423 16.548 43.1799 17.5753 44.7833C18.6038 46.3925 18.5187 48.677 18.4407 49.7694C18.4105 50.1096 18.154 50.3713 17.8646 50.3597C16.9431 50.3004 15.0059 50.0323 13.9045 48.4379ZM23.4661 46.774C24.3696 45.0243 24.1467 42.8835 23.9933 41.8588C23.9417 41.543 23.6691 41.3561 23.3798 41.4412C22.4614 41.7261 20.5487 42.5335 19.5866 44.3741C18.6199 46.2256 18.9499 48.4773 19.1999 49.4923C19.283 49.81 19.5724 49.9704 19.8495 49.8551C20.7427 49.4678 22.5562 48.534 23.4661 46.774ZM29.0554 64.3963C29.2281 62.5996 28.2221 60.8938 27.6879 60.0959C27.6495 60.0384 27.5996 59.9895 27.5414 59.9523C27.4831 59.9151 27.4177 59.8905 27.3493 59.88C27.281 59.8695 27.2112 59.8734 27.1445 59.8914C27.0777 59.9094 27.0154 59.9411 26.9616 59.9845C26.2218 60.5767 24.7595 62.0132 24.5707 63.9265C24.3787 65.8508 25.5251 67.5728 26.1315 68.31C26.1751 68.3638 26.2294 68.4078 26.291 68.4393C26.3526 68.4708 26.4201 68.489 26.4891 68.4929C26.5582 68.4968 26.6273 68.4862 26.692 68.4618C26.7567 68.4374 26.8156 68.3998 26.8649 68.3513C27.5409 67.6765 28.8724 66.2021 29.0554 64.3963ZM17.7815 35.9834C17.3072 38.1423 18.2004 40.0879 18.6869 40.9327C18.8442 41.1963 19.1554 41.2253 19.399 41.0043C20.1498 40.2748 21.6675 38.6746 22.1321 36.6272C22.5832 34.6024 21.8582 32.64 21.4619 31.7198C21.333 31.4407 21.0269 31.3801 20.7582 31.5819C19.9223 32.2514 18.2493 33.8484 17.7815 35.9834Z" fill="#4FE88D"/>
<path d="M19.1618 38.1489C18.5702 39.9739 18.2853 41.7487 18.1262 43.5525C18.0379 44.4509 18.0134 45.3415 17.9863 46.236C17.9966 47.1221 18.0044 48.0127 18.0534 48.8892C18.2512 52.4072 18.9382 55.7951 19.9383 58.9883C20.914 62.2028 22.2874 65.1756 23.8289 67.9783C24.6409 69.3503 25.4864 70.6849 26.359 71.9816C27.2718 73.2279 28.2206 74.4475 29.2042 75.6388C29.3021 75.7593 29.4235 75.8587 29.561 75.9309C29.6984 76.0032 29.8491 76.0469 30.0039 76.0593C30.1587 76.0717 30.3144 76.0526 30.4616 76.0031C30.6088 75.9537 30.7445 75.8749 30.8604 75.7715C31.1019 75.5581 31.249 75.2576 31.2694 74.936C31.2898 74.6143 31.1819 74.2976 30.9693 74.0554L30.9371 74.0186C29.9595 72.9115 29.0037 71.7657 28.0725 70.5831C27.1804 69.3498 26.3236 68.0913 25.5031 66.8093C23.932 64.1651 22.5032 61.3444 21.4663 58.291C20.3985 55.2556 19.6271 52.0205 19.3255 48.6553C19.2469 47.8155 19.2159 46.9655 19.1753 46.1136C19.1811 45.2616 19.165 44.4032 19.2243 43.5435C19.3107 41.8377 19.5485 40.0603 20.0125 38.4576C20.0183 38.4402 20.0221 38.4228 20.0279 38.406C20.1104 38.116 19.9867 37.8286 19.745 37.7616C19.5124 37.6971 19.2527 37.8692 19.1618 38.1489Z" fill="#35D175"/>
<path d="M73.7267 53.3802C73.1173 53.99 72.679 54.7494 72.4558 55.5822C72.2327 56.4149 72.2325 57.2917 72.4552 58.1246V58.1394C72.6226 58.7614 72.6657 59.4103 72.582 60.0489C72.4984 60.6876 72.2897 61.3035 71.9679 61.8614C71.6461 62.4194 71.2174 62.9084 70.7065 63.3006C70.1955 63.6927 69.6122 63.9803 68.99 64.1469L68.9752 64.1547C68.1423 64.3776 67.3828 64.816 66.773 65.4256C66.1633 66.0352 65.7248 66.7947 65.5017 67.6276C65.1638 68.8852 64.3406 69.9573 63.2129 70.6084C62.0852 71.2596 60.7452 71.4366 59.4871 71.1005H59.4793C58.6466 70.8773 57.7697 70.8772 56.9369 71.1003C56.1041 71.3234 55.3447 71.7617 54.7349 72.3713L54.7278 72.3791C52.8138 74.2931 49.7038 74.2931 47.782 72.3791C47.3271 71.9209 46.7859 71.5573 46.1897 71.3093C45.5935 71.0613 44.9542 70.9339 44.3085 70.9342C43.8851 70.9342 43.4539 70.9871 43.0376 71.1005H43.0299C40.4122 71.8119 37.7184 70.253 37.0153 67.6353V67.6276C36.7923 66.7946 36.3538 66.035 35.7441 65.4252C35.1343 64.8155 34.3747 64.377 33.5417 64.154H33.5353C30.9169 63.4516 29.3586 60.7578 30.0617 58.1394V58.1317C30.2849 57.299 30.2849 56.4222 30.0618 55.5896C29.8387 54.7569 29.4004 53.9975 28.7909 53.3879L28.7832 53.3802C26.8692 51.4662 26.8692 48.3561 28.7832 46.4344C29.2414 45.9795 29.605 45.4385 29.8531 44.8424C30.1012 44.2464 30.2288 43.6071 30.2286 42.9615C30.2297 42.5323 30.1738 42.105 30.0624 41.6906V41.6829C29.3509 39.0645 30.9098 36.3714 33.5276 35.6676H33.5353C34.3682 35.4445 35.1276 35.006 35.7372 34.3963C36.3469 33.7865 36.7852 33.027 37.0082 32.1941V32.1876C37.7119 29.5693 40.4051 28.0103 43.0234 28.7141H43.0305C43.8633 28.9373 44.7402 28.9374 45.573 28.7143C46.4058 28.4913 47.1653 28.0529 47.7749 27.4432L47.7827 27.4355C49.6967 25.5215 52.8061 25.5215 54.7285 27.4355C55.1834 27.8936 55.7244 28.2571 56.3205 28.5051C56.9166 28.7531 57.5558 28.8806 58.2014 28.8803C58.6248 28.8803 59.0559 28.8275 59.4722 28.7141H59.48C62.0977 28.0026 64.7915 29.5615 65.4952 32.1793V32.187C65.7182 33.0199 66.1565 33.7794 66.7662 34.3892C67.3758 34.9989 68.1353 35.4374 68.9681 35.6605H68.9759C71.5936 36.3636 73.1519 39.0568 72.4488 41.6751V41.6829C72.2257 42.5156 72.2256 43.3923 72.4487 44.225C72.6718 45.0577 73.1101 45.817 73.7196 46.4266L73.7274 46.4344C74.1843 46.89 74.5468 47.4312 74.7942 48.0272C75.0416 48.6231 75.1689 49.262 75.1689 49.9073C75.1689 50.5525 75.0416 51.1914 74.7942 51.7874C74.5468 52.3833 74.1836 52.9246 73.7267 53.3802Z" fill="#FFBC50"/>
<path d="M72.2812 61.2132C71.9992 61.9251 71.5548 62.5613 70.9834 63.071C70.412 63.5808 69.7294 63.95 68.99 64.1492L68.9752 64.157C68.1423 64.38 67.3828 64.8184 66.7731 65.428C66.1634 66.0376 65.7248 66.797 65.5017 67.6299C65.1637 68.8874 64.3404 69.9593 63.2127 70.6104C62.085 71.2614 60.7451 71.4383 59.4871 71.1022H59.4793C58.6465 70.8791 57.7696 70.8791 56.9368 71.1023C56.104 71.3255 55.3446 71.764 54.7349 72.3736L54.7278 72.3814C52.8138 74.2954 49.7038 74.2954 47.782 72.3814C47.3271 71.9231 46.786 71.5594 46.1898 71.3113C45.5936 71.0632 44.9542 70.9356 44.3085 70.9359C43.8851 70.9359 43.4539 70.9887 43.0376 71.1022H43.0299C40.4122 71.8136 37.7184 70.2554 37.0153 67.637V67.6299C36.7922 66.7969 36.3537 66.0374 35.744 65.4276C35.1342 64.8179 34.3747 64.3794 33.5417 64.1563H33.5353C30.9169 63.4532 29.3586 60.7595 30.0617 58.1417V58.134C30.285 57.3012 30.2851 56.4243 30.062 55.5915C29.8389 54.7587 29.4005 53.9993 28.7909 53.3896L28.7832 53.3825C26.8692 51.4685 26.8692 48.3584 28.7832 46.4367C29.2415 45.9818 29.6051 45.4406 29.8532 44.8444C30.1013 44.2483 30.2289 43.6089 30.2286 42.9631C30.2297 42.534 30.1738 42.1067 30.0624 41.6923V41.6846C29.3509 39.0668 30.9098 36.373 33.5276 35.67H33.5353C33.603 35.6545 33.6642 35.6313 33.7241 35.6094C34.5264 50.8176 47.1092 62.901 62.5218 62.901C65.9489 62.901 69.2324 62.3029 72.2812 61.2132Z" fill="#FFB32C"/>
<path d="M66.3696 49.9097C66.3696 58.2553 59.6062 65.0181 51.2529 65.0181C42.908 65.0181 36.1445 58.2546 36.1445 49.9097C36.1445 41.5564 42.908 34.793 51.2529 34.793C59.6062 34.793 66.3696 41.5564 66.3696 49.9097Z" fill="white"/>
<path d="M63.2396 59.1189C60.4781 62.7052 56.1346 65.0207 51.2548 65.0207C42.9093 65.0207 36.1446 58.2566 36.1446 49.9111C36.1406 47.5913 36.6725 45.302 37.6989 43.2217C38.7254 41.1414 40.2185 39.3263 42.0618 37.918C40.0795 40.468 38.9137 43.6683 38.9137 47.1419C38.9137 55.4875 45.6785 62.2515 54.024 62.2515C57.4969 62.2515 60.6895 61.078 63.2396 59.1189Z" fill="#E5F5F9"/>
<path opacity="0.3" d="M66.6159 41.5359C64.4918 37.5533 60.7985 34.5373 56.4852 33.2593C56.3423 33.217 56.2091 33.147 56.0933 33.0532C55.9775 32.9594 55.8813 32.8438 55.8101 32.7128C55.739 32.5818 55.6944 32.4381 55.6788 32.2899C55.6632 32.1417 55.677 31.9919 55.7193 31.849C55.7616 31.7061 55.8316 31.5729 55.9254 31.4571C56.0192 31.3413 56.1349 31.245 56.2658 31.1739C56.3968 31.1028 56.5405 31.0582 56.6887 31.0426C56.8369 31.027 56.9867 31.0407 57.1296 31.0831C62.0223 32.5324 66.2099 35.9525 68.6181 40.4675C68.7598 40.733 68.7902 41.0439 68.7027 41.3319C68.6151 41.6198 68.4168 41.8612 68.1512 42.0028C67.8857 42.1445 67.5748 42.1749 67.2869 42.0874C66.9989 41.9998 66.7575 41.8015 66.6159 41.5359ZM53.272 32.6387C52.7356 32.5883 52.1971 32.5629 51.6583 32.5627C51.3573 32.5627 51.0687 32.4431 50.8558 32.2303C50.643 32.0175 50.5234 31.7288 50.5234 31.4278C50.5234 31.1269 50.643 30.8382 50.8558 30.6254C51.0687 30.4125 51.3573 30.293 51.6583 30.293C52.2667 30.293 52.8815 30.322 53.4847 30.3787C53.7844 30.4069 54.0606 30.553 54.2526 30.7848C54.4445 31.0167 54.5366 31.3153 54.5084 31.615C54.4802 31.9148 54.3341 32.191 54.1022 32.383C53.8703 32.5749 53.5717 32.667 53.272 32.6387Z" fill="white"/>
<path d="M56.5409 52.0141C56.4442 52.1128 56.3715 52.2324 56.3283 52.3637C56.2852 52.495 56.2728 52.6344 56.2921 52.7713L57.0996 57.4551C57.224 58.1511 56.4906 58.6853 55.8694 58.3618L51.6579 56.1385C51.5343 56.0772 51.3982 56.0453 51.2603 56.0453C51.1223 56.0453 50.9863 56.0772 50.8627 56.1385L46.6512 58.3618C46.0306 58.6853 45.2972 58.1511 45.4216 57.4551L46.2169 52.7713C46.2413 52.6353 46.2326 52.4955 46.1914 52.3637C46.1502 52.2318 46.0778 52.1119 45.9804 52.0141L42.5642 48.6965C42.0673 48.2002 42.3405 47.3431 43.0359 47.2432L47.7448 46.5601C47.8837 46.5426 48.0159 46.4901 48.1288 46.4075C48.2418 46.3248 48.3319 46.2148 48.3906 46.0877L50.4902 41.8267C50.8008 41.1932 51.7082 41.1932 52.0182 41.8267L54.1307 46.0877C54.2544 46.3487 54.4909 46.5227 54.7641 46.5595L59.4725 47.2426C60.1685 47.3425 60.4539 48.1996 59.9448 48.6965L56.5409 52.0141Z" fill="#FFBC50"/>
<path d="M55.8734 58.3669L51.6587 56.1397C51.535 56.0802 51.3996 56.0494 51.2624 56.0494C51.1251 56.0494 50.9897 56.0802 50.866 56.1397L46.652 58.3669C46.0301 58.6878 45.2974 58.1465 45.4179 57.4537L46.2209 52.7679C46.2448 52.6323 46.2353 52.4929 46.1933 52.3618C46.1513 52.2307 46.0781 52.1117 45.9798 52.0152L42.5682 48.6938C42.0661 48.202 42.3374 47.3391 43.0399 47.2392L46.7422 46.6973C47.0735 51.1523 50.7958 54.6645 55.3314 54.6645C55.7631 54.6645 56.1846 54.6342 56.6061 54.5743L57.0978 57.4537C57.228 58.1465 56.4856 58.6878 55.8734 58.3669Z" fill="#FFB32C"/>
<path d="M27.5244 123.168C26.8924 123.168 26.3444 123.052 25.8804 122.82C25.4164 122.588 25.0564 122.26 24.8004 121.836C24.5524 121.412 24.4284 120.92 24.4284 120.36V120.228H25.7124V120.348C25.7124 120.86 25.8684 121.272 26.1804 121.584C26.5004 121.888 26.9444 122.04 27.5124 122.04C28.0964 122.04 28.5484 121.88 28.8684 121.56C29.1884 121.24 29.3484 120.808 29.3484 120.264V120.156C29.3484 119.636 29.1884 119.22 28.8684 118.908C28.5564 118.596 28.1564 118.44 27.6684 118.44C27.3964 118.44 27.1684 118.484 26.9844 118.572C26.8084 118.652 26.6644 118.752 26.5524 118.872C26.4484 118.992 26.3604 119.108 26.2884 119.22H24.6924V114.6H30.3204V115.74H25.9524V118.212H26.1444C26.2244 118.076 26.3364 117.948 26.4804 117.828C26.6324 117.7 26.8284 117.596 27.0684 117.516C27.3084 117.436 27.5964 117.396 27.9324 117.396C28.4284 117.396 28.8764 117.504 29.2764 117.72C29.6844 117.928 30.0084 118.24 30.2484 118.656C30.4884 119.064 30.6084 119.56 30.6084 120.144V120.276C30.6084 120.86 30.4844 121.368 30.2364 121.8C29.9884 122.232 29.6324 122.568 29.1684 122.808C28.7124 123.048 28.1644 123.168 27.5244 123.168ZM31.96 123V114.6H33.256V118.092H33.448L36.58 114.6H38.272L34.48 118.74L38.404 123H36.664L33.448 119.436H33.256V123H31.96ZM42.4365 123V114.6H45.7725C46.2845 114.6 46.7405 114.704 47.1405 114.912C47.5485 115.112 47.8645 115.4 48.0885 115.776C48.3205 116.144 48.4365 116.588 48.4365 117.108V117.264C48.4365 117.784 48.3165 118.232 48.0765 118.608C47.8445 118.984 47.5285 119.272 47.1285 119.472C46.7285 119.672 46.2765 119.772 45.7725 119.772H43.7325V123H42.4365ZM43.7325 118.596H45.6405C46.0965 118.596 46.4605 118.476 46.7325 118.236C47.0045 117.996 47.1405 117.668 47.1405 117.252V117.132C47.1405 116.708 47.0045 116.376 46.7325 116.136C46.4605 115.896 46.0965 115.776 45.6405 115.776H43.7325V118.596ZM52.311 123.168C51.719 123.168 51.191 123.048 50.727 122.808C50.271 122.56 49.911 122.208 49.647 121.752C49.383 121.296 49.251 120.756 49.251 120.132V119.952C49.251 119.328 49.383 118.792 49.647 118.344C49.911 117.888 50.271 117.536 50.727 117.288C51.191 117.04 51.719 116.916 52.311 116.916C52.903 116.916 53.431 117.04 53.895 117.288C54.359 117.536 54.723 117.888 54.987 118.344C55.251 118.792 55.383 119.328 55.383 119.952V120.132C55.383 120.756 55.251 121.296 54.987 121.752C54.723 122.208 54.359 122.56 53.895 122.808C53.431 123.048 52.903 123.168 52.311 123.168ZM52.311 122.064C52.855 122.064 53.295 121.892 53.631 121.548C53.975 121.196 54.147 120.712 54.147 120.096V119.988C54.147 119.372 53.979 118.892 53.643 118.548C53.307 118.196 52.863 118.02 52.311 118.02C51.775 118.02 51.335 118.196 50.991 118.548C50.655 118.892 50.487 119.372 50.487 119.988V120.096C50.487 120.712 50.655 121.196 50.991 121.548C51.335 121.892 51.775 122.064 52.311 122.064ZM56.9218 123V117.084H58.1578V123H56.9218ZM57.5458 116.28C57.3058 116.28 57.1018 116.204 56.9338 116.052C56.7738 115.892 56.6938 115.688 56.6938 115.44C56.6938 115.192 56.7738 114.992 56.9338 114.84C57.1018 114.68 57.3058 114.6 57.5458 114.6C57.7938 114.6 57.9978 114.68 58.1578 114.84C58.3178 114.992 58.3978 115.192 58.3978 115.44C58.3978 115.688 58.3178 115.892 58.1578 116.052C57.9978 116.204 57.7938 116.28 57.5458 116.28ZM59.9921 123V117.084H61.2041V117.972H61.3961C61.5081 117.732 61.7081 117.508 61.9961 117.3C62.2841 117.092 62.7121 116.988 63.2801 116.988C63.7281 116.988 64.1241 117.088 64.4681 117.288C64.8201 117.488 65.0961 117.772 65.2961 118.14C65.4961 118.5 65.5961 118.936 65.5961 119.448V123H64.3601V119.544C64.3601 119.032 64.2321 118.656 63.9761 118.416C63.7201 118.168 63.3681 118.044 62.9201 118.044C62.4081 118.044 61.9961 118.212 61.6841 118.548C61.3801 118.884 61.2281 119.372 61.2281 120.012V123H59.9921ZM69.4308 123C69.0708 123 68.7828 122.892 68.5668 122.676C68.3588 122.46 68.2548 122.172 68.2548 121.812V118.128H66.6228V117.084H68.2548V115.128H69.4908V117.084H71.2548V118.128H69.4908V121.596C69.4908 121.836 69.6028 121.956 69.8268 121.956H71.0628V123H69.4308ZM75.1309 123.168C74.3789 123.168 73.7549 123 73.2589 122.664C72.7629 122.328 72.4589 121.82 72.3469 121.14L73.4989 120.864C73.5629 121.192 73.6709 121.452 73.8229 121.644C73.9749 121.836 74.1629 121.972 74.3869 122.052C74.6189 122.132 74.8669 122.172 75.1309 122.172C75.5229 122.172 75.8229 122.096 76.0309 121.944C76.2469 121.792 76.3549 121.596 76.3549 121.356C76.3549 121.116 76.2549 120.94 76.0549 120.828C75.8549 120.716 75.5589 120.624 75.1669 120.552L74.7589 120.48C74.3589 120.408 73.9949 120.304 73.6669 120.168C73.3389 120.032 73.0789 119.844 72.8869 119.604C72.6949 119.364 72.5989 119.056 72.5989 118.68C72.5989 118.12 72.8069 117.688 73.2229 117.384C73.6389 117.072 74.1909 116.916 74.8789 116.916C75.5429 116.916 76.0869 117.068 76.5109 117.372C76.9429 117.668 77.2229 118.072 77.3509 118.584L76.1989 118.908C76.1269 118.548 75.9749 118.296 75.7429 118.152C75.5109 118 75.2229 117.924 74.8789 117.924C74.5429 117.924 74.2789 117.988 74.0869 118.116C73.8949 118.236 73.7989 118.408 73.7989 118.632C73.7989 118.872 73.8909 119.048 74.0749 119.16C74.2669 119.272 74.5229 119.356 74.8429 119.412L75.2629 119.484C75.6869 119.556 76.0749 119.656 76.4269 119.784C76.7789 119.912 77.0549 120.096 77.2549 120.336C77.4629 120.576 77.5669 120.896 77.5669 121.296C77.5669 121.888 77.3469 122.348 76.9069 122.676C76.4669 123.004 75.8749 123.168 75.1309 123.168Z" fill="#4FE88D"/>
<path d="M29.4483 140V131.6H31.3683L33.6003 139.364H33.7563L35.9883 131.6H37.9083V140H36.9363V132.26H36.7683L34.5483 140H32.8083L30.5883 132.26H30.4203V140H29.4483ZM41.6671 140.168C41.2591 140.168 40.8871 140.096 40.5511 139.952C40.2151 139.808 39.9511 139.6 39.7591 139.328C39.5671 139.056 39.4711 138.724 39.4711 138.332C39.4711 137.932 39.5671 137.604 39.7591 137.348C39.9511 137.084 40.2151 136.888 40.5511 136.76C40.8871 136.624 41.2631 136.556 41.6791 136.556H43.6591V136.124C43.6591 135.708 43.5351 135.38 43.2871 135.14C43.0471 134.9 42.6871 134.78 42.2071 134.78C41.7351 134.78 41.3671 134.896 41.1031 135.128C40.8391 135.352 40.6591 135.656 40.5631 136.04L39.6751 135.752C39.7711 135.424 39.9231 135.128 40.1311 134.864C40.3391 134.592 40.6151 134.376 40.9591 134.216C41.3111 134.048 41.7311 133.964 42.2191 133.964C42.9711 133.964 43.5551 134.16 43.9711 134.552C44.3871 134.936 44.5951 135.48 44.5951 136.184V138.836C44.5951 139.076 44.7071 139.196 44.9311 139.196H45.4711V140H44.6431C44.3791 140 44.1671 139.928 44.0071 139.784C43.8471 139.632 43.7671 139.432 43.7671 139.184V139.124H43.6231C43.5351 139.276 43.4151 139.436 43.2631 139.604C43.1191 139.764 42.9191 139.896 42.6631 140C42.4071 140.112 42.0751 140.168 41.6671 140.168ZM41.7751 139.352C42.3351 139.352 42.7871 139.188 43.1311 138.86C43.4831 138.524 43.6591 138.056 43.6591 137.456V137.324H41.7151C41.3391 137.324 41.0271 137.408 40.7791 137.576C40.5391 137.736 40.4191 137.98 40.4191 138.308C40.4191 138.636 40.5431 138.892 40.7911 139.076C41.0471 139.26 41.3751 139.352 41.7751 139.352ZM46.2894 140L48.6414 137.024L46.3614 134.132H47.5014L49.2534 136.4H49.4214L51.1614 134.132H52.3134L50.0214 137.024L52.3734 140H51.2214L49.4214 137.66H49.2534L47.4534 140H46.2894ZM54.3987 140.168C54.1667 140.168 53.9707 140.092 53.8107 139.94C53.6587 139.788 53.5827 139.592 53.5827 139.352C53.5827 139.112 53.6587 138.916 53.8107 138.764C53.9707 138.612 54.1667 138.536 54.3987 138.536C54.6387 138.536 54.8347 138.612 54.9867 138.764C55.1387 138.916 55.2147 139.112 55.2147 139.352C55.2147 139.592 55.1387 139.788 54.9867 139.94C54.8347 140.092 54.6387 140.168 54.3987 140.168ZM54.3987 135.596C54.1667 135.596 53.9707 135.52 53.8107 135.368C53.6587 135.216 53.5827 135.02 53.5827 134.78C53.5827 134.54 53.6587 134.344 53.8107 134.192C53.9707 134.04 54.1667 133.964 54.3987 133.964C54.6387 133.964 54.8347 134.04 54.9867 134.192C55.1387 134.344 55.2147 134.54 55.2147 134.78C55.2147 135.02 55.1387 135.216 54.9867 135.368C54.8347 135.52 54.6387 135.596 54.3987 135.596ZM62.6279 140.168C62.0119 140.168 61.4799 140.052 61.0319 139.82C60.5839 139.58 60.2359 139.252 59.9879 138.836C59.7399 138.412 59.6159 137.924 59.6159 137.372V137.228H60.5879V137.336C60.5879 137.968 60.7719 138.452 61.1399 138.788C61.5079 139.124 61.9959 139.292 62.6039 139.292C63.2439 139.292 63.7439 139.112 64.1039 138.752C64.4639 138.392 64.6439 137.9 64.6439 137.276V137.168C64.6439 136.568 64.4679 136.092 64.1159 135.74C63.7719 135.38 63.3239 135.2 62.7719 135.2C62.4519 135.2 62.1879 135.252 61.9799 135.356C61.7719 135.452 61.6079 135.576 61.4879 135.728C61.3679 135.872 61.2679 136.012 61.1879 136.148H59.8679V131.6H65.3879V132.476H60.8399V135.38H61.0079C61.0959 135.22 61.2159 135.064 61.3679 134.912C61.5279 134.76 61.7399 134.632 62.0039 134.528C62.2679 134.424 62.5959 134.372 62.9879 134.372C63.4759 134.372 63.9159 134.484 64.3079 134.708C64.7079 134.932 65.0239 135.252 65.2559 135.668C65.4959 136.084 65.6159 136.58 65.6159 137.156V137.288C65.6159 137.856 65.4959 138.356 65.2559 138.788C65.0159 139.22 64.6719 139.56 64.2239 139.808C63.7759 140.048 63.2439 140.168 62.6279 140.168ZM67.1475 140V131.6H68.1555V135.26H68.3235L71.8755 131.6H73.2195L69.1275 135.752L73.3635 140H71.9835L68.3235 136.268H68.1555V140H67.1475Z" fill="#ABABAB"/>
</svg>
