<svg width="102" height="142" viewBox="0 0 102 142" fill="none" xmlns="http://www.w3.org/2000/svg">
<rect width="102" height="102" rx="51" fill="black"/>
<rect x="1" y="1" width="100" height="100" rx="50" stroke="white" stroke-opacity="0.07" stroke-width="2"/>
<g opacity="0.4">
<path d="M59.1038 59.4074H42.219C42.219 59.4074 42.0232 50.1418 45.3212 41.5744C46.8852 37.4988 49.2432 33.5851 52.7861 30.8984L55.6352 34.4873C54.5289 37.6399 54.0674 40.6054 54.0214 43.3047C53.8552 53.0324 59.1038 59.4074 59.1038 59.4074Z" fill="#FFBC50"/>
<path opacity="0.3" d="M51.3892 45.3512C51.3663 44.9309 51.3524 44.5102 51.3477 44.0894C51.3469 44.0026 51.3631 43.9164 51.3956 43.8359C51.4281 43.7554 51.4761 43.682 51.5369 43.6201C51.5977 43.5581 51.6701 43.5087 51.75 43.4747C51.8299 43.4407 51.9157 43.4228 52.0025 43.422C52.3438 43.4151 52.6655 43.7104 52.6699 44.0762C52.6743 44.4829 52.6875 44.8846 52.7096 45.2788C52.7192 45.4539 52.6588 45.6256 52.5418 45.7562C52.4248 45.8868 52.2607 45.9655 52.0856 45.9751C51.9105 45.9847 51.7388 45.9244 51.6082 45.8074C51.4776 45.6904 51.3988 45.5263 51.3892 45.3512ZM53.7856 55.4907C52.7444 53.0836 52.0256 50.5494 51.648 47.9541C51.6343 47.8676 51.6379 47.7793 51.6587 47.6943C51.6794 47.6092 51.7167 47.5292 51.7686 47.4587C51.8205 47.3882 51.8859 47.3287 51.961 47.2837C52.036 47.2387 52.1193 47.209 52.2059 47.1964C52.2925 47.1839 52.3808 47.1886 52.4656 47.2104C52.5503 47.2322 52.6299 47.2706 52.6997 47.3234C52.7696 47.3761 52.8282 47.4423 52.8722 47.5179C52.9163 47.5935 52.9449 47.6772 52.9564 47.7639C53.3173 50.2444 54.0043 52.6664 54.9995 54.9669C55.0351 55.0468 55.0545 55.1329 55.0565 55.2204C55.0586 55.3078 55.0433 55.3948 55.0114 55.4763C54.9796 55.5577 54.932 55.6321 54.8712 55.695C54.8105 55.7579 54.7379 55.8082 54.6576 55.8428C54.5772 55.8775 54.4909 55.8959 54.4034 55.8969C54.316 55.8979 54.2292 55.8816 54.1481 55.8489C54.067 55.8161 53.9932 55.7676 53.9309 55.7061C53.8687 55.6446 53.8193 55.5714 53.7856 55.4907Z" fill="white"/>
<path d="M59.1026 59.4074H42.2178C42.2178 59.4074 42.209 59.0624 42.2216 58.4428C42.2216 58.3635 42.226 58.2804 42.226 58.1935C42.2298 58.106 42.2298 58.0185 42.2342 57.9228C42.3255 54.966 42.8204 48.0703 45.32 41.5744C46.884 37.4988 49.242 33.5851 52.7849 30.8984L53.4586 31.7472C50.4811 34.3671 48.4266 37.9062 47.0207 41.5744C45.9094 44.4632 45.1947 47.4313 44.7351 50.0965C44.0299 54.1847 47.1655 57.9228 51.3141 57.9228H58.0713C58.6783 58.888 59.1026 59.4074 59.1026 59.4074Z" fill="#FFB32C"/>
<path d="M55.6343 34.488C54.528 37.6399 54.0665 40.6054 54.0205 43.3047L51.0096 39.0377L45.3203 41.5744C46.8843 37.4988 49.2423 33.5851 52.7852 30.8984L55.6343 34.488Z" fill="#FFB32C"/>
<path d="M62.5007 62.2577C62.5011 62.6378 62.4263 63.0143 62.2808 63.3655C62.1353 63.7166 61.9218 64.0356 61.6526 64.304C61.3842 64.5733 61.0653 64.7869 60.7141 64.9326C60.3629 65.0782 59.9865 65.153 59.6063 65.1527H41.7147C40.9471 65.1522 40.2111 64.847 39.6684 64.3042C39.1257 63.7614 38.8206 63.0253 38.8203 62.2577C38.8203 61.4593 39.1446 60.7359 39.6684 60.2114C39.9368 59.9422 40.2558 59.7287 40.607 59.5832C40.9581 59.4376 41.3346 59.3629 41.7147 59.3633H59.6063C60.3738 59.3638 61.1097 59.6689 61.6524 60.2116C62.1951 60.7543 62.5002 61.4902 62.5007 62.2577Z" fill="#FFBC50"/>
<path d="M62.3968 63.0141C62.268 63.5026 62.011 63.9477 61.6526 64.3036C61.3842 64.5728 61.0652 64.7863 60.714 64.9318C60.3629 65.0774 59.9864 65.1521 59.6063 65.1517H41.7147C40.9472 65.1512 40.2113 64.8461 39.6686 64.3034C39.1259 63.7607 38.8208 63.0248 38.8203 62.2573C38.8203 61.4589 39.1446 60.7349 39.6684 60.211C40.0243 59.8525 40.4695 59.5956 40.9579 59.4668C40.8873 59.7128 40.8523 59.9677 40.854 60.2236C40.8545 60.9911 41.1596 61.727 41.7023 62.2697C42.245 62.8124 42.9809 63.1175 43.7484 63.118H61.64C61.9019 63.118 62.1563 63.0847 62.3968 63.0141Z" fill="#FFB32C"/>
<path d="M68.3107 83.6041C68.3107 83.8608 68.2601 84.115 68.1618 84.3522C68.0636 84.5893 67.9196 84.8048 67.738 84.9863C67.5565 85.1678 67.3409 85.3117 67.1038 85.4099C66.8666 85.5081 66.6124 85.5586 66.3557 85.5585H34.9642C34.452 85.5493 33.964 85.3394 33.605 84.9739C33.246 84.6085 33.0449 84.1167 33.0449 83.6044C33.0449 83.0922 33.246 82.6004 33.605 82.235C33.964 81.8695 34.452 81.6596 34.9642 81.6504H66.3557C66.8739 81.6504 67.3709 81.8562 67.7374 82.2226C68.1039 82.589 68.3105 83.0859 68.3107 83.6041Z" fill="#24272B"/>
<path d="M68.2319 84.1343C68.1175 84.5442 67.872 84.9053 67.5329 85.1625C67.1939 85.4197 66.7799 85.5588 66.3544 85.5585H34.9661C34.4478 85.5585 33.9507 85.3526 33.5841 84.9861C33.2176 84.6195 33.0117 84.1225 33.0117 83.6041C33.0117 83.0614 33.2289 82.5759 33.5866 82.2246C33.8164 81.9885 34.1035 81.8153 34.4296 81.7266C34.3778 81.8985 34.3519 82.0772 34.3528 82.2567C34.353 82.7749 34.559 83.2719 34.9255 83.6382C35.292 84.0046 35.789 84.2105 36.3072 84.2105H67.7018C67.8869 84.2105 68.0657 84.1853 68.2319 84.1343Z" fill="#13181E"/>
<path d="M66.644 68.0329V81.6518H34.6777V68.0329C34.6777 67.269 34.9811 66.5365 35.5212 65.9963C36.0613 65.4561 36.7938 65.1525 37.5577 65.1523H63.7641C64.528 65.1525 65.2605 65.4561 65.8006 65.9963C66.3406 66.5365 66.644 67.269 66.644 68.0329Z" fill="#24272B"/>
<path d="M39.418 76.4249V70.3785C39.418 69.7911 39.894 69.3145 40.482 69.3145H60.838C61.4254 69.3145 61.902 69.7911 61.902 70.3785V76.4249C61.9019 76.707 61.7897 76.9775 61.5902 77.1769C61.3906 77.3763 61.1201 77.4883 60.838 77.4883H40.482C40.1998 77.4883 39.9292 77.3762 39.7296 77.1766C39.5301 76.9771 39.418 76.7071 39.418 76.4249Z" fill="white"/>
<path d="M44.8391 71.9776C44.8391 71.6137 44.5445 71.3184 44.1799 71.3184H41.5204C41.1571 71.3184 40.8555 71.6143 40.8555 71.9776C40.8555 72.3415 41.1571 72.6368 41.5204 72.6368H44.1799C44.5445 72.6368 44.8391 72.3421 44.8391 71.9776ZM59.8054 71.3184H47.4527C47.2779 71.3184 47.1102 71.3878 46.9866 71.5114C46.863 71.6351 46.7935 71.8027 46.7935 71.9776C46.7935 72.1524 46.863 72.3201 46.9866 72.4437C47.1102 72.5673 47.2779 72.6368 47.4527 72.6368H59.8042C59.974 72.6294 60.1345 72.5567 60.252 72.4339C60.3696 72.311 60.4352 72.1476 60.4352 71.9776C60.4352 71.8076 60.3696 71.6441 60.252 71.5213C60.1345 71.3985 59.974 71.3258 59.8042 71.3184H59.8054ZM54.7325 74.8248C54.7325 74.4608 54.4366 74.1655 54.0727 74.1655H41.5204C41.1571 74.1655 40.8555 74.4615 40.8555 74.8248C40.8555 75.1881 41.1571 75.484 41.5204 75.484H54.0727C54.4372 75.484 54.7325 75.1893 54.7325 74.8248ZM59.8048 74.1655H57.0256C56.8508 74.1655 56.6831 74.235 56.5595 74.3586C56.4358 74.4823 56.3664 74.6499 56.3664 74.8248C56.3664 74.9996 56.4358 75.1673 56.5595 75.2909C56.6831 75.4145 56.8508 75.484 57.0256 75.484H59.8048C59.9747 75.4766 60.1351 75.4039 60.2526 75.281C60.3702 75.1582 60.4358 74.9948 60.4358 74.8248C60.4358 74.6548 60.3702 74.4913 60.2526 74.3685C60.1351 74.2457 59.9747 74.173 59.8048 74.1655Z" fill="#E5F5F9"/>
<path d="M66.6379 80.3033V81.6495H34.6816V67.8889C34.703 67.4275 34.8361 66.9781 35.0693 66.5793C35.3026 66.1806 35.6291 65.8444 36.0209 65.5996V76.5803C36.0209 77.5676 36.413 78.5145 37.1111 79.2127C37.8091 79.9109 38.7559 80.3032 39.7432 80.3033H66.6379Z" fill="#13181E"/>
<path opacity="0.3" d="M59.3136 67.1075C59.3143 67.3109 59.2343 67.5063 59.0911 67.6507C58.9479 67.7952 58.7533 67.877 58.5499 67.8782H57.1521C57.0509 67.8782 56.9507 67.8584 56.8572 67.8197C56.7637 67.7809 56.6787 67.7242 56.6072 67.6526C56.5357 67.581 56.479 67.496 56.4403 67.4025C56.4017 67.3089 56.3819 67.2087 56.3821 67.1075C56.3821 66.685 56.7227 66.3438 57.1521 66.3438H58.5499C58.6502 66.3435 58.7497 66.3631 58.8424 66.4014C58.9352 66.4397 59.0195 66.4959 59.0905 66.5669C59.1614 66.6379 59.2177 66.7222 59.256 66.8149C59.2943 66.9077 59.3139 67.0071 59.3136 67.1075ZM55.25 67.1075C55.2507 67.3109 55.1706 67.5063 55.0275 67.6507C54.8843 67.7952 54.6896 67.877 54.4862 67.8782H39.5684C39.365 67.877 39.1704 67.7952 39.0272 67.6507C38.884 67.5063 38.804 67.3109 38.8047 67.1075C38.8044 67.0071 38.824 66.9077 38.8623 66.8149C38.9006 66.7222 38.9569 66.6379 39.0278 66.5669C39.0988 66.4959 39.1831 66.4397 39.2759 66.4014C39.3686 66.3631 39.4681 66.3435 39.5684 66.3438H54.4862C54.5866 66.3435 54.686 66.3631 54.7788 66.4014C54.8716 66.4397 54.9559 66.4959 55.0268 66.5669C55.0978 66.6379 55.1541 66.7222 55.1924 66.8149C55.2307 66.9077 55.2502 67.0071 55.25 67.1075ZM65.0502 83.3513C65.0502 83.7977 64.69 84.1648 64.2442 84.1648H53.9756C53.5286 84.1648 53.1691 83.7977 53.1691 83.3513C53.1691 82.9043 53.5292 82.5448 53.975 82.5448H64.243C64.69 82.5448 65.0495 82.9049 65.0495 83.3507L65.0502 83.3513Z" fill="white"/>
<path d="M53.0655 30.4225L47.718 32.739L45.9236 30.743L45.4023 30.1701C45.4023 30.1619 45.3947 30.1549 45.3871 30.1474L37.2693 21.1349C37.1216 20.9771 37.0328 20.7732 37.0179 20.5576C37.003 20.342 37.0629 20.1278 37.1875 19.9512L53.0655 30.4225Z" fill="#FFBC50"/>
<path d="M53.0951 24.5905L53.0655 30.4215L37.1875 19.9507C37.4035 19.6152 37.8058 19.4067 38.2673 19.5415C38.2724 19.5415 38.3076 19.556 38.312 19.556L49.7889 23.466H49.7965L50.5482 23.7266L53.0951 24.5905Z" fill="#FFB32C"/>
<path d="M53.6246 36.2164L51.1671 37.3113L50.4368 37.6387L39.3553 42.5762C38.9013 42.7777 38.4543 42.614 38.2012 42.2929L53.0667 30.4219L53.6246 36.2164Z" fill="#FFBC50"/>
<path d="M53.0648 30.4214L38.1992 42.2931C38.0581 42.1277 37.9788 41.9185 37.9748 41.7011C37.9708 41.4837 38.0423 41.2717 38.1772 41.1012L45.4463 31.3823C45.4539 31.374 45.459 31.3637 45.4608 31.3527L45.9229 30.7419L47.5316 28.5898L53.0648 30.4214Z" fill="#FFB32C"/>
<path d="M60.3871 47.2166C60.4469 47.7159 60.1416 48.088 59.7619 48.2297L53.0664 30.4219L58.7564 31.6811L59.0397 34.3545L59.114 35.0547C59.114 35.0843 59.1216 35.1214 59.1216 35.151L60.3871 47.2166Z" fill="#FFBC50"/>
<path d="M59.7599 48.2291C59.3802 48.3707 58.9187 48.2889 58.6284 47.8865C58.6209 47.8865 58.6209 47.879 58.6209 47.879L51.6276 37.9661L51.1661 37.3113L49.6172 35.1139L53.065 30.4219L59.7599 48.2291Z" fill="#FFB32C"/>
<path d="M72.0724 29.5589L53.0664 30.4215L56.0231 25.3945L58.6519 25.953L59.4339 26.1167L71.3055 28.6415C71.32 28.6415 71.3351 28.6491 71.3427 28.6491C71.3502 28.6491 71.3578 28.6566 71.3647 28.6566C71.5653 28.7081 71.7434 28.8243 71.8713 28.9872C71.9992 29.15 72.0699 29.3505 72.0724 29.5576V29.5589Z" fill="#FFBC50"/>
<path d="M72.0724 29.5592C72.0848 29.7643 72.0306 29.9679 71.9178 30.1396C71.805 30.3113 71.6397 30.4418 71.4466 30.5119L71.4396 30.5194C71.4321 30.5194 71.4245 30.527 71.417 30.527C71.4094 30.527 71.4019 30.5345 71.3949 30.5345H71.3874L59.8066 34.1171C59.799 34.1171 59.7915 34.124 59.7839 34.124L59.7764 34.1316L59.0397 34.3551L56.4702 35.1516L53.0664 30.4231L72.0724 29.5586V29.5592Z" fill="#FFB32C"/>
<path d="M58.1144 12.0717L53.0648 30.4223L49.207 26.0508L50.5481 23.7274L50.9272 23.0644C50.9347 23.0569 50.9423 23.0424 50.9498 23.0348L57.0044 12.5263C57.1807 12.175 57.639 11.9414 58.1144 12.0717Z" fill="#FFBC50"/>
<path d="M58.8307 13.0255L58.6594 25.1503V25.1881L58.6519 25.9543L58.6147 28.6429L53.0664 30.4228L58.116 12.0723C58.5177 12.1887 58.8307 12.53 58.8307 13.0255Z" fill="#FFB32C"/>
<path opacity="0.3" d="M60.2451 61.6321C60.2451 62.0791 59.8856 62.4462 59.4392 62.4462H49.1712C48.7248 62.4462 48.3652 62.0785 48.3652 61.6321C48.3652 61.1857 48.7248 60.8262 49.1712 60.8262H59.4392C59.8856 60.8262 60.2451 61.1857 60.2451 61.6321Z" fill="white"/>
<g style="mix-blend-mode:saturation">
<mask id="mask0_233_5" style="mask-type:alpha" maskUnits="userSpaceOnUse" x="33" y="12" width="40" height="74">
<path d="M59.1038 59.4074H42.219C42.219 59.4074 42.0232 50.1418 45.3212 41.5744C46.8852 37.4988 49.2432 33.5851 52.7861 30.8984L55.6352 34.4873C54.5289 37.6399 54.0674 40.6054 54.0214 43.3047C53.8552 53.0324 59.1038 59.4074 59.1038 59.4074Z" fill="#FFBC50"/>
<path opacity="0.3" d="M51.3892 45.3512C51.3663 44.9309 51.3524 44.5102 51.3477 44.0894C51.3469 44.0026 51.3631 43.9164 51.3956 43.8359C51.4281 43.7554 51.4761 43.682 51.5369 43.6201C51.5977 43.5581 51.6701 43.5087 51.75 43.4747C51.8299 43.4407 51.9157 43.4228 52.0025 43.422C52.3438 43.4151 52.6655 43.7104 52.6699 44.0762C52.6743 44.4829 52.6875 44.8846 52.7096 45.2788C52.7192 45.4539 52.6588 45.6256 52.5418 45.7562C52.4248 45.8868 52.2607 45.9655 52.0856 45.9751C51.9105 45.9847 51.7388 45.9244 51.6082 45.8074C51.4776 45.6904 51.3988 45.5263 51.3892 45.3512ZM53.7856 55.4907C52.7444 53.0836 52.0256 50.5494 51.648 47.9541C51.6343 47.8676 51.6379 47.7793 51.6587 47.6943C51.6794 47.6092 51.7167 47.5292 51.7686 47.4587C51.8205 47.3882 51.8859 47.3287 51.961 47.2837C52.036 47.2387 52.1193 47.209 52.2059 47.1964C52.2925 47.1839 52.3808 47.1886 52.4656 47.2104C52.5503 47.2322 52.6299 47.2706 52.6997 47.3234C52.7696 47.3761 52.8282 47.4423 52.8722 47.5179C52.9163 47.5935 52.9449 47.6772 52.9564 47.7639C53.3173 50.2444 54.0043 52.6664 54.9995 54.9669C55.0351 55.0468 55.0545 55.1329 55.0565 55.2204C55.0586 55.3078 55.0433 55.3948 55.0114 55.4763C54.9796 55.5577 54.932 55.6321 54.8712 55.695C54.8105 55.7579 54.7379 55.8082 54.6576 55.8428C54.5772 55.8775 54.4909 55.8959 54.4034 55.8969C54.316 55.8979 54.2292 55.8816 54.1481 55.8489C54.067 55.8161 53.9932 55.7676 53.9309 55.7061C53.8687 55.6446 53.8193 55.5714 53.7856 55.4907Z" fill="white"/>
<path d="M59.1026 59.4074H42.2178C42.2178 59.4074 42.209 59.0624 42.2216 58.4428C42.2216 58.3635 42.226 58.2804 42.226 58.1935C42.2298 58.106 42.2298 58.0185 42.2342 57.9228C42.3255 54.966 42.8204 48.0703 45.32 41.5744C46.884 37.4988 49.242 33.5851 52.7849 30.8984L53.4586 31.7472C50.4811 34.3671 48.4266 37.9062 47.0207 41.5744C45.9094 44.4632 45.1947 47.4313 44.7351 50.0965C44.0299 54.1847 47.1655 57.9228 51.3141 57.9228H58.0713C58.6783 58.888 59.1026 59.4074 59.1026 59.4074Z" fill="#FFB32C"/>
<path d="M55.6343 34.488C54.528 37.6399 54.0665 40.6054 54.0205 43.3047L51.0096 39.0377L45.3203 41.5744C46.8843 37.4988 49.2423 33.5851 52.7852 30.8984L55.6343 34.488Z" fill="#FFB32C"/>
<path d="M62.5007 62.2577C62.5011 62.6378 62.4263 63.0143 62.2808 63.3655C62.1353 63.7166 61.9218 64.0356 61.6526 64.304C61.3842 64.5733 61.0653 64.7869 60.7141 64.9326C60.3629 65.0782 59.9865 65.153 59.6063 65.1527H41.7147C40.9471 65.1522 40.2111 64.847 39.6684 64.3042C39.1257 63.7614 38.8206 63.0253 38.8203 62.2577C38.8203 61.4593 39.1446 60.7359 39.6684 60.2114C39.9368 59.9422 40.2558 59.7287 40.607 59.5832C40.9581 59.4376 41.3346 59.3629 41.7147 59.3633H59.6063C60.3738 59.3638 61.1097 59.6689 61.6524 60.2116C62.1951 60.7543 62.5002 61.4902 62.5007 62.2577Z" fill="#FFBC50"/>
<path d="M62.3968 63.0141C62.268 63.5026 62.011 63.9477 61.6526 64.3036C61.3842 64.5728 61.0652 64.7863 60.714 64.9318C60.3629 65.0774 59.9864 65.1521 59.6063 65.1517H41.7147C40.9472 65.1512 40.2113 64.8461 39.6686 64.3034C39.1259 63.7607 38.8208 63.0248 38.8203 62.2573C38.8203 61.4589 39.1446 60.7349 39.6684 60.211C40.0243 59.8525 40.4695 59.5956 40.9579 59.4668C40.8873 59.7128 40.8523 59.9677 40.854 60.2236C40.8545 60.9911 41.1596 61.727 41.7023 62.2697C42.245 62.8124 42.9809 63.1175 43.7484 63.118H61.64C61.9019 63.118 62.1563 63.0847 62.3968 63.0141Z" fill="#FFB32C"/>
<path d="M68.3107 83.6041C68.3107 83.8608 68.2601 84.115 68.1618 84.3522C68.0636 84.5893 67.9196 84.8048 67.738 84.9863C67.5565 85.1678 67.3409 85.3117 67.1038 85.4099C66.8666 85.5081 66.6124 85.5586 66.3557 85.5585H34.9642C34.452 85.5493 33.964 85.3394 33.605 84.9739C33.246 84.6085 33.0449 84.1167 33.0449 83.6044C33.0449 83.0922 33.246 82.6004 33.605 82.235C33.964 81.8695 34.452 81.6596 34.9642 81.6504H66.3557C66.8739 81.6504 67.3709 81.8562 67.7374 82.2226C68.1039 82.589 68.3105 83.0859 68.3107 83.6041Z" fill="#24272B"/>
<path d="M68.2319 84.1343C68.1175 84.5442 67.872 84.9053 67.5329 85.1625C67.1939 85.4197 66.7799 85.5588 66.3544 85.5585H34.9661C34.4478 85.5585 33.9507 85.3526 33.5841 84.9861C33.2176 84.6195 33.0117 84.1225 33.0117 83.6041C33.0117 83.0614 33.2289 82.5759 33.5866 82.2246C33.8164 81.9885 34.1035 81.8153 34.4296 81.7266C34.3778 81.8985 34.3519 82.0772 34.3528 82.2567C34.353 82.7749 34.559 83.2719 34.9255 83.6382C35.292 84.0046 35.789 84.2105 36.3072 84.2105H67.7018C67.8869 84.2105 68.0657 84.1853 68.2319 84.1343Z" fill="#13181E"/>
<path d="M66.644 68.0329V81.6518H34.6777V68.0329C34.6777 67.269 34.9811 66.5365 35.5212 65.9963C36.0613 65.4561 36.7938 65.1525 37.5577 65.1523H63.7641C64.528 65.1525 65.2605 65.4561 65.8006 65.9963C66.3406 66.5365 66.644 67.269 66.644 68.0329Z" fill="#24272B"/>
<path d="M39.418 76.4249V70.3785C39.418 69.7911 39.894 69.3145 40.482 69.3145H60.838C61.4254 69.3145 61.902 69.7911 61.902 70.3785V76.4249C61.9019 76.707 61.7897 76.9775 61.5902 77.1769C61.3906 77.3763 61.1201 77.4883 60.838 77.4883H40.482C40.1998 77.4883 39.9292 77.3762 39.7296 77.1766C39.5301 76.9771 39.418 76.7071 39.418 76.4249Z" fill="white"/>
<path d="M44.8391 71.9776C44.8391 71.6137 44.5445 71.3184 44.1799 71.3184H41.5204C41.1571 71.3184 40.8555 71.6143 40.8555 71.9776C40.8555 72.3415 41.1571 72.6368 41.5204 72.6368H44.1799C44.5445 72.6368 44.8391 72.3421 44.8391 71.9776ZM59.8054 71.3184H47.4527C47.2779 71.3184 47.1102 71.3878 46.9866 71.5114C46.863 71.6351 46.7935 71.8027 46.7935 71.9776C46.7935 72.1524 46.863 72.3201 46.9866 72.4437C47.1102 72.5673 47.2779 72.6368 47.4527 72.6368H59.8042C59.974 72.6294 60.1345 72.5567 60.252 72.4339C60.3696 72.311 60.4352 72.1476 60.4352 71.9776C60.4352 71.8076 60.3696 71.6441 60.252 71.5213C60.1345 71.3985 59.974 71.3258 59.8042 71.3184H59.8054ZM54.7325 74.8248C54.7325 74.4608 54.4366 74.1655 54.0727 74.1655H41.5204C41.1571 74.1655 40.8555 74.4615 40.8555 74.8248C40.8555 75.1881 41.1571 75.484 41.5204 75.484H54.0727C54.4372 75.484 54.7325 75.1893 54.7325 74.8248ZM59.8048 74.1655H57.0256C56.8508 74.1655 56.6831 74.235 56.5595 74.3586C56.4358 74.4823 56.3664 74.6499 56.3664 74.8248C56.3664 74.9996 56.4358 75.1673 56.5595 75.2909C56.6831 75.4145 56.8508 75.484 57.0256 75.484H59.8048C59.9747 75.4766 60.1351 75.4039 60.2526 75.281C60.3702 75.1582 60.4358 74.9948 60.4358 74.8248C60.4358 74.6548 60.3702 74.4913 60.2526 74.3685C60.1351 74.2457 59.9747 74.173 59.8048 74.1655Z" fill="#E5F5F9"/>
<path d="M66.6379 80.3033V81.6495H34.6816V67.8889C34.703 67.4275 34.8361 66.9781 35.0693 66.5793C35.3026 66.1806 35.6291 65.8444 36.0209 65.5996V76.5803C36.0209 77.5676 36.413 78.5145 37.1111 79.2127C37.8091 79.9109 38.7559 80.3032 39.7432 80.3033H66.6379Z" fill="#13181E"/>
<path opacity="0.3" d="M59.3136 67.1075C59.3143 67.3109 59.2343 67.5063 59.0911 67.6507C58.9479 67.7952 58.7533 67.877 58.5499 67.8782H57.1521C57.0509 67.8782 56.9507 67.8584 56.8572 67.8197C56.7637 67.7809 56.6787 67.7242 56.6072 67.6526C56.5357 67.581 56.479 67.496 56.4403 67.4025C56.4017 67.3089 56.3819 67.2087 56.3821 67.1075C56.3821 66.685 56.7227 66.3438 57.1521 66.3438H58.5499C58.6502 66.3435 58.7497 66.3631 58.8424 66.4014C58.9352 66.4397 59.0195 66.4959 59.0905 66.5669C59.1614 66.6379 59.2177 66.7222 59.256 66.8149C59.2943 66.9077 59.3139 67.0071 59.3136 67.1075ZM55.25 67.1075C55.2507 67.3109 55.1706 67.5063 55.0275 67.6507C54.8843 67.7952 54.6896 67.877 54.4862 67.8782H39.5684C39.365 67.877 39.1704 67.7952 39.0272 67.6507C38.884 67.5063 38.804 67.3109 38.8047 67.1075C38.8044 67.0071 38.824 66.9077 38.8623 66.8149C38.9006 66.7222 38.9569 66.6379 39.0278 66.5669C39.0988 66.4959 39.1831 66.4397 39.2759 66.4014C39.3686 66.3631 39.4681 66.3435 39.5684 66.3438H54.4862C54.5866 66.3435 54.686 66.3631 54.7788 66.4014C54.8716 66.4397 54.9559 66.4959 55.0268 66.5669C55.0978 66.6379 55.1541 66.7222 55.1924 66.8149C55.2307 66.9077 55.2502 67.0071 55.25 67.1075ZM65.0502 83.3513C65.0502 83.7977 64.69 84.1648 64.2442 84.1648H53.9756C53.5286 84.1648 53.1691 83.7977 53.1691 83.3513C53.1691 82.9043 53.5292 82.5448 53.975 82.5448H64.243C64.69 82.5448 65.0495 82.9049 65.0495 83.3507L65.0502 83.3513Z" fill="white"/>
<path d="M53.0655 30.4225L47.718 32.739L45.9236 30.743L45.4023 30.1701C45.4023 30.1619 45.3947 30.1549 45.3871 30.1474L37.2693 21.1349C37.1216 20.9771 37.0328 20.7732 37.0179 20.5576C37.003 20.342 37.0629 20.1278 37.1875 19.9512L53.0655 30.4225Z" fill="#FFBC50"/>
<path d="M53.0951 24.5905L53.0655 30.4215L37.1875 19.9507C37.4035 19.6152 37.8058 19.4067 38.2673 19.5415C38.2724 19.5415 38.3076 19.556 38.312 19.556L49.7889 23.466H49.7965L50.5482 23.7266L53.0951 24.5905Z" fill="#FFB32C"/>
<path d="M53.6246 36.2164L51.1671 37.3113L50.4368 37.6387L39.3553 42.5762C38.9013 42.7777 38.4543 42.614 38.2012 42.2929L53.0667 30.4219L53.6246 36.2164Z" fill="#FFBC50"/>
<path d="M53.0648 30.4214L38.1992 42.2931C38.0581 42.1277 37.9788 41.9185 37.9748 41.7011C37.9708 41.4837 38.0423 41.2717 38.1772 41.1012L45.4463 31.3823C45.4539 31.374 45.459 31.3637 45.4608 31.3527L45.9229 30.7419L47.5316 28.5898L53.0648 30.4214Z" fill="#FFB32C"/>
<path d="M60.3871 47.2166C60.4469 47.7159 60.1416 48.088 59.7619 48.2297L53.0664 30.4219L58.7564 31.6811L59.0397 34.3545L59.114 35.0547C59.114 35.0843 59.1216 35.1214 59.1216 35.151L60.3871 47.2166Z" fill="#FFBC50"/>
<path d="M59.7599 48.2291C59.3802 48.3707 58.9187 48.2889 58.6284 47.8865C58.6209 47.8865 58.6209 47.879 58.6209 47.879L51.6276 37.9661L51.1661 37.3113L49.6172 35.1139L53.065 30.4219L59.7599 48.2291Z" fill="#FFB32C"/>
<path d="M72.0724 29.5589L53.0664 30.4215L56.0231 25.3945L58.6519 25.953L59.4339 26.1167L71.3055 28.6415C71.32 28.6415 71.3351 28.6491 71.3427 28.6491C71.3502 28.6491 71.3578 28.6566 71.3647 28.6566C71.5653 28.7081 71.7434 28.8243 71.8713 28.9872C71.9992 29.15 72.0699 29.3505 72.0724 29.5576V29.5589Z" fill="#FFBC50"/>
<path d="M72.0724 29.5592C72.0848 29.7643 72.0306 29.9679 71.9178 30.1396C71.805 30.3113 71.6397 30.4418 71.4466 30.5119L71.4396 30.5194C71.4321 30.5194 71.4245 30.527 71.417 30.527C71.4094 30.527 71.4019 30.5345 71.3949 30.5345H71.3874L59.8066 34.1171C59.799 34.1171 59.7915 34.124 59.7839 34.124L59.7764 34.1316L59.0397 34.3551L56.4702 35.1516L53.0664 30.4231L72.0724 29.5586V29.5592Z" fill="#FFB32C"/>
<path d="M58.1144 12.0717L53.0648 30.4223L49.207 26.0508L50.5481 23.7274L50.9272 23.0644C50.9347 23.0569 50.9423 23.0424 50.9498 23.0348L57.0044 12.5263C57.1807 12.175 57.639 11.9414 58.1144 12.0717Z" fill="#FFBC50"/>
<path d="M58.8307 13.0255L58.6594 25.1503V25.1881L58.6519 25.9543L58.6147 28.6429L53.0664 30.4228L58.116 12.0723C58.5177 12.1887 58.8307 12.53 58.8307 13.0255Z" fill="#FFB32C"/>
<path opacity="0.3" d="M60.2451 61.6321C60.2451 62.0791 59.8856 62.4462 59.4392 62.4462H49.1712C48.7248 62.4462 48.3652 62.0785 48.3652 61.6321C48.3652 61.1857 48.7248 60.8262 49.1712 60.8262H59.4392C59.8856 60.8262 60.2451 61.1857 60.2451 61.6321Z" fill="white"/>
</mask>
<g mask="url(#mask0_233_5)">
<rect x="2" width="100" height="100" fill="black"/>
</g>
</g>
</g>
<path d="M31.198 123.168C30.222 123.168 29.442 122.892 28.858 122.34C28.282 121.78 27.994 120.94 27.994 119.82V117.78C27.994 116.684 28.282 115.852 28.858 115.284C29.442 114.716 30.222 114.432 31.198 114.432C32.182 114.432 32.962 114.716 33.538 115.284C34.122 115.852 34.414 116.684 34.414 117.78V119.82C34.414 120.94 34.122 121.78 33.538 122.34C32.962 122.892 32.182 123.168 31.198 123.168ZM31.198 122.04C31.862 122.04 32.354 121.852 32.674 121.476C32.994 121.092 33.154 120.556 33.154 119.868V117.708C33.154 117.02 32.982 116.492 32.638 116.124C32.294 115.748 31.814 115.56 31.198 115.56C30.574 115.56 30.094 115.752 29.758 116.136C29.422 116.512 29.254 117.036 29.254 117.708V119.868C29.254 120.572 29.414 121.112 29.734 121.488C30.062 121.856 30.55 122.04 31.198 122.04ZM39.003 123V114.6H42.339C42.851 114.6 43.307 114.704 43.707 114.912C44.115 115.112 44.431 115.4 44.655 115.776C44.887 116.144 45.003 116.588 45.003 117.108V117.264C45.003 117.784 44.883 118.232 44.643 118.608C44.411 118.984 44.095 119.272 43.695 119.472C43.295 119.672 42.843 119.772 42.339 119.772H40.299V123H39.003ZM40.299 118.596H42.207C42.663 118.596 43.027 118.476 43.299 118.236C43.571 117.996 43.707 117.668 43.707 117.252V117.132C43.707 116.708 43.571 116.376 43.299 116.136C43.027 115.896 42.663 115.776 42.207 115.776H40.299V118.596ZM48.8774 123.168C48.2854 123.168 47.7574 123.048 47.2934 122.808C46.8374 122.56 46.4774 122.208 46.2134 121.752C45.9494 121.296 45.8174 120.756 45.8174 120.132V119.952C45.8174 119.328 45.9494 118.792 46.2134 118.344C46.4774 117.888 46.8374 117.536 47.2934 117.288C47.7574 117.04 48.2854 116.916 48.8774 116.916C49.4694 116.916 49.9974 117.04 50.4614 117.288C50.9254 117.536 51.2894 117.888 51.5534 118.344C51.8174 118.792 51.9494 119.328 51.9494 119.952V120.132C51.9494 120.756 51.8174 121.296 51.5534 121.752C51.2894 122.208 50.9254 122.56 50.4614 122.808C49.9974 123.048 49.4694 123.168 48.8774 123.168ZM48.8774 122.064C49.4214 122.064 49.8614 121.892 50.1974 121.548C50.5414 121.196 50.7134 120.712 50.7134 120.096V119.988C50.7134 119.372 50.5454 118.892 50.2094 118.548C49.8734 118.196 49.4294 118.02 48.8774 118.02C48.3414 118.02 47.9014 118.196 47.5574 118.548C47.2214 118.892 47.0534 119.372 47.0534 119.988V120.096C47.0534 120.712 47.2214 121.196 47.5574 121.548C47.9014 121.892 48.3414 122.064 48.8774 122.064ZM53.4882 123V117.084H54.7242V123H53.4882ZM54.1122 116.28C53.8722 116.28 53.6682 116.204 53.5002 116.052C53.3402 115.892 53.2602 115.688 53.2602 115.44C53.2602 115.192 53.3402 114.992 53.5002 114.84C53.6682 114.68 53.8722 114.6 54.1122 114.6C54.3602 114.6 54.5642 114.68 54.7242 114.84C54.8842 114.992 54.9642 115.192 54.9642 115.44C54.9642 115.688 54.8842 115.892 54.7242 116.052C54.5642 116.204 54.3602 116.28 54.1122 116.28ZM56.5585 123V117.084H57.7705V117.972H57.9625C58.0745 117.732 58.2745 117.508 58.5625 117.3C58.8505 117.092 59.2785 116.988 59.8465 116.988C60.2945 116.988 60.6905 117.088 61.0345 117.288C61.3865 117.488 61.6625 117.772 61.8625 118.14C62.0625 118.5 62.1625 118.936 62.1625 119.448V123H60.9265V119.544C60.9265 119.032 60.7985 118.656 60.5425 118.416C60.2865 118.168 59.9345 118.044 59.4865 118.044C58.9745 118.044 58.5625 118.212 58.2505 118.548C57.9465 118.884 57.7945 119.372 57.7945 120.012V123H56.5585ZM65.9972 123C65.6372 123 65.3492 122.892 65.1332 122.676C64.9252 122.46 64.8212 122.172 64.8212 121.812V118.128H63.1892V117.084H64.8212V115.128H66.0572V117.084H67.8212V118.128H66.0572V121.596C66.0572 121.836 66.1692 121.956 66.3932 121.956H67.6292V123H65.9972ZM71.6973 123.168C70.9453 123.168 70.3213 123 69.8253 122.664C69.3293 122.328 69.0253 121.82 68.9133 121.14L70.0653 120.864C70.1293 121.192 70.2373 121.452 70.3893 121.644C70.5413 121.836 70.7293 121.972 70.9533 122.052C71.1853 122.132 71.4333 122.172 71.6973 122.172C72.0893 122.172 72.3893 122.096 72.5973 121.944C72.8133 121.792 72.9213 121.596 72.9213 121.356C72.9213 121.116 72.8213 120.94 72.6213 120.828C72.4213 120.716 72.1253 120.624 71.7333 120.552L71.3253 120.48C70.9253 120.408 70.5613 120.304 70.2333 120.168C69.9053 120.032 69.6453 119.844 69.4533 119.604C69.2613 119.364 69.1653 119.056 69.1653 118.68C69.1653 118.12 69.3733 117.688 69.7893 117.384C70.2053 117.072 70.7573 116.916 71.4453 116.916C72.1093 116.916 72.6533 117.068 73.0773 117.372C73.5093 117.668 73.7893 118.072 73.9173 118.584L72.7653 118.908C72.6933 118.548 72.5413 118.296 72.3093 118.152C72.0773 118 71.7893 117.924 71.4453 117.924C71.1093 117.924 70.8453 117.988 70.6533 118.116C70.4613 118.236 70.3653 118.408 70.3653 118.632C70.3653 118.872 70.4573 119.048 70.6413 119.16C70.8333 119.272 71.0893 119.356 71.4093 119.412L71.8293 119.484C72.2533 119.556 72.6413 119.656 72.9933 119.784C73.3453 119.912 73.6213 120.096 73.8213 120.336C74.0293 120.576 74.1333 120.896 74.1333 121.296C74.1333 121.888 73.9133 122.348 73.4733 122.676C73.0333 123.004 72.4413 123.168 71.6973 123.168Z" fill="white"/>
<path d="M25.5811 140V131.6H27.5011L29.7331 139.364H29.8891L32.1211 131.6H34.0411V140H33.0691V132.26H32.9011L30.6811 140H28.9411L26.7211 132.26H26.5531V140H25.5811ZM37.7999 140.168C37.3919 140.168 37.0199 140.096 36.6839 139.952C36.3479 139.808 36.0839 139.6 35.8919 139.328C35.6999 139.056 35.6039 138.724 35.6039 138.332C35.6039 137.932 35.6999 137.604 35.8919 137.348C36.0839 137.084 36.3479 136.888 36.6839 136.76C37.0199 136.624 37.3959 136.556 37.8119 136.556H39.7919V136.124C39.7919 135.708 39.6679 135.38 39.4199 135.14C39.1799 134.9 38.8199 134.78 38.3399 134.78C37.8679 134.78 37.4999 134.896 37.2359 135.128C36.9719 135.352 36.7919 135.656 36.6959 136.04L35.8079 135.752C35.9039 135.424 36.0559 135.128 36.2639 134.864C36.4719 134.592 36.7479 134.376 37.0919 134.216C37.4439 134.048 37.8639 133.964 38.3519 133.964C39.1039 133.964 39.6879 134.16 40.1039 134.552C40.5199 134.936 40.7279 135.48 40.7279 136.184V138.836C40.7279 139.076 40.8399 139.196 41.0639 139.196H41.6039V140H40.7759C40.5119 140 40.2999 139.928 40.1399 139.784C39.9799 139.632 39.8999 139.432 39.8999 139.184V139.124H39.7559C39.6679 139.276 39.5479 139.436 39.3959 139.604C39.2519 139.764 39.0519 139.896 38.7959 140C38.5399 140.112 38.2079 140.168 37.7999 140.168ZM37.9079 139.352C38.4679 139.352 38.9199 139.188 39.2639 138.86C39.6159 138.524 39.7919 138.056 39.7919 137.456V137.324H37.8479C37.4719 137.324 37.1599 137.408 36.9119 137.576C36.6719 137.736 36.5519 137.98 36.5519 138.308C36.5519 138.636 36.6759 138.892 36.9239 139.076C37.1799 139.26 37.5079 139.352 37.9079 139.352ZM42.4223 140L44.7743 137.024L42.4943 134.132H43.6343L45.3863 136.4H45.5543L47.2943 134.132H48.4463L46.1543 137.024L48.5063 140H47.3543L45.5543 137.66H45.3863L43.5863 140H42.4223ZM50.5315 140.168C50.2995 140.168 50.1035 140.092 49.9435 139.94C49.7915 139.788 49.7155 139.592 49.7155 139.352C49.7155 139.112 49.7915 138.916 49.9435 138.764C50.1035 138.612 50.2995 138.536 50.5315 138.536C50.7715 138.536 50.9675 138.612 51.1195 138.764C51.2715 138.916 51.3475 139.112 51.3475 139.352C51.3475 139.592 51.2715 139.788 51.1195 139.94C50.9675 140.092 50.7715 140.168 50.5315 140.168ZM50.5315 135.596C50.2995 135.596 50.1035 135.52 49.9435 135.368C49.7915 135.216 49.7155 135.02 49.7155 134.78C49.7155 134.54 49.7915 134.344 49.9435 134.192C50.1035 134.04 50.2995 133.964 50.5315 133.964C50.7715 133.964 50.9675 134.04 51.1195 134.192C51.2715 134.344 51.3475 134.54 51.3475 134.78C51.3475 135.02 51.2715 135.216 51.1195 135.368C50.9675 135.52 50.7715 135.596 50.5315 135.596ZM55.7727 140V139.124C55.7727 138.524 55.8767 138.044 56.0847 137.684C56.3007 137.324 56.5967 137.036 56.9727 136.82C57.3567 136.596 57.8127 136.404 58.3407 136.244L59.0007 136.04C59.3607 135.928 59.6767 135.792 59.9487 135.632C60.2207 135.464 60.4327 135.256 60.5847 135.008C60.7367 134.752 60.8127 134.44 60.8127 134.072V134.024C60.8127 133.496 60.6287 133.08 60.2607 132.776C59.8927 132.464 59.4207 132.308 58.8447 132.308C58.2367 132.308 57.7407 132.472 57.3567 132.8C56.9727 133.12 56.7807 133.608 56.7807 134.264V134.432H55.8207V134.276C55.8207 133.668 55.9527 133.152 56.2167 132.728C56.4807 132.304 56.8407 131.984 57.2967 131.768C57.7527 131.544 58.2687 131.432 58.8447 131.432C59.4207 131.432 59.9287 131.54 60.3687 131.756C60.8167 131.972 61.1647 132.272 61.4127 132.656C61.6607 133.04 61.7847 133.488 61.7847 134V134.108C61.7847 134.652 61.6767 135.104 61.4607 135.464C61.2447 135.816 60.9447 136.104 60.5607 136.328C60.1847 136.552 59.7407 136.744 59.2287 136.904L58.5807 137.108C58.1727 137.236 57.8327 137.372 57.5607 137.516C57.2967 137.652 57.0967 137.828 56.9607 138.044C56.8247 138.26 56.7567 138.552 56.7567 138.92V139.124H61.7127V140H55.7727ZM66.2072 140.168C65.2552 140.168 64.4952 139.888 63.9272 139.328C63.3672 138.76 63.0872 137.912 63.0872 136.784V134.816C63.0872 133.696 63.3672 132.852 63.9272 132.284C64.4952 131.716 65.2552 131.432 66.2072 131.432C67.1672 131.432 67.9272 131.716 68.4872 132.284C69.0552 132.852 69.3392 133.696 69.3392 134.816V136.784C69.3392 137.912 69.0552 138.76 68.4872 139.328C67.9272 139.888 67.1672 140.168 66.2072 140.168ZM66.2072 139.292C66.9272 139.292 67.4672 139.076 67.8272 138.644C68.1872 138.212 68.3672 137.608 68.3672 136.832V134.756C68.3672 133.98 68.1832 133.38 67.8152 132.956C67.4472 132.524 66.9112 132.308 66.2072 132.308C65.5032 132.308 64.9672 132.524 64.5992 132.956C64.2392 133.388 64.0592 133.988 64.0592 134.756V136.832C64.0592 137.616 64.2392 138.224 64.5992 138.656C64.9592 139.08 65.4952 139.292 66.2072 139.292ZM71.0147 140V131.6H72.0227V135.26H72.1907L75.7427 131.6H77.0867L72.9947 135.752L77.2307 140H75.8507L72.1907 136.268H72.0227V140H71.0147Z" fill="#ABABAB"/>
</svg>
