<svg width="19" height="16" viewBox="0 0 19 16" fill="none" xmlns="http://www.w3.org/2000/svg">
<path fill-rule="evenodd" clip-rule="evenodd" d="M17.942 7.21155C18.1554 7.51595 18.2761 7.87558 18.2897 8.24706C18.2953 8.61069 18.1979 8.9685 18.0088 9.27911C17.8196 9.58972 17.5464 9.84045 17.2207 10.0023C17.2356 10.1956 17.2356 10.3897 17.2207 10.583C17.2207 13.5392 13.7762 15.9412 9.5266 15.9412C5.27702 15.9412 1.83249 13.5392 1.83249 10.583C1.81763 10.3897 1.81763 10.1956 1.83249 10.0023C1.57865 9.88569 1.35321 9.71527 1.17178 9.50286C0.990348 9.29044 0.857275 9.04112 0.781781 8.77217C0.706286 8.50321 0.690176 8.22106 0.734565 7.94526C0.778955 7.66946 0.882783 7.40661 1.03885 7.17493C1.19493 6.94324 1.39951 6.74826 1.63842 6.60351C1.87734 6.45875 2.14487 6.36767 2.42249 6.33658C2.7001 6.30549 2.98116 6.33514 3.24617 6.42347C3.51119 6.5118 3.75383 6.6567 3.95728 6.84813C5.47798 5.81678 7.26704 5.25254 9.10428 5.22484L10.0809 0.645333C10.0919 0.592317 10.1132 0.542006 10.1438 0.497314C10.1743 0.452621 10.2135 0.414438 10.2589 0.384976C10.3043 0.355514 10.3551 0.33536 10.4084 0.325682C10.4617 0.316004 10.5163 0.316994 10.5692 0.328595L13.8026 0.975269C13.9605 0.703979 14.2099 0.497854 14.5061 0.393893C14.8023 0.289931 15.1258 0.294942 15.4186 0.408026C15.7114 0.521109 15.9544 0.73486 16.1038 1.01091C16.2532 1.28696 16.2994 1.60723 16.2339 1.91423C16.1685 2.22123 15.9958 2.49487 15.7468 2.68601C15.4978 2.87715 15.1888 2.97328 14.8754 2.95715C14.5619 2.94103 14.2644 2.81369 14.0364 2.598C13.8083 2.38232 13.6646 2.09241 13.631 1.78031L10.8068 1.18643L9.94892 5.30403C11.7638 5.34296 13.5286 5.90678 15.0299 6.92731C15.2981 6.66991 15.635 6.49558 16.0001 6.42534C16.3651 6.3551 16.7427 6.39195 17.0872 6.53145C17.4318 6.67095 17.7287 6.90714 17.942 7.21155ZM12.5286 10.8848C13.257 10.8848 13.8475 10.2943 13.8475 9.56589C13.8475 8.83749 13.257 8.24701 12.5286 8.24701C11.8002 8.24701 11.2097 8.83749 11.2097 9.56589C11.2097 10.2943 11.8002 10.8848 12.5286 10.8848ZM7.73423 9.56589C7.73423 10.2943 7.14375 10.8848 6.41535 10.8848C5.68695 10.8848 5.09646 10.2943 5.09646 9.56589C5.09646 8.83749 5.68695 8.24701 6.41535 8.24701C7.14375 8.24701 7.73423 8.83749 7.73423 9.56589ZM9.48708 13.5102L9.49886 13.5103L9.50003 13.5103V14.2251L9.4996 14.2251C8.44224 14.2328 7.64217 13.9956 7.10034 13.7499C6.82928 13.627 6.62372 13.5023 6.48335 13.4061C6.41316 13.3579 6.3592 13.3169 6.32143 13.2866C6.30254 13.2714 6.28769 13.2589 6.27688 13.2496L6.26367 13.2381L6.25932 13.2342L6.25772 13.2327L6.25705 13.2321L6.25649 13.2316C6.11114 13.098 6.10159 12.8719 6.23516 12.7266C6.36846 12.5815 6.59392 12.5717 6.7393 12.7044L6.74317 12.7078C6.74794 12.7119 6.75647 12.7191 6.76876 12.729C6.79336 12.7487 6.83299 12.7791 6.88764 12.8165C6.99698 12.8915 7.16623 12.9948 7.39557 13.0988C7.85082 13.3053 8.54639 13.516 9.48708 13.5103V13.5102Z" fill="#00FFFF"/>
</svg>
