<svg width="15" height="15" viewBox="0 0 15 15" fill="none" xmlns="http://www.w3.org/2000/svg">
<path d="M14.576 14.1141C13.6829 14.0928 12.811 14.0928 11.9178 14.1141C11.7264 14.1141 11.6839 14.0716 11.6839 13.8802C11.6839 12.3065 11.6839 10.7115 11.6839 9.13784C11.6839 8.77632 11.6626 8.4148 11.5563 8.07454C11.2373 6.96871 9.96132 6.56465 9.04688 7.30896C8.55776 7.69175 8.36637 8.2234 8.36637 8.86138C8.36637 10.35 8.36637 11.8386 8.36637 13.3272C8.36637 13.5186 8.3451 13.71 8.36637 13.9227C8.38763 14.0928 8.30257 14.1354 8.15371 14.1141C7.23927 14.1141 6.34609 14.1141 5.43165 14.1141C5.26153 14.1141 5.21899 14.0716 5.21899 13.9014C5.24026 12.5617 5.24026 11.2219 5.24026 9.86088C5.24026 8.20213 5.24026 6.54339 5.21899 4.9059C5.21899 4.71451 5.26153 4.67198 5.43165 4.67198C6.34609 4.67198 7.23927 4.67198 8.15371 4.67198C8.32383 4.67198 8.36637 4.71451 8.36637 4.88464C8.36637 5.22489 8.36637 5.56515 8.36637 5.9692C8.43016 5.9054 8.45143 5.88414 8.4727 5.86287C9.30207 4.65071 10.4717 4.31045 11.854 4.52311C13.4489 4.77831 14.4697 5.88414 14.7249 7.58542C14.7887 7.98947 14.81 8.39353 14.81 8.79758C14.81 10.4989 14.81 12.1789 14.81 13.8802C14.81 14.0503 14.7674 14.1141 14.576 14.1141Z" fill="#00FFFF"/>
<path d="M3.51768 9.39293C3.51768 10.8816 3.51768 12.3702 3.51768 13.8588C3.51768 14.0502 3.47514 14.114 3.28375 14.114C2.39058 14.0927 1.4974 14.114 0.604231 14.114C0.434103 14.114 0.391571 14.0715 0.391571 13.9013C0.391571 10.9028 0.391571 7.88304 0.391571 4.88454C0.391571 4.73567 0.434103 4.67188 0.604231 4.67188C1.51867 4.67188 2.43311 4.67188 3.34755 4.67188C3.53894 4.67188 3.56021 4.73567 3.56021 4.9058C3.51768 6.39442 3.51768 7.88304 3.51768 9.39293Z" fill="#00FFFF"/>
<path d="M3.66655 2.205C3.45389 3.05564 2.58199 3.54476 1.58248 3.37464C0.519183 3.20451 -0.0762663 2.16247 0.306522 1.1417C0.561715 0.503722 1.17843 0.120934 1.96527 0.1422C3.15617 0.120934 3.94301 1.0779 3.66655 2.205Z" fill="#00FFFF"/>
</svg>
