<svg width="37" height="38" viewBox="0 0 37 38" fill="none" xmlns="http://www.w3.org/2000/svg">
<path d="M11.7629 18.1584C15.9565 16.1858 18.7528 14.8854 20.152 14.2571C24.1469 12.4631 24.977 12.1515 25.518 12.1411C25.637 12.1389 25.9031 12.1708 26.0755 12.3218C26.221 12.4493 26.261 12.6215 26.2802 12.7424C26.2993 12.8632 26.3232 13.1386 26.3042 13.3538C26.0878 15.8095 25.151 21.7691 24.6745 24.5196C24.4728 25.6834 24.0758 26.0737 23.6914 26.1118C22.856 26.1948 22.2217 25.5158 21.4126 24.9432C20.1465 24.0472 19.4313 23.4894 18.2023 22.615C16.782 21.6046 17.7027 21.0492 18.5121 20.1416C18.724 19.904 22.4046 16.2896 22.4759 15.9617C22.4848 15.9207 22.493 15.7678 22.4089 15.6871C22.3248 15.6064 22.2007 15.634 22.1111 15.6559C21.9841 15.687 19.9615 17.1304 16.0434 19.9859C15.4693 20.4115 14.9493 20.6189 14.4834 20.608C13.9697 20.596 12.9817 20.2945 12.2473 20.0367C11.3464 19.7205 10.6304 19.5534 10.6927 19.0164C10.7252 18.7368 11.0819 18.4508 11.7629 18.1584Z" fill="white"/>
</svg>
