<svg width="29" height="20" viewBox="0 0 29 20" fill="none" xmlns="http://www.w3.org/2000/svg">
<path d="M15.0375 1.12988C16.0001 1.14907 17.6464 1.17348 19.2918 1.21764C20.2164 1.24242 21.1409 1.28956 22.0643 1.34527C22.9513 1.39875 23.8405 1.45465 24.7118 1.63575C26.1052 1.92549 26.9878 2.73768 27.3514 4.05612C27.518 4.66018 27.6012 5.27897 27.669 5.89943C27.8475 7.53517 27.9136 9.17595 27.875 10.819C27.8522 11.7867 27.7873 12.7539 27.7255 13.7204C27.679 14.4484 27.5786 15.171 27.4338 15.8877C27.305 16.5253 27.0788 17.1182 26.6208 17.6131C26.0797 18.198 25.4057 18.5516 24.6022 18.6832C23.7885 18.8164 22.9671 18.8796 22.1442 18.9276C19.1384 19.1033 16.1291 19.1495 13.1187 19.1231C11.7455 19.111 10.3721 19.0737 8.99943 19.0316C8.14632 19.0053 7.29359 18.9576 6.44164 18.903C5.6842 18.8546 4.92482 18.8032 4.18141 18.648C2.77117 18.3538 1.87713 17.5276 1.50475 16.1978C1.34009 15.6097 1.25785 15.0046 1.20855 14.3983C1.13587 13.5041 1.05948 12.6095 1.02538 11.7137C0.991864 10.8393 0.997515 9.96299 1.00862 9.08763C1.01661 8.45785 1.0511 7.8277 1.093 7.19904C1.16451 6.12432 1.22765 5.04364 1.52755 4.00171C1.9013 2.70228 2.80118 1.8886 4.18784 1.60315C4.92501 1.45148 5.67816 1.40248 6.42975 1.35832C9.79448 1.161 11.5399 1.15653 15.0375 1.12988ZM11.7515 13.1462C11.7515 13.5264 12.1591 13.7675 12.4923 13.5843C14.319 12.5804 16.1369 11.5812 17.9613 10.5784C18.3065 10.3887 18.3069 9.89279 17.962 9.70246C16.1364 8.69497 14.3176 7.69116 12.4931 6.68429C12.1598 6.50039 11.7515 6.74145 11.7515 7.12206C11.7515 9.13394 11.7515 11.1351 11.7515 13.1462Z" fill="white" stroke="black" stroke-miterlimit="10"/>
</svg>
