<svg width="1440" height="152" viewBox="0 0 1440 152" fill="none" xmlns="http://www.w3.org/2000/svg">
<rect width="1439" height="151" fill="black"/>
<rect y="100.559" width="50.4907" height="50.4907" fill="white"/>
<rect x="658" y="101" width="150" height="50" fill="white"/>
<rect x="50.4902" y="50.0684" width="50.4907" height="50.4907" fill="white"/>
<rect x="808" y="51" width="50" height="50" fill="white"/>
<rect x="101" y="101" width="101" height="50" fill="white"/>
<rect x="858" y="101" width="101" height="50" fill="white"/>
<rect x="228" y="101" width="50" height="50" fill="white"/>
<rect x="985" y="101" width="101" height="50" fill="white"/>
<rect x="429.613" y="50.0684" width="50.4907" height="50.4907" fill="white"/>
<rect x="278" y="50" width="101" height="51" fill="white"/>
<rect x="1237.46" y="50.0684" width="50.4907" height="50.4907" fill="white"/>
<rect x="1389" width="50.4907" height="50.4907" fill="white"/>
<rect x="480.104" y="50.0684" width="50.4907" height="50.4907" fill="white"/>
<rect x="379.123" y="100.559" width="50.4907" height="50.4907" fill="white"/>
<rect x="1136.48" y="100.559" width="50.4907" height="50.4907" fill="white"/>
<rect x="1288" y="101" width="151.044" height="50.4907" fill="white"/>
<rect x="480.104" y="100.559" width="100.981" height="50.4907" fill="white"/>
<rect x="480" y="150.98" width="100.981" height="50.4907" transform="rotate(-90 480 150.98)" fill="white"/>
</svg>
