<svg width="64" height="64" viewBox="0 0 64 64" fill="none" xmlns="http://www.w3.org/2000/svg">
<path d="M14.5 7C10.3709 7 7 10.3709 7 14.5C7 18.6291 10.3709 22 14.5 22H54V54H14.5C11.9811 54 10 52.0189 10 49.5V23.5C10.0028 23.3012 9.96609 23.1039 9.89197 22.9194C9.81785 22.735 9.7078 22.5671 9.56824 22.4255C9.42867 22.284 9.26236 22.1716 9.07898 22.0949C8.89559 22.0181 8.69879 21.9786 8.5 21.9786C8.30121 21.9786 8.1044 22.0181 7.92102 22.0949C7.73763 22.1716 7.57132 22.284 7.43176 22.4255C7.29219 22.5671 7.18215 22.735 7.10803 22.9194C7.03391 23.1039 6.99719 23.3012 7 23.5V49.5C7 53.6291 10.3709 57 14.5 57H55.5C55.8978 57 56.2793 56.8419 56.5606 56.5606C56.8419 56.2793 57 55.8978 57 55.5V20.5C57 20.1022 56.8419 19.7207 56.5606 19.4394C56.2793 19.1581 55.8978 19 55.5 19H14.5C11.9811 19 10 17.0189 10 14.5C10 11.9811 11.9811 10 14.5 10H48V15.5C47.9972 15.6988 48.0339 15.8961 48.108 16.0806C48.1821 16.265 48.2922 16.4329 48.4318 16.5745C48.5713 16.716 48.7376 16.8284 48.921 16.9051C49.1044 16.9819 49.3012 17.0214 49.5 17.0214C49.6988 17.0214 49.8956 16.9819 50.079 16.9051C50.2624 16.8284 50.4287 16.716 50.5682 16.5745C50.7078 16.4329 50.8178 16.265 50.892 16.0806C50.9661 15.8961 51.0028 15.6988 51 15.5V8.5C51 8.10219 50.8419 7.72068 50.5606 7.43938C50.2793 7.15809 49.8978 7.00004 49.5 7H14.5Z" fill="#525252"/>
<path d="M32 42C28.9233 42 26.0644 42.9989 23.752 44.6875C23.5849 44.8004 23.4423 44.9457 23.3326 45.1149C23.223 45.2841 23.1486 45.4736 23.1138 45.6722C23.0791 45.8708 23.0847 46.0744 23.1304 46.2708C23.1761 46.4671 23.2609 46.6523 23.3798 46.8151C23.4986 46.978 23.6491 47.1152 23.8222 47.2186C23.9953 47.322 24.1874 47.3894 24.3871 47.4169C24.5869 47.4444 24.7901 47.4313 24.9846 47.3785C25.1792 47.3256 25.3611 47.2341 25.5195 47.1094C27.3379 45.7815 29.57 45 32 45C34.43 45 36.6621 45.7815 38.4805 47.1094C38.6389 47.2341 38.8208 47.3256 39.0154 47.3785C39.2099 47.4313 39.4131 47.4444 39.6129 47.4169C39.8126 47.3894 40.0048 47.322 40.1778 47.2186C40.3509 47.1152 40.5014 46.978 40.6202 46.8151C40.7391 46.6523 40.8239 46.4671 40.8696 46.2708C40.9153 46.0744 40.9209 45.8708 40.8862 45.6722C40.8515 45.4736 40.777 45.2841 40.6674 45.1149C40.5578 44.9457 40.4151 44.8004 40.2481 44.6875C37.9356 42.9989 35.0767 42 32 42ZM37.1399 31.1729C36.8632 31.4584 36.7112 31.842 36.7171 32.2395C36.7231 32.637 36.8866 33.0158 37.1717 33.2929L37.8788 34L37.1717 34.7071C37.0291 34.8457 36.9156 35.0112 36.8376 35.194C36.7595 35.3768 36.7186 35.5734 36.7172 35.7722C36.7158 35.9709 36.7539 36.168 36.8294 36.3519C36.9048 36.5359 37.016 36.703 37.1566 36.8435C37.2971 36.9841 37.4642 37.0953 37.6482 37.1707C37.8321 37.2462 38.0292 37.2843 38.228 37.2829C38.4267 37.2815 38.6233 37.2406 38.8061 37.1626C38.9889 37.0845 39.1544 36.971 39.293 36.8284L40.0001 36.1213L40.7072 36.8284C40.8458 36.971 41.0113 37.0845 41.1941 37.1626C41.377 37.2406 41.5735 37.2815 41.7723 37.2829C41.9711 37.2843 42.1681 37.2462 42.3521 37.1707C42.536 37.0953 42.7031 36.9841 42.8436 36.8435C42.9842 36.703 43.0954 36.5359 43.1709 36.3519C43.2463 36.168 43.2844 35.9709 43.283 35.7722C43.2816 35.5734 43.2407 35.3768 43.1627 35.194C43.0847 35.0112 42.9711 34.8457 42.8285 34.7071L42.1214 34L42.8285 33.2929C42.9711 33.1543 43.0847 32.9888 43.1627 32.806C43.2407 32.6231 43.2816 32.4266 43.283 32.2278C43.2844 32.0291 43.2463 31.832 43.1709 31.648C43.0954 31.4641 42.9842 31.297 42.8436 31.1565C42.7031 31.0159 42.536 30.9047 42.3521 30.8292C42.1681 30.7538 41.9711 30.7157 41.7723 30.7171C41.5735 30.7185 41.377 30.7594 41.1941 30.8374C41.0113 30.9155 40.8458 31.029 40.7072 31.1716L40.0001 31.8787L39.293 31.1716C39.1531 31.0276 38.9857 30.9131 38.8007 30.835C38.6157 30.7569 38.417 30.7167 38.2162 30.7169C38.0154 30.717 37.8167 30.7574 37.6318 30.8358C37.4469 30.9141 37.2797 31.0288 37.1399 31.1729ZM21.1399 31.1729C20.8633 31.4584 20.7112 31.842 20.7171 32.2395C20.7231 32.637 20.8866 33.0158 21.1717 33.2929L21.8788 34L21.1717 34.7071C21.0292 34.8457 20.9156 35.0112 20.8376 35.194C20.7595 35.3768 20.7186 35.5734 20.7172 35.7722C20.7158 35.9709 20.7539 36.168 20.8294 36.3519C20.9048 36.5359 21.016 36.703 21.1566 36.8435C21.2971 36.9841 21.4642 37.0953 21.6482 37.1707C21.8321 37.2462 22.0292 37.2843 22.228 37.2829C22.4267 37.2815 22.6233 37.2406 22.8061 37.1626C22.9889 37.0845 23.1544 36.971 23.293 36.8284L24.0001 36.1213L24.7072 36.8284C24.8458 36.971 25.0113 37.0845 25.1941 37.1626C25.377 37.2406 25.5735 37.2815 25.7723 37.2829C25.9711 37.2843 26.1681 37.2462 26.3521 37.1707C26.536 37.0953 26.7031 36.9841 26.8436 36.8435C26.9842 36.703 27.0954 36.5359 27.1709 36.3519C27.2463 36.168 27.2844 35.9709 27.283 35.7722C27.2816 35.5734 27.2407 35.3768 27.1627 35.194C27.0847 35.0112 26.9711 34.8457 26.8285 34.7071L26.1214 34L26.8285 33.2929C26.9711 33.1543 27.0847 32.9888 27.1627 32.806C27.2407 32.6231 27.2816 32.4266 27.283 32.2278C27.2844 32.0291 27.2463 31.832 27.1709 31.648C27.0954 31.4641 26.9842 31.297 26.8436 31.1565C26.7031 31.0159 26.536 30.9047 26.3521 30.8292C26.1681 30.7538 25.9711 30.7157 25.7723 30.7171C25.5735 30.7185 25.377 30.7594 25.1941 30.8374C25.0113 30.9155 24.8458 31.029 24.7072 31.1716L24.0001 31.8787L23.293 31.1716C23.1531 31.0276 22.9857 30.9131 22.8007 30.835C22.6157 30.7569 22.417 30.7167 22.2162 30.7169C22.0154 30.717 21.8167 30.7574 21.6318 30.8358C21.4469 30.9141 21.2797 31.0288 21.1399 31.1729Z" fill="#525252"/>
</svg>
