<svg width="33" height="33" viewBox="0 0 33 33" fill="none" xmlns="http://www.w3.org/2000/svg">
<g clip-path="url(#clip0_540_20132)">
<path d="M16 32C24.8366 32 32 24.8366 32 16C32 7.16344 24.8366 0 16 0C7.16344 0 0 7.16344 0 16C0 24.8366 7.16344 32 16 32Z" fill="#627EEA"/>
<path d="M16.498 4V12.87L23.995 16.22L16.498 4Z" fill="white" fill-opacity="0.602"/>
<path d="M16.498 4L9 16.22L16.498 12.87V4Z" fill="white"/>
<path d="M16.498 21.968V27.995L24 17.616L16.498 21.968Z" fill="white" fill-opacity="0.602"/>
<path d="M16.498 27.995V21.967L9 17.616L16.498 27.995Z" fill="white"/>
<path d="M16.498 20.573L23.995 16.22L16.498 12.872V20.573Z" fill="white" fill-opacity="0.2"/>
<path d="M9 16.22L16.498 20.573V12.872L9 16.22Z" fill="white" fill-opacity="0.602"/>
</g>
<rect x="14.6429" y="14.6426" width="17" height="17" rx="8.5" fill="white"/>
<rect x="14.6429" y="14.6426" width="17" height="17" rx="8.5" stroke="black"/>
<path d="M19.3508 19.3505H23.0456C24.0771 19.3505 25.0664 19.75 25.7958 20.4611C26.5252 21.1723 26.9349 22.1368 26.9349 23.1426C26.9349 24.1483 26.5252 25.1128 25.7958 25.824C25.0664 26.5351 24.0771 26.9346 23.0456 26.9346V24.9905C23.5483 24.9905 24.0304 24.7958 24.3858 24.4493C24.7413 24.1027 24.941 23.6327 24.941 23.1426C24.941 22.6524 24.7413 22.1824 24.3858 21.8358C24.0304 21.4893 23.5483 21.2946 23.0456 21.2946V21.2951H21.101V23.0453H19.3508V19.3505Z" fill="black"/>
<path d="M21.101 23.0453L23.0456 23.0453V24.99H21.101L21.101 23.0453Z" fill="black"/>
<defs>
<clipPath id="clip0_540_20132">
<rect width="32" height="32" fill="white"/>
</clipPath>
</defs>
</svg>
