<svg width="49" height="49" viewBox="0 0 49 49" fill="none" xmlns="http://www.w3.org/2000/svg">
<g clip-path="url(#clip0_37_227)">
<path d="M24.5 48.5C37.7548 48.5 48.5 37.7548 48.5 24.5C48.5 11.2452 37.7548 0.5 24.5 0.5C11.2452 0.5 0.5 11.2452 0.5 24.5C0.5 37.7548 11.2452 48.5 24.5 48.5Z" fill="#627EEA"/>
<path d="M25.2469 6.5V19.805L36.4925 24.83L25.2469 6.5Z" fill="white" fill-opacity="0.602"/>
<path d="M25.247 6.5L14 24.83L25.247 19.805V6.5Z" fill="white"/>
<path d="M25.2469 33.4518V42.4923L36.5 26.9238L25.2469 33.4518Z" fill="white" fill-opacity="0.602"/>
<path d="M25.247 42.4923V33.4503L14 26.9238L25.247 42.4923Z" fill="white"/>
<path d="M25.2469 31.3596L36.4925 24.8301L25.2469 19.8081V31.3596Z" fill="white" fill-opacity="0.2"/>
<path d="M14 24.8301L25.247 31.3596V19.8081L14 24.8301Z" fill="white" fill-opacity="0.602"/>
</g>
<defs>
<clipPath id="clip0_37_227">
<rect width="48" height="48" fill="white" transform="translate(0.5 0.5)"/>
</clipPath>
</defs>
</svg>
