<svg width="20" height="20" viewBox="0 0 20 20" fill="none" xmlns="http://www.w3.org/2000/svg">
<path d="M17.7082 7.625C15.7832 4.6 12.9665 2.85833 9.99984 2.85833C8.5165 2.85833 7.07484 3.29167 5.75817 4.1C4.4415 4.91667 3.25817 6.10833 2.2915 7.625C1.45817 8.93333 1.45817 11.0583 2.2915 12.3667C4.2165 15.4 7.03317 17.1333 9.99984 17.1333C11.4832 17.1333 12.9248 16.7 14.2415 15.8917C15.5582 15.075 16.7415 13.8833 17.7082 12.3667C18.5415 11.0667 18.5415 8.93333 17.7082 7.625ZM9.99984 13.3667C8.13317 13.3667 6.63317 11.8583 6.63317 10C6.63317 8.14167 8.13317 6.63333 9.99984 6.63333C11.8665 6.63333 13.3665 8.14167 13.3665 10C13.3665 11.8583 11.8665 13.3667 9.99984 13.3667Z" fill="#5F5F5F"/>
<path d="M10 7.61667C8.69167 7.61667 7.625 8.68334 7.625 10C7.625 11.3083 8.69167 12.375 10 12.375C11.3083 12.375 12.3833 11.3083 12.3833 10C12.3833 8.69167 11.3083 7.61667 10 7.61667Z" fill="#5F5F5F"/>
</svg>
