<svg width="22" height="22" viewBox="0 0 22 22" fill="none" xmlns="http://www.w3.org/2000/svg">
<g clip-path="url(#clip0_91_17193)">
<path d="M11 22C17.0751 22 22 17.0751 22 11C22 4.92487 17.0751 0 11 0C4.92487 0 0 4.92487 0 11C0 17.0751 4.92487 22 11 22Z" fill="black"/>
<path d="M9.426 12.28V11.944C9.426 11.468 9.51933 11.076 9.706 10.768C9.902 10.46 10.2147 10.2033 10.644 9.998L10.882 9.886C11.302 9.69 11.624 9.48 11.848 9.256C12.072 9.032 12.184 8.73333 12.184 8.36C12.184 8.08933 12.114 7.86067 11.974 7.674C11.8433 7.478 11.6567 7.32867 11.414 7.226C11.1713 7.12333 10.8867 7.072 10.56 7.072C10.224 7.072 9.92067 7.128 9.65 7.24C9.38867 7.352 9.17867 7.52 9.02 7.744C8.87067 7.968 8.796 8.248 8.796 8.584V8.892H6.976V8.612C6.976 7.968 7.13467 7.41267 7.452 6.946C7.76933 6.47933 8.19867 6.12467 8.74 5.882C9.28133 5.63 9.888 5.504 10.56 5.504C11.2227 5.504 11.8107 5.62533 12.324 5.868C12.8467 6.11067 13.2573 6.44667 13.556 6.876C13.8547 7.30533 14.004 7.8 14.004 8.36C14.004 8.92 13.9013 9.382 13.696 9.746C13.4907 10.1007 13.2293 10.39 12.912 10.614C12.604 10.8287 12.2867 11.0153 11.96 11.174L11.722 11.286C11.554 11.3607 11.4373 11.454 11.372 11.566C11.3067 11.6687 11.274 11.8227 11.274 12.028V12.28H9.426ZM10.406 15.696C10.0327 15.696 9.71533 15.5747 9.454 15.332C9.202 15.08 9.076 14.758 9.076 14.366C9.076 13.974 9.202 13.6567 9.454 13.414C9.71533 13.162 10.0327 13.036 10.406 13.036C10.7887 13.036 11.106 13.162 11.358 13.414C11.61 13.6567 11.736 13.974 11.736 14.366C11.736 14.758 11.61 15.08 11.358 15.332C11.106 15.5747 10.7887 15.696 10.406 15.696Z" fill="white"/>
</g>
<defs>
<clipPath id="clip0_91_17193">
<rect width="22" height="22" fill="white"/>
</clipPath>
</defs>
</svg>
