<svg width="64" height="64" viewBox="0 0 64 64" fill="none" xmlns="http://www.w3.org/2000/svg">
<path d="M56.306 51.6082H20.1964C18.7082 51.6082 17.502 50.402 17.502 48.9137C17.502 47.4255 18.7082 46.2192 20.1964 46.2192H56.3051C57.7934 46.2192 58.9996 47.4255 58.9996 48.9137C58.9996 50.402 57.7943 51.6082 56.306 51.6082Z" fill="#525252"/>
<path d="M56.306 34.695H20.1964C18.7082 34.695 17.502 33.4888 17.502 32.0005C17.502 30.5123 18.7082 29.306 20.1964 29.306H56.3051C57.7934 29.306 58.9996 30.5123 58.9996 32.0005C59.0005 33.4888 57.7943 34.695 56.306 34.695Z" fill="#525252"/>
<path d="M56.306 17.7818H20.1964C18.7082 17.7818 17.502 16.5755 17.502 15.0873C17.502 13.599 18.7082 12.3928 20.1964 12.3928H56.3051C57.7934 12.3928 58.9996 13.599 58.9996 15.0873C58.9996 16.5755 57.7943 17.7818 56.306 17.7818Z" fill="#525252"/>
<path d="M8.61868 18.9144C10.6172 18.9144 12.2374 17.2942 12.2374 15.2957C12.2374 13.2971 10.6172 11.677 8.61868 11.677C6.62014 11.677 5 13.2971 5 15.2957C5 17.2942 6.62014 18.9144 8.61868 18.9144Z" fill="#525252"/>
<path d="M8.61868 35.6192C10.6172 35.6192 12.2374 33.9991 12.2374 32.0005C12.2374 30.002 10.6172 28.3818 8.61868 28.3818C6.62014 28.3818 5 30.002 5 32.0005C5 33.9991 6.62014 35.6192 8.61868 35.6192Z" fill="#525252"/>
<path d="M8.61868 52.324C10.6172 52.324 12.2374 50.7039 12.2374 48.7054C12.2374 46.7068 10.6172 45.0867 8.61868 45.0867C6.62014 45.0867 5 46.7068 5 48.7054C5 50.7039 6.62014 52.324 8.61868 52.324Z" fill="#525252"/>
</svg>
