<svg width="60" height="60" viewBox="0 0 60 60" fill="none" xmlns="http://www.w3.org/2000/svg">
<path d="M26.3557 11.3154C28.8363 11.3154 31.2369 11.3154 33.7175 11.3154C33.7175 21.2379 33.7175 31.0803 33.7175 40.9227C33.4774 41.0027 26.8358 41.0027 26.3557 40.9227C26.3557 31.0803 26.3557 21.1578 26.3557 11.3154Z" fill="white"/>
<path d="M40.999 3.9536C40.839 3.9536 40.679 3.9536 40.5989 3.9536C33.4772 3.9536 26.3555 3.9536 19.3137 3.9536C19.1537 3.9536 18.9937 3.9536 18.8336 3.9536C18.8336 2.67329 18.8336 1.473 18.8336 0.272705C26.1954 0.272705 33.6372 0.272705 40.999 0.272705C40.999 0.352725 40.999 0.432744 40.999 0.512763C40.999 1.55302 40.999 2.59327 40.999 3.71354C41.0791 3.71354 41.0791 3.87358 40.999 3.9536Z" fill="white"/>
<path d="M4.11005 18.7571C4.11005 18.9171 4.11005 18.9971 4.11005 19.1572C4.11005 26.2789 4.11005 33.4007 4.11005 40.5224C4.11005 40.6024 4.11005 40.7625 4.11005 40.8425C4.03003 40.8425 3.95001 40.9225 3.86999 40.9225C2.74972 40.9225 1.70947 40.9225 0.589192 40.9225C0.509172 40.9225 0.509175 40.9225 0.429155 40.9225C0.349136 40.6824 0.349136 19.2372 0.429155 18.7571C0.509175 18.7571 0.589191 18.7571 0.66921 18.7571C1.70946 18.7571 2.74972 18.7571 3.78997 18.7571C3.95001 18.7571 4.03003 18.7571 4.11005 18.7571Z" fill="white"/>
<path d="M55.8821 18.8371C55.9621 18.8371 56.0421 18.7571 56.2022 18.7571C57.2424 18.7571 58.3627 18.7571 59.4029 18.7571C59.483 18.7571 59.563 18.7571 59.643 18.7571C59.643 26.1189 59.643 33.5607 59.643 40.9225C59.563 40.9225 59.483 40.9225 59.4029 40.9225C58.3627 40.9225 57.2424 40.9225 56.2022 40.9225C56.1221 40.9225 56.0421 40.9225 55.8821 40.8425C55.8821 40.6824 55.8821 40.6024 55.8821 40.4424C55.8821 33.3206 55.8821 26.1989 55.8821 19.0772C55.8821 18.9971 55.8821 18.9171 55.8821 18.8371Z" fill="white"/>
<path d="M40.999 55.7261C40.999 55.8061 40.999 55.8861 40.999 55.9661C40.999 57.0864 40.999 58.1267 40.999 59.2469C40.999 59.327 40.999 59.407 40.999 59.487C33.6372 59.487 26.1954 59.487 18.8336 59.487C18.8336 58.2867 18.8336 57.0864 18.8336 55.8061C18.9937 55.8061 19.1537 55.8061 19.3137 55.8061C26.4355 55.8061 33.4772 55.8061 40.5989 55.8061C40.759 55.7261 40.919 55.7261 40.999 55.7261Z" fill="white"/>
<path d="M52.2819 11.2354C52.3619 11.2354 52.5219 11.3154 52.6019 11.3154C53.5622 11.3154 54.5224 11.3154 55.4826 11.3154C55.6427 11.3154 55.7227 11.3154 55.8827 11.3154C55.8827 11.4754 55.8827 11.5554 55.8827 11.6354C55.8827 13.956 55.8827 16.1966 55.8827 18.5171C55.8827 18.5971 55.8827 18.7572 55.8827 18.8372C55.8027 18.8372 55.6427 18.7572 55.5627 18.7572C54.6024 18.7572 53.6422 18.7572 52.682 18.7572C52.6019 18.7572 52.4419 18.7572 52.2819 18.7572C52.2819 18.6772 52.2819 18.5171 52.2819 18.4371C52.2819 16.1165 52.2819 13.796 52.2819 11.5554C52.2819 11.3954 52.2819 11.3154 52.2819 11.2354Z" fill="white"/>
<path d="M7.71001 11.2354C7.71001 11.3154 7.71001 11.4754 7.71001 11.5554C7.71001 13.876 7.71001 16.1966 7.71001 18.5171C7.71001 18.5971 7.71001 18.6772 7.71001 18.7572C7.54997 18.7572 7.46995 18.7572 7.38993 18.7572C6.4297 18.7572 5.46946 18.7572 4.42921 18.7572C4.34919 18.7572 4.18915 18.7572 4.10913 18.8372C4.10913 18.7572 4.10913 18.5971 4.10913 18.5171C4.10913 16.1966 4.10913 13.956 4.10913 11.6354C4.10913 11.5554 4.10913 11.4754 4.10913 11.3154C4.26917 11.3154 4.34919 11.3154 4.42921 11.3154C5.38944 11.3154 6.34968 11.3154 7.38993 11.3154C7.46995 11.2354 7.62999 11.2354 7.71001 11.2354Z" fill="white"/>
<path d="M40.9987 3.95355C41.0787 3.95355 41.1588 3.87354 41.3188 3.87354C43.6394 3.87354 45.9599 3.87354 48.2805 3.87354C48.3605 3.87354 48.3605 3.87354 48.4405 3.87354C48.4405 3.95355 48.4405 4.03357 48.4405 4.11359C48.4405 5.15385 48.4405 6.27412 48.4405 7.31438C48.4405 7.39439 48.4405 7.47441 48.3605 7.55443C48.2005 7.55443 48.1205 7.55443 47.9604 7.55443C45.7199 7.55443 43.5593 7.55443 41.3188 7.55443C41.2388 7.55443 41.0787 7.55443 40.9187 7.55443C40.9187 7.39439 40.9187 7.31437 40.9187 7.15434C40.9187 6.1941 40.9187 5.23387 40.9187 4.19361C41.0787 4.11359 41.0787 4.03357 40.9987 3.95355Z" fill="white"/>
<path d="M41.0794 55.7261C41.0794 55.6461 41.0794 55.4861 41.0794 55.406C41.0794 54.4458 41.0794 53.4856 41.0794 52.5253C41.0794 52.3653 41.0794 52.2853 41.0794 52.1252C41.1594 52.1252 41.2394 52.1252 41.3194 52.1252C43.64 52.1252 45.9606 52.1252 48.2811 52.1252C48.3612 52.1252 48.4412 52.1252 48.5212 52.1252V52.2053C48.5212 53.3255 48.5212 54.5258 48.5212 55.6461V55.7261C48.4412 55.7261 48.4412 55.7261 48.3612 55.7261C45.9606 55.7261 43.64 55.7261 41.2394 55.7261C41.1594 55.7261 41.0794 55.7261 41.0794 55.7261Z" fill="white"/>
<path d="M7.79119 48.3645C6.59089 48.3645 5.3906 48.3645 4.19031 48.3645C4.19031 48.2845 4.19031 48.2044 4.19031 48.1244C4.19031 45.8839 4.19031 43.5633 4.19031 41.3228C4.19031 41.2427 4.19031 41.0827 4.19031 41.0027C4.27033 41.0027 4.43037 41.0827 4.51039 41.0827C5.47062 41.0827 6.43085 41.0827 7.39109 41.0827C7.47111 41.0827 7.63115 41.0827 7.79119 41.0827C7.79119 41.1627 7.79119 41.2427 7.79119 41.4028C7.79119 43.7234 7.79119 45.9639 7.79119 48.2845C7.79119 48.2044 7.79119 48.2845 7.79119 48.3645Z" fill="white"/>
<path d="M52.2819 48.3644C52.2819 48.2844 52.2819 48.2044 52.2819 48.1244C52.2819 45.8838 52.2819 43.5633 52.2819 41.3227C52.2819 41.2427 52.2819 41.1627 52.2819 41.0026C52.4419 41.0026 52.5219 41.0026 52.682 41.0026C53.6422 41.0026 54.6024 41.0026 55.6427 41.0026C55.7227 41.0026 55.8827 41.0026 55.9628 40.9226C55.9628 41.0026 55.9628 41.1627 55.9628 41.2427C55.9628 43.4832 55.9628 45.7238 55.9628 48.0443C55.9628 48.1244 55.9628 48.2044 55.9628 48.2844H55.8827C54.6024 48.3644 53.4822 48.3644 52.2819 48.3644Z" fill="white"/>
<path d="M11.5513 7.63447C11.5513 7.55445 11.4713 7.47443 11.4713 7.39441C11.4713 6.27414 11.4713 5.15386 11.4713 4.03359V3.95357C11.7114 3.87355 18.193 3.87355 18.7531 3.95357C18.8331 4.19363 18.8331 6.99431 18.7531 7.63447C18.5931 7.63447 18.513 7.63447 18.353 7.63447C16.1925 7.63447 13.9519 7.63447 11.7914 7.63447C11.7914 7.55445 11.6314 7.55445 11.5513 7.63447Z" fill="white"/>
<path d="M26.3557 48.2844C26.3557 47.0841 26.3557 45.8838 26.3557 44.6835C26.5958 44.6035 32.9173 44.6035 33.6375 44.6835C33.7175 44.9236 33.7175 47.5643 33.7175 48.2844C33.3974 48.3644 27.2359 48.3644 26.3557 48.2844Z" fill="white"/>
<path d="M11.4718 52.0452C11.5519 52.0452 11.6319 52.0452 11.7919 52.0452C14.0325 52.0452 16.273 52.0452 18.5136 52.0452C18.5936 52.0452 18.6736 52.0452 18.7536 52.0452C18.8336 52.2852 18.8336 55.326 18.7536 55.7261C16.353 55.7261 13.8724 55.7261 11.4718 55.7261C11.4718 55.486 11.3918 53.1654 11.4718 52.0452Z" fill="white"/>
<path d="M7.71057 48.3645C8.91086 48.3645 10.1912 48.3645 11.4715 48.3645C11.4715 49.6448 11.4715 50.8451 11.4715 52.1254C11.3114 52.1254 11.2314 52.1254 11.0714 52.1254C10.1112 52.1254 9.0709 52.1254 8.11067 52.1254C8.03065 52.1254 7.87061 52.1254 7.71057 52.1254C7.71057 51.9654 7.71057 51.8854 7.71057 51.7253C7.71057 50.7651 7.71057 49.7248 7.71057 48.7646C7.79059 48.6046 7.79059 48.4445 7.71057 48.3645Z" fill="white"/>
<path d="M52.2811 48.3645C52.2811 49.5648 52.2811 50.7651 52.2811 52.0454C52.121 52.0454 52.041 52.0454 51.881 52.0454C50.9207 52.0454 49.8805 52.0454 48.9202 52.0454C48.7602 52.0454 48.6802 52.0454 48.5201 52.0454C48.5201 51.8053 48.5201 51.4853 48.5201 51.2452C48.5201 50.445 48.5201 49.5648 48.5201 48.7646C48.5201 48.6846 48.5201 48.5245 48.5201 48.3645C49.8005 48.3645 51.0007 48.3645 52.2811 48.3645Z" fill="white"/>
<path d="M11.5516 7.63448C11.5516 7.7145 11.5516 7.87453 11.5516 7.95455C11.5516 8.91479 11.5516 9.87502 11.5516 10.9153C11.5516 10.9953 11.5516 11.1553 11.5516 11.3154C11.3916 11.3154 11.3116 11.3154 11.2316 11.3154C10.1913 11.3154 9.23106 11.3154 8.19081 11.3154C8.11079 11.3154 7.95075 11.2354 7.87073 11.2354C7.87073 11.1553 7.87073 10.9953 7.87073 10.9153C7.87073 9.95504 7.87073 8.99481 7.87073 8.03458C7.87073 7.87454 7.87073 7.79452 7.87073 7.63448C7.95075 7.63448 7.95075 7.63448 8.03077 7.63448C9.15104 7.63448 10.3513 7.63448 11.4716 7.63448C11.4716 7.55446 11.4716 7.55446 11.5516 7.63448Z" fill="white"/>
<path d="M48.5201 7.63452C48.6002 7.63452 48.6802 7.63452 48.7602 7.63452C49.8805 7.63452 50.9207 7.63452 52.041 7.63452C52.121 7.63452 52.201 7.63452 52.2811 7.63452C52.2811 7.79456 52.2811 7.87458 52.2811 8.03462C52.2811 8.99485 52.2811 9.95509 52.2811 10.9953C52.2811 11.0754 52.2811 11.2354 52.2811 11.3154C52.201 11.3154 52.121 11.3954 51.961 11.3954C50.9207 11.3954 49.8005 11.3954 48.7602 11.3954C48.6802 11.3954 48.6002 11.3954 48.5201 11.3954C48.5201 11.2354 48.5201 11.1554 48.5201 10.9953C48.5201 10.0351 48.5201 9.07487 48.5201 8.03462C48.5201 7.79456 48.5201 7.71454 48.5201 7.63452Z" fill="white"/>
</svg>
