<svg width="51" height="50" viewBox="0 0 51 50" fill="none" xmlns="http://www.w3.org/2000/svg">
<path d="M25.5 0.5C39.0325 0.5 50 11.4675 50 25C50 38.5325 39.0325 49.5 25.5 49.5C11.9675 49.5 1 38.5325 1 25C1 11.4675 11.9675 0.5 25.5 0.5Z" fill="black" stroke="#242424"/>
<path d="M16.3892 19.3091C21.4185 14.397 29.5825 14.397 34.6118 19.3091L35.2173 19.9048C35.4712 20.1489 35.4712 20.5493 35.2173 20.7934L33.147 22.8149C33.02 22.9419 32.8149 22.9419 32.688 22.8149L31.8579 22.0044C28.3423 18.5767 22.6587 18.5767 19.1431 22.0044L18.2544 22.8735C18.1274 23.0005 17.9224 23.0005 17.7954 22.8735L15.7251 20.852C15.4712 20.6079 15.4712 20.2075 15.7251 19.9634L16.3892 19.3091ZM38.8989 23.4887L40.7446 25.2856C40.9985 25.5298 40.9985 25.9302 40.7446 26.1743L32.4341 34.2895C32.1802 34.5336 31.77 34.5336 31.5259 34.2895L25.6274 28.5278C25.5688 28.4692 25.4614 28.4692 25.4028 28.5278L19.5044 34.2895C19.2505 34.5336 18.8403 34.5336 18.5962 34.2895L10.2563 26.1743C10.0024 25.9302 10.0024 25.5298 10.2563 25.2856L12.102 23.4887C12.356 23.2446 12.7661 23.2446 13.0103 23.4887L18.9087 29.2505C18.9673 29.309 19.0747 29.309 19.1333 29.2505L25.0317 23.4887C25.2856 23.2446 25.6958 23.2446 25.9399 23.4887L31.8384 29.2505C31.897 29.309 32.0044 29.309 32.063 29.2505L37.9614 23.4887C38.2348 23.2446 38.645 23.2446 38.8989 23.4887Z" fill="#0270FF"/>
</svg>
