<svg width="25" height="25" viewBox="0 0 25 25" fill="none" xmlns="http://www.w3.org/2000/svg">
<path d="M4.44597 21.7382H20.6571C22.3148 21.7382 23.3482 19.9406 22.5193 18.5089L14.4138 4.50447C13.5849 3.07281 11.5182 3.07281 10.6893 4.50447L2.58374 18.5089C1.75488 19.9406 2.78826 21.7382 4.44597 21.7382ZM12.5515 14.2032C11.9595 14.2032 11.4751 13.7188 11.4751 13.1267V10.9739C11.4751 10.3818 11.9595 9.89742 12.5515 9.89742C13.1436 9.89742 13.628 10.3818 13.628 10.9739V13.1267C13.628 13.7188 13.1436 14.2032 12.5515 14.2032ZM13.628 18.5089H11.4751V16.356H13.628V18.5089Z" fill="#E32D3C"/>
</svg>
