<?xml version="1.0" encoding="utf-8"?>
<svg xmlns="http://www.w3.org/2000/svg" fill="none" viewBox="0 0 120 120" height="47px" width="47px" style="height: 100%; width: 100%; background: rgba(255, 255, 255, 0); shape-rendering: auto;"><g class="ldl-scale" style="transform-origin: 50% 50%; transform: rotate(0deg) scale(0.8, 0.8);"><g class="ldl-ani" style="transform: scale(0.91); transform-origin: 60px 60px; animation: 1.11111s linear 0s infinite normal forwards running breath-bb219015-b35b-4648-b881-1bcba4906b92;">
<g class="ldl-layer"><g class="ldl-ani"><path fill="black" d="M22 22H58.9829C69.3077 22 79.2095 25.9989 86.5102 33.1171C93.8109 40.2353 97.9124 49.8896 97.9124 59.9562C97.9124 70.0228 93.8109 79.6771 86.5102 86.7953C79.2095 93.9134 69.3077 97.9124 58.9829 97.9124V78.4532C64.0144 78.4532 68.8399 76.5044 72.3977 73.0355C75.9555 69.5667 77.9542 64.8619 77.9542 59.9562C77.9542 55.0505 75.9555 50.3457 72.3977 46.8768C68.8399 43.408 64.0144 41.4592 58.9829 41.4592V41.4647H39.5182V58.9829H22V22Z" style=""></path></g></g>
<g class="ldl-layer"><g class="ldl-ani"><path fill="black" d="M39.5182 58.9829L58.9829 58.983V78.4477H39.5182L39.5182 58.9829Z" style=""></path></g></g>
</g></g><style id="breath-bb219015-b35b-4648-b881-1bcba4906b92" data-anikit="">@keyframes breath-bb219015-b35b-4648-b881-1bcba4906b92
{
  0% {
    animation-timing-function: cubic-bezier(0.9647,0.2413,-0.0705,0.7911);
    transform: scale(0.9099999999999999);
  }
  51% {
    animation-timing-function: cubic-bezier(0.9226,0.2631,-0.0308,0.7628);
    transform: scale(1.02994);
  }
  100% {
    transform: scale(0.9099999999999999);
  }
}</style><!-- [ldio] generated by https://loading.io/ --></svg>