<?xml version="1.0" encoding="utf-8"?>
<svg xmlns="http://www.w3.org/2000/svg" fill="none" viewBox="0 0 31 31" height="64px" width="64px" style="height: 100%; width: 100%; background: rgba(255, 255, 255, 0); shape-rendering: auto;"><g class="ldl-scale" style="transform-origin: 50% 50%; transform: rotate(0deg) scale(1, 1);"><g class="ldl-ani" style="transform-origin: 15.5px 15.5px; transform: scale(0.91); animation: 1s linear 0s infinite normal forwards running breath-971d54b2-2683-4e52-972e-3602921ebc98;">
<g class="ldl-layer"><g class="ldl-ani"><path fill="#3BDAEA" d="M0.644531 0.395508H15.2599C19.3402 0.395508 23.2533 1.97586 26.1385 4.78891C29.0237 7.60195 30.6445 11.4173 30.6445 15.3955C30.6445 19.3738 29.0237 23.1891 26.1385 26.0021C23.2533 28.8152 19.3402 30.3955 15.2599 30.3955V22.7054C17.2483 22.7054 19.1553 21.9352 20.5613 20.5644C21.9673 19.1935 22.7572 17.3342 22.7572 15.3955C22.7572 13.4568 21.9673 11.5975 20.5613 10.2266C19.1553 8.85578 17.2483 8.08563 15.2599 8.08563V8.08782H7.56761V15.0109H0.644531V0.395508Z" style="fill: rgb(59, 218, 234);"></path></g></g>
<g class="ldl-layer"><g class="ldl-ani"><path fill="#3BDAEA" d="M7.56761 15.0109L15.2599 15.0109V22.7032H7.56761L7.56761 15.0109Z" style="fill: rgb(59, 218, 234);"></path></g></g>
</g></g><style id="breath-971d54b2-2683-4e52-972e-3602921ebc98" data-anikit="">@keyframes breath-971d54b2-2683-4e52-972e-3602921ebc98
{
  0% {
    animation-timing-function: cubic-bezier(0.9647,0.2413,-0.0705,0.7911);
    transform: scale(0.9099999999999999);
  }
  51% {
    animation-timing-function: cubic-bezier(0.9226,0.2631,-0.0308,0.7628);
    transform: scale(1.02994);
  }
  100% {
    transform: scale(0.9099999999999999);
  }
}</style><!-- [ldio] generated by https://loading.io/ --></svg>