<svg width="62" height="62" viewBox="0 0 62 62" fill="none" xmlns="http://www.w3.org/2000/svg">
<rect width="61.875" height="61.875" rx="30.9375" fill="black"/>
<path d="M16.875 15.75H31.125C35.1033 15.75 38.9186 17.2908 41.7316 20.0336C44.5447 22.7763 46.125 26.4962 46.125 30.375C46.125 34.2538 44.5447 37.9737 41.7316 40.7164C38.9186 43.4592 35.1033 45 31.125 45V37.5021C33.0637 37.5021 34.923 36.7512 36.2939 35.4146C37.6647 34.078 38.4349 32.2652 38.4349 30.375C38.4349 28.4848 37.6647 26.672 36.2939 25.3354C34.923 23.9988 33.0637 23.2479 31.125 23.2479V23.25H23.625V30H16.875V15.75Z" fill="white"/>
<path d="M23.625 30L31.125 30V37.5H23.625L23.625 30Z" fill="white"/>
</svg>
