<svg width="63" height="63" viewBox="0 0 63 63" fill="none" xmlns="http://www.w3.org/2000/svg">
<rect x="0.25" y="0.75" width="61.875" height="61.875" rx="30.9375" fill="white"/>
<path d="M17.125 16.5H31.375C35.3533 16.5 39.1686 18.0408 41.9816 20.7836C44.7947 23.5263 46.375 27.2462 46.375 31.125C46.375 35.0038 44.7947 38.7237 41.9816 41.4664C39.1686 44.2092 35.3533 45.75 31.375 45.75V38.2521C33.3137 38.2521 35.173 37.5012 36.5439 36.1646C37.9147 34.828 38.6849 33.0152 38.6849 31.125C38.6849 29.2348 37.9147 27.422 36.5439 26.0854C35.173 24.7488 33.3137 23.9979 31.375 23.9979V24H23.875V30.75H17.125V16.5Z" fill="black"/>
<path d="M23.875 30.75L31.375 30.75V38.25H23.875L23.875 30.75Z" fill="black"/>
</svg>
