<svg width="137" height="35" viewBox="0 0 137 35" fill="none" xmlns="http://www.w3.org/2000/svg">
<path d="M0 0.525391H16.5397C21.1571 0.525391 25.5855 2.31382 28.8505 5.49723C32.1156 8.68065 33.9499 12.9983 33.9499 17.5003C33.9499 22.0024 32.1156 26.32 28.8505 29.5034C25.5855 32.6868 21.1571 34.4753 16.5397 34.4753V25.7726C18.7899 25.7726 20.9479 24.9011 22.5391 23.3497C24.1302 21.7984 25.0241 19.6943 25.0241 17.5003C25.0241 15.3064 24.1302 13.2023 22.5391 11.6509C20.9479 10.0996 18.7899 9.22801 16.5397 9.22801V9.23048H7.83458V17.0651H0V0.525391Z" fill="black"/>
<rect x="7.8418" y="17.1006" width="8.62366" height="8.62366" fill="#35D175"/>
<path d="M42.0527 34.4752V24.2412H45.0082L47.2357 33.4226H47.4686L49.6961 24.2412H52.6515V34.4752H51.1229V25.3523H50.8899L48.677 34.4752H46.0273L43.8144 25.3523H43.5814V34.4752H42.0527Z" fill="#35D175"/>
<path d="M54.0204 34.4752L56.9322 24.2412H59.6984L62.5956 34.4752H60.9795L60.3098 32.0629H56.3207L55.651 34.4752H54.0204ZM56.7138 30.6009H59.9167L58.4317 25.2208H58.1988L56.7138 30.6009Z" fill="#35D175"/>
<path d="M63.9763 34.4752V24.2412H65.5486V34.4752H63.9763Z" fill="#35D175"/>
<path d="M67.6728 34.4752V24.2412H70.7011L73.4672 33.4226H73.7002V24.2412H75.258V34.4752H72.2297L69.4636 25.2792H69.2306V34.4752H67.6728Z" fill="#35D175"/>
<path d="M77.3834 34.4752V24.2412H80.4117L83.1779 33.4226H83.4108V24.2412H84.9686V34.4752H81.9404L79.1742 25.2792H78.9412V34.4752H77.3834Z" fill="#35D175"/>
<path d="M87.0941 34.4752V24.2412H93.5145V25.674H88.6664V28.6126H93.1068V30.0454H88.6664V33.0425H93.5873V34.4752H87.0941Z" fill="#35D175"/>
<path d="M97.6578 34.4752V25.674H94.5277V24.2412H102.36V25.674H99.2302V34.4752H97.6578Z" fill="#35D175"/>
<path d="M42.0352 18.7587V0.525391H56.7231C57.3646 0.525391 57.9555 0.685776 58.4958 1.00655C59.036 1.32732 59.4665 1.75783 59.7873 2.29807C60.1081 2.82144 60.2685 3.40389 60.2685 4.04543V15.2386C60.2685 15.8802 60.1081 16.4711 59.7873 17.0113C59.4665 17.5347 59.036 17.9568 58.4958 18.2775C57.9555 18.5983 57.3646 18.7587 56.7231 18.7587H42.0352ZM45.6565 15.3906H56.5711C56.6556 15.3906 56.7315 15.3653 56.7991 15.3146C56.8666 15.2471 56.9004 15.1711 56.9004 15.0867V4.19737C56.9004 4.11296 56.8666 4.04543 56.7991 3.99478C56.7315 3.92725 56.6556 3.89349 56.5711 3.89349H45.6565C45.5721 3.89349 45.4961 3.92725 45.4286 3.99478C45.3779 4.04543 45.3526 4.11296 45.3526 4.19737V15.0867C45.3526 15.1711 45.3779 15.2471 45.4286 15.3146C45.4961 15.3653 45.5721 15.3906 45.6565 15.3906Z" fill="black"/>
<path d="M66.5737 18.7587C65.9322 18.7587 65.3413 18.5983 64.8011 18.2775C64.2777 17.9568 63.8556 17.5347 63.5349 17.0113C63.2141 16.4711 63.0537 15.8802 63.0537 15.2386V4.04543C63.0537 3.40389 63.2141 2.82144 63.5349 2.29807C63.8556 1.75783 64.2777 1.32732 64.8011 1.00655C65.3413 0.685776 65.9322 0.525391 66.5737 0.525391H77.767C78.4085 0.525391 78.991 0.685776 79.5143 1.00655C80.0546 1.32732 80.4851 1.75783 80.8058 2.29807C81.1266 2.82144 81.287 3.40389 81.287 4.04543V15.2386C81.287 15.8802 81.1266 16.4711 80.8058 17.0113C80.4851 17.5347 80.0546 17.9568 79.5143 18.2775C78.991 18.5983 78.4085 18.7587 77.767 18.7587H66.5737ZM66.7004 15.3906H77.5897C77.6741 15.3906 77.7501 15.3653 77.8176 15.3146C77.8851 15.2471 77.9189 15.1711 77.9189 15.0867V4.19737C77.9189 4.11296 77.8851 4.04543 77.8176 3.99478C77.7501 3.92725 77.6741 3.89349 77.5897 3.89349H66.7004C66.6159 3.89349 66.54 3.92725 66.4724 3.99478C66.4218 4.04543 66.3965 4.11296 66.3965 4.19737V15.0867C66.3965 15.1711 66.4218 15.2471 66.4724 15.3146C66.54 15.3653 66.6159 15.3906 66.7004 15.3906Z" fill="black"/>
<path d="M84.0758 18.7587V0.550714H98.7637C99.4053 0.550714 99.9962 0.7111 100.536 1.03187C101.077 1.35264 101.507 1.78315 101.828 2.3234C102.149 2.84676 102.309 3.42921 102.309 4.07075V8.98362C102.309 9.62516 102.149 10.2161 101.828 10.7563C101.507 11.2965 101.077 11.7271 100.536 12.0478C99.9962 12.3517 99.4053 12.5037 98.7637 12.5037L87.4186 12.529V18.7587H84.0758ZM87.7225 9.13556H98.6118C98.6962 9.13556 98.7722 9.11024 98.8397 9.05959C98.9073 9.00894 98.941 8.94141 98.941 8.857V4.19737C98.941 4.11296 98.9073 4.04543 98.8397 3.99478C98.7722 3.92725 98.6962 3.89349 98.6118 3.89349H87.7225C87.6381 3.89349 87.5621 3.92725 87.4946 3.99478C87.4439 4.04543 87.4186 4.11296 87.4186 4.19737V8.857C87.4186 8.94141 87.4439 9.00894 87.4946 9.05959C87.5621 9.11024 87.6381 9.13556 87.7225 9.13556Z" fill="black"/>
<path fill-rule="evenodd" clip-rule="evenodd" d="M136.646 0.752255H109.731V11.8232H136.646V0.752255ZM109.504 0.525391V12.0501H136.873V0.525391H109.504Z" fill="black"/>
<path d="M111.689 9.78136V9.20241H112.688V3.3729H111.689V2.79395H115.153C115.552 2.79395 115.909 2.86715 116.221 3.01355C116.534 3.15995 116.777 3.36625 116.95 3.63244C117.13 3.89197 117.219 4.19476 117.219 4.5408V4.62066C117.219 4.94674 117.156 5.21625 117.03 5.4292C116.903 5.64215 116.75 5.80852 116.571 5.9283C116.391 6.04809 116.215 6.1346 116.042 6.18783V6.30762C116.215 6.34755 116.391 6.43073 116.571 6.55717C116.757 6.67695 116.91 6.84332 117.03 7.05627C117.156 7.26922 117.219 7.53873 117.219 7.86481V7.96463C117.219 8.34395 117.126 8.67003 116.94 8.94287C116.76 9.21572 116.511 9.42534 116.191 9.57174C115.879 9.71149 115.523 9.78136 115.123 9.78136H111.689ZM113.327 9.20241H115.063C115.562 9.20241 115.938 9.08595 116.191 8.85303C116.451 8.62012 116.581 8.30735 116.581 7.91472V7.83487C116.581 7.44224 116.451 7.12947 116.191 6.89656C115.938 6.66364 115.562 6.54719 115.063 6.54719H113.327V9.20241ZM113.327 5.96823H115.103C115.562 5.96823 115.922 5.8551 116.181 5.62884C116.448 5.39593 116.581 5.09314 116.581 4.72048V4.62066C116.581 4.24799 116.448 3.94853 116.181 3.72227C115.922 3.48936 115.562 3.3729 115.103 3.3729H113.327V5.96823Z" fill="black"/>
<path d="M118.658 9.78136V2.79395H122.881V3.3729H119.297V5.98819H122.601V6.56715H119.297V9.20241H122.921V9.78136H118.658Z" fill="black"/>
<path d="M126.079 9.78136V3.3729H123.743V2.79395H129.054V3.3729H126.718V9.78136H126.079Z" fill="black"/>
<path d="M128.812 9.78136L131.098 2.79395H132.236L134.522 9.78136H133.853L133.254 7.92471H130.08L129.481 9.78136H128.812ZM130.26 7.34575H133.074L131.727 3.17326H131.607L130.26 7.34575Z" fill="black"/>
</svg>
