<svg width="24" height="25" viewBox="0 0 24 25" fill="none" xmlns="http://www.w3.org/2000/svg">
<path d="M12 23.25C6.07 23.25 1.25 18.43 1.25 12.5C1.25 6.57 6.07 1.75 12 1.75C17.93 1.75 22.75 6.57 22.75 12.5C22.75 18.43 17.93 23.25 12 23.25ZM12 3.25C6.9 3.25 2.75 7.4 2.75 12.5C2.75 17.6 6.9 21.75 12 21.75C17.1 21.75 21.25 17.6 21.25 12.5C21.25 7.4 17.1 3.25 12 3.25Z" fill="black"/>
<path d="M9.16937 16.0799C8.97937 16.0799 8.78938 16.0099 8.63938 15.8599C8.34938 15.5699 8.34938 15.0899 8.63938 14.7999L14.2994 9.13986C14.5894 8.84986 15.0694 8.84986 15.3594 9.13986C15.6494 9.42986 15.6494 9.90986 15.3594 10.1999L9.69937 15.8599C9.55937 16.0099 9.35937 16.0799 9.16937 16.0799Z" fill="black"/>
<path d="M14.8294 16.0799C14.6394 16.0799 14.4494 16.0099 14.2994 15.8599L8.63938 10.1999C8.34938 9.90986 8.34938 9.42986 8.63938 9.13986C8.92937 8.84986 9.40937 8.84986 9.69937 9.13986L15.3594 14.7999C15.6494 15.0899 15.6494 15.5699 15.3594 15.8599C15.2094 16.0099 15.0194 16.0799 14.8294 16.0799Z" fill="black"/>
</svg>
