<svg width="19" height="19" viewBox="0 0 19 19" fill="none" xmlns="http://www.w3.org/2000/svg">
<rect x="0.642883" y="0.64286" width="17" height="17" rx="8.5" fill="white"/>
<rect x="0.642883" y="0.64286" width="17" height="17" rx="8.5" stroke="black"/>
<path d="M5.35077 5.35073H9.04562C10.0771 5.35073 11.0664 5.75025 11.7958 6.46141C12.5252 7.17256 12.9349 8.13709 12.9349 9.14282C12.9349 10.1485 12.5252 11.1131 11.7958 11.8242C11.0664 12.5354 10.0771 12.9349 9.04562 12.9349V10.9908C9.5483 10.9908 10.0304 10.7961 10.3858 10.4495C10.7413 10.103 10.941 9.63293 10.941 9.14282C10.941 8.6527 10.7413 8.18266 10.3858 7.8361C10.0304 7.48954 9.5483 7.29484 9.04562 7.29484V7.29539H7.10096V9.04558H5.35077V5.35073Z" fill="black"/>
<path d="M7.10096 9.04558L9.04562 9.04559V10.9902H7.10096L7.10096 9.04558Z" fill="black"/>
</svg>
