<svg width="32" height="32" viewBox="0 0 32 32" fill="none" xmlns="http://www.w3.org/2000/svg">
<path d="M23.4272 2.81555C22.5945 3.63891 21.8315 4.53129 21.1534 5.48284L20.939 5.41381C19.7024 5.01446 18.4209 4.76794 17.1294 4.68413C16.7404 4.65455 15.2894 4.65455 14.8157 4.68413C13.3846 4.77781 12.2876 4.98981 11.041 5.41874C10.9911 5.43847 10.9463 5.45326 10.9014 5.46805C10.1983 4.52143 9.41544 3.63398 8.5528 2.82048C12.6915 0.725098 17.5333 0.473653 21.8665 2.1253C22.3302 2.29786 22.7839 2.50001 23.2277 2.71694L23.4272 2.81555Z" fill="#F00500"/>
<path d="M31.146 21.5162C30.5177 23.2862 29.5753 24.9279 28.3536 26.3577C27.6905 27.1269 26.9575 27.8319 26.1696 28.4728C24.3246 29.9421 22.1705 30.9922 19.8718 31.5444C17.3287 32.1508 14.676 32.1508 12.1329 31.5444C9.82921 30.9922 7.68008 29.9421 5.83511 28.4728C5.04726 27.8319 4.31426 27.1269 3.65107 26.3577C0.135669 22.2508 -0.931419 16.6105 0.858695 11.5274C1.19777 10.5857 1.62161 9.67852 2.13022 8.81572C2.36458 8.42129 2.6538 7.97757 2.79342 7.79514C3.27211 9.83136 3.8605 11.6211 4.0799 12.2669C4.06494 12.3014 4.045 12.3409 4.02505 12.3754C2.86322 14.7025 2.23494 16.9458 2.08535 19.332C2.08535 19.3616 2.08036 19.3961 2.08036 19.4257C2.04047 20.1406 2.06041 20.4808 2.18009 20.9295C2.55407 22.3346 3.70593 23.8827 5.511 25.4013C8.46793 27.8861 12.477 29.6808 15.5137 29.8878C18.68 30.0998 23.3523 28.2707 26.4638 25.5985C26.9525 25.1695 27.4112 24.7159 27.84 24.2328C28.1492 23.8778 28.608 23.2664 28.573 23.2664C28.5631 23.2664 28.573 23.2566 28.593 23.2467C28.608 23.2368 28.6229 23.2221 28.6129 23.2122C28.6079 23.2073 28.6179 23.1925 28.6329 23.1875C28.6478 23.1826 28.6578 23.1728 28.6528 23.1629C28.6478 23.153 28.6528 23.1432 28.6728 23.1382C28.6877 23.1333 28.6927 23.1185 28.6877 23.1087C28.6827 23.0988 28.6877 23.0889 28.6977 23.0889C28.7077 23.0889 28.7177 23.0741 28.7177 23.0643C28.7177 23.0544 28.7276 23.0396 28.7376 23.0396C28.7476 23.0396 28.7575 23.0298 28.7575 23.0199C28.7725 22.9805 28.7974 22.941 28.8224 22.9065C28.8972 22.7931 29.1963 22.2656 29.2362 22.1768C29.5205 21.5408 29.7 20.9738 29.7847 20.4069C29.8246 20.1357 29.8496 19.6377 29.8296 19.5194C29.8246 19.4997 29.8246 19.4652 29.8196 19.4109C29.8097 19.3123 29.8047 19.1644 29.7947 19.0165C29.7847 18.7946 29.7648 18.484 29.7498 18.3312C29.5354 16.0928 28.957 14.2637 27.86 12.3261C27.8151 12.2521 27.7752 12.1782 27.7503 12.119C27.7403 12.1042 27.7353 12.0894 27.7303 12.0796C27.8849 11.6211 28.5182 9.70317 29.0218 7.50919L29.0318 7.51905L29.1066 7.61765C29.2362 7.79021 29.5803 8.30296 29.7349 8.54948C30.438 9.68345 30.9865 10.9012 31.3754 12.1733C32.2779 15.235 32.2031 18.4988 31.146 21.5162Z" fill="#F00500"/>
<path d="M24.6738 15.6245C24.6588 15.7034 24.4245 15.94 24.1901 16.1126C23.502 16.6105 22.2704 17.074 21.0188 17.2959C20.3057 17.424 19.5927 17.4438 19.3783 17.3402C19.2386 17.2712 19.2187 17.217 19.2686 17.0395C19.3733 16.6697 19.7124 16.2654 20.2409 15.8858C20.5102 15.6935 21.6022 15.0378 22.1108 14.7617C22.9485 14.3081 23.6267 14.0369 24.0854 13.9728C24.23 13.9531 24.4045 13.9482 24.4594 13.9728C24.5491 14.0073 24.6489 14.2687 24.6888 14.5842C24.7087 14.7518 24.6987 15.4914 24.6738 15.6245Z" fill="black"/>
<path d="M12.9258 17.2564C12.8959 17.3156 12.7463 17.3797 12.5768 17.4043C12.4072 17.429 11.8886 17.4142 11.5944 17.3797C10.5373 17.2416 9.4154 16.9211 8.59763 16.5267C8.13888 16.3048 7.80978 16.083 7.56545 15.8414L7.42583 15.6984L7.41087 15.5111C7.38594 15.1857 7.39092 14.6729 7.43082 14.4905C7.45575 14.3377 7.5106 14.1897 7.58539 14.0566C7.62528 14.0073 7.62528 14.0073 7.80479 14.0073C8.0242 14.0073 8.20869 14.0418 8.50787 14.1355C9.1212 14.3229 10.0337 14.7765 11.1457 15.4371C12.0632 15.9794 12.4072 16.2457 12.6715 16.6105C12.851 16.8373 12.9707 17.1578 12.9258 17.2564Z" fill="black"/>
<path d="M19.9865 24.1194C19.9865 24.1342 19.9267 24.3708 19.8519 24.6519C19.7771 24.9329 19.7172 25.1597 19.7172 25.1695C19.6624 25.1745 19.6125 25.1794 19.5577 25.1745H19.3981L19.1787 25.6872C19.059 25.9683 18.9493 26.2296 18.9344 26.269L18.9044 26.338L18.7997 26.1704L18.695 26.0028V24.6371L18.6551 24.6469C18.5704 24.6667 17.967 24.7455 17.7027 24.7702C16.6107 24.8787 15.5137 24.854 14.4267 24.7012C14.2521 24.6765 14.1025 24.6568 14.0976 24.6617C14.0926 24.6667 14.0976 24.9822 14.1075 25.3717L14.1225 26.0718L14.0377 26.2C13.9929 26.269 13.948 26.3282 13.948 26.3331C13.933 26.3479 13.8831 26.269 13.7685 26.0422C13.6438 25.8056 13.554 25.5541 13.4892 25.2928L13.4543 25.1498L13.2997 25.1597L13.1452 25.1745L13.1053 24.9921C13.0853 24.8934 13.0604 24.7406 13.0504 24.6568L13.0355 24.499L12.9058 24.3856C12.831 24.3215 12.7562 24.2574 12.7413 24.2476C12.7163 24.2279 12.7064 24.1933 12.7064 24.1638V24.1046L13.3297 24.1095L13.953 24.1145L13.9729 24.1786L13.9929 24.2426L14.2073 24.2525C14.3269 24.2574 14.7059 24.2673 15.045 24.2772L15.6683 24.292L15.8278 24.0454L15.9924 23.7989H16.2018L16.1968 23.2862L16.1918 22.7734L15.9176 22.6551C15.035 22.2705 14.5164 21.8317 14.322 21.2993C14.2821 21.1908 14.2821 21.1513 14.2721 20.6583C14.2671 20.1702 14.2671 20.1258 14.302 20.0174C14.3718 19.7709 14.5663 19.5786 14.8156 19.5145C14.9004 19.4898 15.1248 19.4898 16.3016 19.4898L17.6878 19.4948L17.8423 19.5687C18.0268 19.6575 18.1116 19.7216 18.2163 19.8596C18.336 20.0174 18.3709 20.1406 18.3709 20.4414C18.3709 20.8703 18.341 21.2401 18.2961 21.388C18.2313 21.5901 18.1316 21.7824 18.0069 21.955C17.7576 22.2705 17.3038 22.5861 16.8899 22.729L16.7703 22.7734L16.7753 23.2911L16.7802 23.8088L16.8899 23.8186L16.9996 23.8285L17.1492 24.0504L17.2938 24.2722H17.962C18.331 24.2722 18.6551 24.2772 18.685 24.2821C18.7349 24.292 18.7449 24.287 18.7947 24.2032L18.8546 24.1145H19.428C19.8568 24.0947 19.9865 24.1046 19.9865 24.1194Z" fill="black"/>
<path d="M17.3538 25.5343C17.259 25.5886 17.1942 25.6132 17.1792 25.6034C17.1643 25.5984 17.0945 25.5393 17.0197 25.485L16.8851 25.3766L16.7454 25.5245C16.4413 25.8499 16.4313 25.8647 16.3415 25.8696C16.2019 25.8844 16.172 25.8597 16.0025 25.6083C15.9127 25.4801 15.8429 25.3716 15.8429 25.3716C15.8429 25.3716 15.7781 25.3618 15.7033 25.3568L15.5637 25.3421L15.4988 25.4752L15.434 25.6083L15.3193 25.5738C15.2296 25.5442 15.1398 25.5097 15.055 25.4702L14.9055 25.3963V25.1153L16.2318 25.1202L17.5582 25.1251L17.5632 25.2582C17.5682 25.416 17.5732 25.4111 17.3538 25.5343Z" fill="black"/>
<path d="M29.8197 19.5194C29.8147 19.4997 29.8147 19.4652 29.8097 19.411C28.613 19.2828 25.1973 19.2039 22.026 21.7923C22.026 21.7923 21.0038 17.1578 16.2168 17.1578C11.4299 17.1578 9.65476 21.7923 9.65476 21.7923C6.97209 18.9376 3.38189 19.1447 2.08543 19.3321C2.08543 19.3616 2.08044 19.3962 2.08044 19.4257C2.04055 20.1406 2.06049 20.4808 2.18017 20.9295C2.55415 22.3346 3.706 23.8827 5.51108 25.4013C8.468 27.8861 12.4771 29.6808 15.5138 29.8878C18.6801 30.0998 23.3524 28.2707 26.4639 25.5985C26.9525 25.1695 27.4113 24.716 27.8401 24.2328C28.1493 23.8778 28.608 23.2665 28.5731 23.2665C28.5632 23.2665 28.5731 23.2566 28.5931 23.2467C28.608 23.2369 28.623 23.2221 28.613 23.2122C28.608 23.2073 28.618 23.1925 28.633 23.1876C28.6479 23.1826 28.6579 23.1728 28.6529 23.1629C28.6479 23.1531 28.6529 23.1432 28.6729 23.1383C28.6878 23.1333 28.6928 23.1185 28.6878 23.1087C28.6828 23.0988 28.6878 23.089 28.6978 23.089C28.7078 23.089 28.7177 23.0742 28.7177 23.0643C28.7177 23.0544 28.7277 23.0397 28.7377 23.0397C28.7476 23.0397 28.7576 23.0298 28.7576 23.0199C28.7726 22.9805 28.7975 22.941 28.8224 22.9065C28.8972 22.7931 29.1964 22.2656 29.2363 22.1769C29.5205 21.5408 29.7 20.9739 29.7848 20.4069C29.8147 20.1357 29.8397 19.6377 29.8197 19.5194ZM17.3537 25.5344C17.259 25.5886 17.1942 25.6133 17.1792 25.6034C17.1643 25.5985 17.0945 25.5393 17.0197 25.4851L16.885 25.3766L16.7454 25.5245C16.4412 25.8499 16.4313 25.8647 16.3415 25.8696C16.2019 25.8844 16.172 25.8598 16.0024 25.6083C15.9127 25.4802 15.8429 25.3717 15.8429 25.3717C15.8429 25.3717 15.7781 25.3618 15.7033 25.3569L15.5636 25.3421L15.4988 25.4752L15.434 25.6083L15.3193 25.5738C15.2295 25.5442 15.1398 25.5097 15.055 25.4703L14.9054 25.3963V25.1153L16.2318 25.1202L17.5582 25.1252L17.5632 25.2583C17.5682 25.4161 17.5731 25.4111 17.3537 25.5344ZM19.8469 24.6469C19.7721 24.928 19.7123 25.1548 19.7123 25.1646C19.6575 25.1695 19.6076 25.1745 19.5527 25.1695H19.3932L19.1788 25.6872C19.0591 25.9683 18.9494 26.2296 18.9344 26.269L18.9045 26.338L18.7998 26.1704L18.6951 26.0028V24.6371L18.6552 24.6469C18.5704 24.6667 17.9671 24.7455 17.7028 24.7702C16.6108 24.8787 15.5138 24.854 14.4267 24.7012C14.2522 24.6765 14.1026 24.6568 14.0976 24.6617C14.0926 24.6667 14.0976 24.9822 14.1076 25.3717L14.1226 26.0718L14.0378 26.2C13.9929 26.269 13.948 26.3282 13.948 26.3331C13.9331 26.3479 13.8832 26.269 13.7685 26.0422C13.6439 25.8056 13.5541 25.5541 13.4893 25.2928L13.4544 25.1498L13.2998 25.1597L13.1452 25.1745L13.1053 24.9921C13.0854 24.8935 13.0605 24.7406 13.0505 24.6568L13.0355 24.499L12.9059 24.3856C12.8311 24.3215 12.7563 24.2574 12.7413 24.2476C12.7164 24.2279 12.7064 24.1933 12.7064 24.1638V24.1046L13.3297 24.1095L13.953 24.1145L13.973 24.1786L13.9929 24.2427L14.2073 24.2525C14.327 24.2574 14.706 24.2673 15.045 24.2772L15.6683 24.292L15.8279 24.0454L15.9925 23.7989H16.2019L16.1969 23.2862L16.1919 22.7734L15.9177 22.6551C15.0351 22.2705 14.5165 21.8317 14.322 21.2993C14.2821 21.1908 14.2821 21.1514 14.2722 20.6583C14.2672 20.1702 14.2672 20.1258 14.3021 20.0174C14.3719 19.7709 14.5664 19.5786 14.8157 19.5145C14.9004 19.4898 15.1248 19.4898 16.3016 19.4898L17.6878 19.4948L17.8424 19.5687C18.0269 19.6575 18.1117 19.7216 18.2164 19.8596C18.3361 20.0174 18.371 20.1406 18.371 20.4414C18.371 20.8703 18.3411 21.2401 18.2962 21.388C18.2314 21.5901 18.1316 21.7824 18.007 21.955C17.7576 22.2705 17.3039 22.5861 16.89 22.729L16.7703 22.7734L16.7753 23.2911L16.7803 23.8088L16.89 23.8186L16.9997 23.8285L17.1493 24.0504L17.2939 24.2722H17.9621C18.3311 24.2722 18.6552 24.2772 18.6851 24.2821C18.735 24.292 18.745 24.287 18.7948 24.2032L18.8547 24.1145H19.4281C19.8719 24.1145 20.0015 24.1194 20.0015 24.1342C19.9866 24.1293 19.9217 24.3708 19.8469 24.6469Z" fill="white"/>
<path d="M29.7798 19.0165C29.7698 18.7947 29.7499 18.484 29.7349 18.3312C29.5205 16.0929 28.9421 14.2637 27.8451 12.3261C27.8002 12.2521 27.7603 12.1782 27.7354 12.119C27.7254 12.1042 27.7204 12.0894 27.7154 12.0796C27.87 11.6211 28.5033 9.70318 29.0069 7.5092C29.6901 4.5313 30.1239 1.0505 28.7975 0.00528007C28.7975 0.00528007 26.5038 -0.16235 23.4321 2.81555C22.5994 3.63891 21.8365 4.5313 21.1583 5.48284L20.9439 5.41382C19.7073 5.01447 18.4258 4.76795 17.1343 4.68414C16.7454 4.65455 15.2944 4.65455 14.8206 4.68414C13.3896 4.77781 12.2926 4.98981 11.046 5.41875C10.9961 5.43847 10.9512 5.45326 10.9063 5.46805C10.2033 4.52144 9.42039 3.63398 8.55774 2.82048C5.36147 -0.172211 2.98296 0.000349468 2.98296 0.000349468C1.5768 1.08009 2.05549 4.71865 2.78351 7.79516C3.2622 9.83137 3.85059 11.6211 4.06999 12.2669C4.05504 12.3015 4.03509 12.3409 4.01515 12.3754C2.85332 14.7025 2.22503 16.9458 2.07544 19.3321C3.37689 19.1447 6.9621 18.9327 9.64976 21.7923C9.64976 21.7923 11.4249 17.1578 16.2119 17.1578C20.9988 17.1578 22.021 21.7923 22.021 21.7923C25.1923 19.2039 28.608 19.2877 29.8047 19.4109C29.7998 19.3123 29.7898 19.1644 29.7798 19.0165ZM5.01242 10.4082C5.01242 10.4082 3.14751 5.79838 3.6262 3.1656C3.70599 2.72188 3.85558 2.33238 4.08994 2.03656C4.08994 2.03656 6.20417 2.24364 9.61486 5.99067C9.61486 5.99067 8.96663 6.30128 8.099 6.96194C8.099 6.96194 8.09401 6.96686 8.08902 6.96686C7.1466 7.68176 5.93989 8.81573 5.01242 10.4082ZM12.9258 17.2564C12.8959 17.3156 12.7463 17.3797 12.5768 17.4043C12.4072 17.429 11.8887 17.4142 11.5945 17.3797C10.5373 17.2416 9.41541 16.9211 8.59764 16.5267C8.13889 16.3049 7.80978 16.083 7.56545 15.8414L7.42584 15.6984L7.41087 15.5111C7.38594 15.1857 7.39093 14.6729 7.43082 14.4905C7.45575 14.3377 7.5106 14.1898 7.5854 14.0566C7.62529 14.0073 7.62529 14.0073 7.8048 14.0073C8.0242 14.0073 8.2087 14.0418 8.50788 14.1355C9.12121 14.3229 10.0337 14.7765 11.1457 15.4371C12.0632 15.9795 12.4072 16.2457 12.6715 16.6105C12.851 16.8373 12.9707 17.1578 12.9258 17.2564ZM24.6737 15.6245C24.6588 15.7034 24.4244 15.94 24.1901 16.1126C23.5019 16.6105 22.2703 17.074 21.0187 17.2958C20.3057 17.424 19.5926 17.4438 19.3782 17.3402C19.2386 17.2712 19.2186 17.217 19.2685 17.0395C19.3732 16.6697 19.7123 16.2654 20.2409 15.8858C20.5101 15.6935 21.6021 15.0378 22.1108 14.7617C22.9485 14.3081 23.6266 14.0369 24.0854 13.9728C24.23 13.9531 24.4045 13.9482 24.4593 13.9728C24.5491 14.0073 24.6488 14.2686 24.6887 14.5842C24.7087 14.7518 24.6987 15.4914 24.6737 15.6245ZM23.846 6.96194L23.836 6.95701C22.9983 6.29634 22.37 5.98573 22.37 5.98573C25.666 2.23871 27.7055 2.03163 27.7055 2.03163C27.9299 2.33238 28.0745 2.71695 28.1542 3.16067C28.618 5.79345 26.8179 10.4082 26.8179 10.4082C26.065 9.08196 25.0527 7.90855 23.846 6.96194Z" fill="#FFA409"/>
<path d="M28.1593 3.16069C27.7703 3.11138 25.9303 3.10152 23.846 6.96195L23.8361 6.95702C22.9983 6.29636 22.3701 5.98575 22.3701 5.98575C25.6661 2.23872 27.7055 2.03165 27.7055 2.03165C27.9349 2.3324 28.0795 2.71696 28.1593 3.16069Z" fill="#FF9300"/>
<path d="M26.8229 10.4082C26.065 9.07706 25.0577 7.90858 23.846 6.96197C25.9303 3.10154 27.7653 3.1114 28.1592 3.1607C28.623 5.79841 26.8229 10.4082 26.8229 10.4082Z" fill="#FF8300"/>
<path d="M28.2333 3.17547C28.2086 3.17054 28.184 3.16561 28.1593 3.16068L28.2333 3.17547Z" fill="#FF8300"/>
<path d="M9.61485 5.98575C9.61485 5.98575 8.96663 6.29636 8.09899 6.95702C8.09899 6.95702 8.094 6.96195 8.08902 6.96195C5.92991 3.09659 4.0301 3.11138 3.62122 3.16069C3.701 2.71696 3.85059 2.32746 4.08495 2.03165C4.08994 2.03165 6.20416 2.23872 9.61485 5.98575Z" fill="#FF9300"/>
<path d="M8.09399 6.96197C7.14657 7.68179 5.93987 8.81083 5.0124 10.4082C5.0124 10.4082 3.14749 5.79841 3.62618 3.1607C4.03008 3.1114 5.93488 3.10154 8.09399 6.96197Z" fill="#FF8300"/>
<path d="M3.62527 3.16068C3.60062 3.16561 3.57104 3.17054 3.54639 3.17547L3.62527 3.16068Z" fill="#FF8300"/>
<path d="M21.7767 12.967C21.7767 12.967 20.181 13.0656 20.3805 11.8331C20.5799 10.6005 21.8265 10.4526 22.1756 10.5019C22.5246 10.5512 23.9208 11.0442 23.6715 12.0796C23.4222 13.1149 23.0731 12.9177 22.8737 12.967C22.6742 13.0163 21.7767 12.967 21.7767 12.967Z" fill="white"/>
<path d="M10.0088 12.967C10.0088 12.967 8.41314 13.0656 8.61259 11.8331C8.81205 10.6005 10.0586 10.4526 10.4077 10.5019C10.7567 10.5512 12.1529 11.0442 11.9036 12.0796C11.6543 13.1149 11.3052 12.9177 11.1058 12.967C10.9063 13.0163 10.0088 12.967 10.0088 12.967Z" fill="white"/>
</svg>
