<svg width="32" height="32" viewBox="0 0 32 32" fill="none" xmlns="http://www.w3.org/2000/svg">
<g clip-path="url(#clip0_13_1216)">
<path d="M16 0C24.8362 0 32 7.16384 32 16C32 24.8362 24.8358 32 16 32C7.16416 32 0 24.8381 0 16C0 7.16192 7.16288 0 16 0Z" fill="#53AE94"/>
<path d="M17.9747 13.8682V11.488H23.4176V7.86143H8.59649V11.488H14.04V13.8662C9.61601 14.0694 6.28961 14.9456 6.28961 15.9952C6.28961 17.0448 9.61761 17.921 14.04 18.1254V25.7494H17.976V18.1248C22.392 17.921 25.7117 17.0454 25.7117 15.9968C25.7117 14.9482 22.392 14.0726 17.976 13.8688M17.976 17.479V17.4771C17.865 17.4842 17.2944 17.5184 16.024 17.5184C15.0083 17.5184 14.2938 17.4896 14.0419 17.4765V17.4797C10.1335 17.3066 7.21601 16.6259 7.21601 15.8115C7.21601 14.9971 10.1338 14.3174 14.0419 14.144V16.8016C14.2979 16.8192 15.0301 16.8624 16.0407 16.8624C17.2544 16.8624 17.8647 16.8118 17.9767 16.8016V14.144C21.8775 14.3178 24.7882 14.999 24.7882 15.8106C24.7882 16.6221 21.8762 17.3037 17.9767 17.4774" fill="white"/>
</g>
<defs>
<clipPath id="clip0_13_1216">
<rect width="32" height="32" fill="white"/>
</clipPath>
</defs>
</svg>
