<svg width="24" height="24" viewBox="0 0 24 24" fill="none" xmlns="http://www.w3.org/2000/svg">
<path d="M8.03825 3.6687C7.27574 3.6687 4.97687 4.60129 4.56443 4.78767C4.15199 4.97404 3.6942 5.55585 3.17476 6.51607C2.6546 7.4763 2.23721 8.59881 1.55902 10.25C0.881551 11.9011 0.723521 15.0844 0.746198 16.056C0.768875 17.0275 0.880134 17.7865 1.87579 18.3612C2.87074 18.9352 3.75089 19.5362 4.6771 19.8976C5.60402 20.259 6.23614 20.5191 6.66559 20.1577C7.09503 19.7963 7.37779 19.1634 7.37779 19.1634C7.37779 19.1634 7.78455 18.5986 7.01637 18.2599C6.24819 17.9204 5.8641 17.6831 5.89741 17.333C5.93142 16.9829 5.98741 16.7909 6.17945 16.8362C6.3715 16.8816 6.82433 17.6944 8.56407 18.0671C10.3038 18.4399 11.9996 18.3839 11.9996 18.3839C11.9996 18.3839 13.6961 18.4406 15.4359 18.0671C17.1756 17.6944 17.6278 16.8816 17.8198 16.8362C18.0119 16.7909 18.0678 16.9829 18.1019 17.3323C18.1359 17.6831 17.7518 17.9204 16.9836 18.2599C16.2154 18.5986 16.6222 19.1634 16.6222 19.1634C16.6222 19.1634 16.9049 19.7955 17.3344 20.1577C17.7631 20.5191 18.3959 20.259 19.3222 19.8976C20.2484 19.5362 21.1292 18.936 22.1242 18.3612C23.1198 17.7865 23.2311 17.0275 23.2538 16.056C23.2764 15.0851 23.1184 11.9011 22.4402 10.25C21.7628 8.59881 21.3447 7.4763 20.8245 6.51607C20.3058 5.55585 19.8473 4.97404 19.4355 4.78696C19.0231 4.60129 16.7235 3.6687 15.961 3.6687C15.1985 3.6687 14.9731 4.20019 14.9731 4.20019L14.7074 4.78767C14.7074 4.78767 12.9216 4.44822 12.0117 4.44751C11.1018 4.44751 9.29257 4.78767 9.29257 4.78767L9.02683 4.19948C9.02683 4.19948 8.80147 3.6687 8.03825 3.6687ZM8.12117 10.7184H8.14951C9.26139 10.7184 10.1621 11.6914 10.1621 12.8911C10.1621 14.0916 9.26139 15.0639 8.14951 15.0639C7.03763 15.0639 6.13693 14.0916 6.13693 12.8911C6.13622 11.7027 7.02062 10.7347 8.12117 10.7184ZM15.8505 10.7184H15.8788C16.9793 10.7347 17.863 11.7034 17.863 12.8911C17.863 14.0916 16.9623 15.0639 15.8505 15.0639C14.7379 15.0639 13.8379 14.0916 13.8379 12.8911C13.8379 11.6914 14.7379 10.7184 15.8505 10.7184Z" fill="white"/>
</svg>
