<svg width="43" height="42" viewBox="0 0 43 42" fill="none" xmlns="http://www.w3.org/2000/svg">
<g clip-path="url(#clip0_381_1577)">
<path d="M28.975 0H13.225C9.74405 0 6.40566 1.38281 3.94424 3.84422C1.48283 6.30564 0.100021 9.64403 0.100021 13.125L0.100021 28.875C0.100021 32.356 1.48283 35.6944 3.94424 38.1558C6.40566 40.6172 9.74405 42 13.225 42H28.975C32.456 42 35.7944 40.6172 38.2558 38.1558C40.7172 35.6944 42.1 32.356 42.1 28.875V13.125C42.1 9.64403 40.7172 6.30564 38.2558 3.84422C35.7944 1.38281 32.456 0 28.975 0ZM38.1625 28.875C38.1625 33.9412 34.0413 38.0625 28.975 38.0625H13.225C8.15877 38.0625 4.03752 33.9412 4.03752 28.875V13.125C4.03752 8.05875 8.15877 3.9375 13.225 3.9375H28.975C34.0413 3.9375 38.1625 8.05875 38.1625 13.125V28.875Z" fill="white"/>
<path d="M21.1 10.5C18.3152 10.5 15.6445 11.6062 13.6754 13.5754C11.7063 15.5445 10.6 18.2152 10.6 21C10.6 23.7848 11.7063 26.4555 13.6754 28.4246C15.6445 30.3938 18.3152 31.5 21.1 31.5C23.8848 31.5 26.5555 30.3938 28.5246 28.4246C30.4938 26.4555 31.6 23.7848 31.6 21C31.6 18.2152 30.4938 15.5445 28.5246 13.5754C26.5555 11.6062 23.8848 10.5 21.1 10.5ZM21.1 27.5625C19.3602 27.5604 17.6922 26.8683 16.4619 25.6381C15.2317 24.4078 14.5396 22.7398 14.5375 21C14.5375 17.3801 17.4828 14.4375 21.1 14.4375C24.7173 14.4375 27.6625 17.3801 27.6625 21C27.6625 24.6173 24.7173 27.5625 21.1 27.5625Z" fill="white"/>
<path d="M32.3875 11.1117C33.1602 11.1117 33.7867 10.4853 33.7867 9.7126C33.7867 8.93989 33.1602 8.31348 32.3875 8.31348C31.6148 8.31348 30.9884 8.93989 30.9884 9.7126C30.9884 10.4853 31.6148 11.1117 32.3875 11.1117Z" fill="white"/>
</g>
<defs>
<clipPath id="clip0_381_1577">
<rect width="42" height="42" fill="white" transform="translate(0.100021)"/>
</clipPath>
</defs>
</svg>
