<svg width="20" height="21" viewBox="0 0 20 21" fill="none" xmlns="http://www.w3.org/2000/svg">
<path d="M17.7082 8.12494C15.7832 5.09994 12.9665 3.35828 9.99984 3.35828C8.5165 3.35828 7.07484 3.79161 5.75817 4.59994C4.4415 5.41661 3.25817 6.60828 2.2915 8.12494C1.45817 9.43328 1.45817 11.5583 2.2915 12.8666C4.2165 15.8999 7.03317 17.6333 9.99984 17.6333C11.4832 17.6333 12.9248 17.1999 14.2415 16.3916C15.5582 15.5749 16.7415 14.3833 17.7082 12.8666C18.5415 11.5666 18.5415 9.43328 17.7082 8.12494ZM9.99984 13.8666C8.13317 13.8666 6.63317 12.3583 6.63317 10.4999C6.63317 8.64161 8.13317 7.13328 9.99984 7.13328C11.8665 7.13328 13.3665 8.64161 13.3665 10.4999C13.3665 12.3583 11.8665 13.8666 9.99984 13.8666Z" fill="#5F5F5F"/>
<path d="M10 8.1167C8.69167 8.1167 7.625 9.18337 7.625 10.5C7.625 11.8084 8.69167 12.875 10 12.875C11.3083 12.875 12.3833 11.8084 12.3833 10.5C12.3833 9.1917 11.3083 8.1167 10 8.1167Z" fill="#5F5F5F"/>
</svg>
